/* XPM */
static char *_f70ba4ee9074159c6d8639756adc4cfrGKOn3z7p1KTnjM3[] = {
/* columns rows colors chars-per-pixel */
"64 64 205 2 ",
"   c None",
".  c #76A714",
"X  c #B57329",
"o  c #66990E",
"O  c #7DB418",
"+  c #84B737",
"@  c #416A25",
"#  c #3D6626",
"$  c #FD0403",
"%  c #FE0C0B",
"&  c #FD0A06",
"*  c #EA341F",
"=  c #719628",
"-  c #679417",
";  c #77A722",
":  c #7CB22F",
">  c #4A792B",
",  c #3D7125",
"<  c #FE1414",
"1  c #FB271B",
"2  c #EB130A",
"3  c #B63520",
"4  c #506421",
"5  c #45751D",
"6  c #6B9728",
"7  c #64942B",
"8  c #F6352B",
"9  c #FA433A",
"0  c #F40A08",
"q  c #E35639",
"w  c #668B0A",
"e  c #64930B",
"r  c #69960D",
"t  c #78A535",
"y  c #9CCE4E",
"u  c #FC2623",
"i  c #FD514C",
"p  c #F95655",
"a  c #F30B05",
"s  c #A8460B",
"d  c #5C8A09",
"f  c #8BBB41",
"g  c #FC1B16",
"h  c #F0432B",
"j  c #EA3D34",
"k  c #F05140",
"l  c #F22E2C",
"z  c #E82719",
"x  c #95380B",
"c  c #6F760B",
"v  c #6D9B13",
"b  c #84CF43",
"n  c #79B636",
"m  c #FA3633",
"M  c #F93A35",
"N  c #EB1C1B",
"B  c #E67859",
"V  c #F37A6B",
"C  c #FD615D",
"Z  c #D30402",
"A  c #AD140A",
"S  c #88500C",
"D  c #81B22E",
"F  c #618C24",
"G  c #5F891D",
"H  c #9EE155",
"J  c #7CCB3E",
"K  c #538C27",
"L  c #F12821",
"P  c #FA4C49",
"I  c #FE7876",
"U  c #F7534E",
"Y  c #FD6D6D",
"T  c #FF4642",
"R  c #FF2E2A",
"E  c #D33C27",
"W  c #DC0503",
"Q  c #AB0504",
"!  c #669935",
"~  c #385D19",
"^  c #FD7573",
"/  c #EC342C",
"(  c #F56A65",
")  c #CC341B",
"_  c #94511A",
"`  c #598625",
"'  c #628D36",
"]  c #3E631A",
"[  c #FD1C1B",
"{  c #FE6363",
"}  c #FE6B67",
"|  c #FE7C7A",
" . c #EC2C2C",
".. c #D6261B",
"X. c #F25951",
"o. c #EA0402",
"O. c #AF4214",
"+. c #709D31",
"@. c #598837",
"#. c #E54E3C",
"$. c #EC3535",
"%. c #FB9996",
"&. c #FC8F91",
"*. c #FFA9AA",
"=. c #FFB7B8",
"-. c #E40C09",
";. c #B81E15",
":. c #808B2D",
">. c #6BA835",
",. c #EC5B53",
"<. c #FFB3B6",
"1. c #F57371",
"2. c #CD130C",
"3. c #FFA6AA",
"4. c #FF2D24",
"5. c #C4482C",
"6. c #768130",
"7. c #659639",
"8. c #583616",
"9. c #567807",
"0. c #4D7411",
"q. c #F3211C",
"w. c #EA2321",
"e. c #FD8383",
"r. c #EB5B45",
"t. c #E71918",
"y. c #B3120D",
"u. c #6F3112",
"i. c #840A03",
"p. c #588607",
"a. c #568408",
"s. c #83B91A",
"d. c #E7442C",
"f. c #E65244",
"g. c #DD130E",
"h. c #D92B28",
"j. c #BB0303",
"k. c #9C0202",
"l. c #940704",
"z. c #8D1804",
"x. c #F4433E",
"c. c #F53E3C",
"v. c #E00807",
"b. c #FC5D5C",
"n. c #FD5452",
"m. c #A30303",
"M. c #568307",
"N. c #E54132",
"B. c #E51513",
"V. c #DC0805",
"C. c #EF4B43",
"Z. c #F31A1A",
"A. c #F9100C",
"S. c #CA1C13",
"D. c #D73324",
"F. c #D20C09",
"G. c #BA4528",
"H. c #D3342A",
"J. c #BB0C0A",
"K. c #AD0B09",
"L. c #C62919",
"P. c #C20403",
"I. c #CC0302",
"U. c #DC0C0B",
"Y. c #D31009",
"T. c #C80906",
"R. c #B30C0A",
"E. c #748D12",
"W. c #6B9B0E",
"Q. c #E32A25",
"!. c #DB2B1D",
"~. c #E20403",
"^. c #CD0C0A",
"/. c #6B4709",
"(. c #C50D0A",
"). c #C41C14",
"_. c #B51411",
"`. c #E53526",
"'. c #B30404",
"]. c #C52926",
"[. c #BC110E",
"{. c #C3221C",
"}. c #CB221D",
"|. c #CC1B19",
" X c #D61815",
".X c #CC4C33",
"XX c #B8261A",
"oX c #BB3323",
"OX c #BB1513",
"+X c #C21514",
"@X c #A90B08",
"#X c #CC2A26",
"$X c #BE1D19",
"%X c #D22B24",
"&X c #C11C1A",
"*X c #C42522",
"=X c #BD4730",
"-X c #BB221B",
";X c #C72A28",
":X c #CA2D2A",
">X c #C43227",
",X c #C13D31",
"<X c #CC2421",
"1X c #D23532",
"2X c #B60A06",
/* pixels */
"                                                                                                                                ",
"                                                                                                                                ",
"                                                                                                                                ",
"                                                                                                                                ",
"                                                                                                                                ",
"                                                                                                                                ",
"                                                                                                                                ",
"                                                                                                                                ",
"                                                                                                                                ",
"                                                                                                                                ",
"                                                                                                                                ",
"                                                                                                                                ",
"                                                                                                                                ",
"                                                                                                                                ",
"                                                                                                                                ",
"                                                                                                                                ",
"                                                                                                                                ",
"                                                                                                                                ",
"                                                                  .                                                             ",
"                                                                  X o O +   @ #                                                 ",
"                                                            $ % & * = - ; : > ,                                                 ",
"                                                        < % * 1 $ 2 3 4 5 6 7 >                                                 ",
"                                                    $ & 8 9 0 q 8 2 w e r e t y                                                 ",
"                                                    % u i p $ a 2 s d e e o 6 f                                                 ",
"                                                  g h i j k g 0 l z x c w e v + 7       b n                                     ",
"                                                % $ g i m M N B V C Z A S w e D F G H J K                                       ",
"                                              L j P C I U Y T 9 R & E W Z Q - F ! K ~                                           ",
"                                            % % u g ^ / q ( R g R & ) $ W _ 7 ` ' ]                                             ",
"                                            [ m { } | [ 8 {  ...X.T $ o.O.+.! @.> `                                             ",
"                                            P #.C $.%.&.*.=.-.q V T Z ;.:.>.' > @ ` 6                                           ",
"                                          < T I | ,.<.1.2.z 3.{ 4.$ 5.6.7.@.# 8.9.0.;                                           ",
"                                        q.q.p w.e.e.3.p r.%.1.t.$.g y.u.u.u.i.i.p.a.s.                                          ",
"                                        d.f. ...{ w.^ Y 9 e.N g.h.m j.k.l.l.l.z.p.p..                                           ",
"                                      1 u x.#.r.c.v.b.n.m n.2 d.#.x.j.Q Q m.m.z.M.p.. s.                                        ",
"                                    d.N.B.V.C.N Z.p A.V.S.D.m c.L F.G.H.J.K.k.z.M.p.v .                                         ",
"                                    m r.g.L.P.I.o.o.W t.C.1.g.U.Y.T.j.J.R.3 k.u.9.9.E.W.s.                                      ",
"                                    / c.Q.N.S.!.~.I.2.U.l l P.L.) ^.J.R.R.A k./.9.S E.r O                                       ",
"                                    D.g.$.Q.X.L Z (.x.Z I.^.j.).Q.^._.R.R.R.l./.x ..  r                                         ",
"                                    B.j 2.5.P.j.I.v.P.P.S.`.'.Q R.R.].R.[.{.}.|.../                                             ",
"                                    !.F. Xh..X) j.'.R.'.J.^.K.5.y.R.R.[.[.XXH.oXOX                                              ",
"                                    / ).;.'.j S.Q ;.+XQ m.m.@X#X+XR.[.OXR.R.$XR.R.                                              ",
"                                     X%X{._.'.'.@XQ Q K.oXK.@X[.R.OXy.&X*X#X&XOX                                                ",
"                                    !.{.oXXX@XA XXR.%XOX@XQ =XR._.-X;X:X-X{.R.                                                  ",
"                                        >X;.G.XXOXOXXXQ _.&XR._.*X,X&X:X].{.                                                    ",
"                                            _.OX+X$X&X<X}.oX].1X1X{.]._.2X                                                      ",
"                                              *X<X}.%XH.{.-X:X:X*X].OX                                                          ",
"                                                                                                                                ",
"                                                                                                                                ",
"                                                                                                                                ",
"                                                                                                                                ",
"                                                                                                                                ",
"                                                                                                                                ",
"                                                                                                                                ",
"                                                                                                                                ",
"                                                                                                                                ",
"                                                                                                                                ",
"                                                                                                                                ",
"                                                                                                                                ",
"                                                                                                                                ",
"                                                                                                                                ",
"                                                                                                                                ",
"                                                                                                                                ",
"                                                                                                                                ",
"                                                                                                                                "
};
