/* XPM */
static char *_14c5191914d472cb3afc19bdd553ca4ywusaBcP2rV2UlDz[] = {
/* columns rows colors chars-per-pixel */
"64 64 224 2 ",
"   c None",
".  c #76A714",
"X  c #69960D",
"o  c #B57329",
"O  c #779918",
"+  c #66990E",
"@  c #7DB418",
"#  c #84B737",
"$  c #416A25",
"%  c #3D6626",
"&  c #FB271B",
"*  c #FD0403",
"=  c #FE0C0B",
"-  c #FD0A06",
";  c #EA341F",
":  c #719628",
">  c #679417",
",  c #77A722",
"<  c #7CB22F",
"1  c #4A792B",
"2  c #3D7125",
"3  c #FE1414",
"4  c #FC1B16",
"5  c #EB130A",
"6  c #E82719",
"7  c #B63520",
"8  c #506421",
"9  c #45751D",
"0  c #6B9728",
"q  c #69A225",
"w  c #64942B",
"e  c #FF2D24",
"r  c #F30B05",
"t  c #C13707",
"y  c #7E5013",
"u  c #486B1D",
"i  c #78A535",
"p  c #79B636",
"a  c #669935",
"s  c #F6352B",
"d  c #FA433A",
"f  c #F40A08",
"g  c #E35639",
"h  c #A8460B",
"j  c #668B0A",
"k  c #64930B",
"l  c #618C24",
"z  c #9CCE4E",
"x  c #FC2623",
"c  c #FD514C",
"v  c #F95655",
"b  c #F93A35",
"n  c #72720E",
"m  c #5C8A09",
"M  c #6D9B13",
"N  c #8BBB41",
"B  c #F0432B",
"V  c #EA3D34",
"C  c #F05140",
"Z  c #F22E2C",
"A  c #C41C14",
"S  c #95380B",
"D  c #6F760B",
"F  c #84CF43",
"G  c #F9100C",
"H  c #FA3633",
"J  c #FD5452",
"K  c #EB1C1B",
"L  c #E67859",
"P  c #F37A6B",
"I  c #FD615D",
"U  c #D30402",
"Y  c #AD140A",
"T  c #88500C",
"R  c #6B9B0E",
"E  c #81B22E",
"W  c #5F891D",
"Q  c #9EE155",
"!  c #7CCB3E",
"~  c #538C27",
"^  c #FD1C1B",
"/  c #FD6D6D",
"(  c #FE7C7A",
")  c #FF9189",
"_  c #FF8D8B",
"`  c #FD8383",
"'  c #EE6159",
"]  c #FF4642",
"[  c #E20403",
"{  c #C20403",
"}  c #AB0504",
"|  c #6BA835",
" . c #F12821",
".. c #FA4C49",
"X. c #E54E37",
"o. c #FE7876",
"O. c #F7534E",
"+. c #FD7573",
"@. c #FF2E2A",
"#. c #EA0402",
"$. c #D33C27",
"%. c #DC0503",
"&. c #8E3B0F",
"*. c #385D19",
"=. c #EC342C",
"-. c #F56A65",
";. c #E40C09",
":. c #CC341B",
">. c #94511A",
",. c #598625",
"<. c #628D36",
"1. c #3E631A",
"2. c #FE6363",
"3. c #FE6B67",
"4. c #EC2C2C",
"5. c #D6261B",
"6. c #F25951",
"7. c #AF4214",
"8. c #709D31",
"9. c #598837",
"0. c #E53526",
"q. c #E54E3C",
"w. c #EC3535",
"e. c #D92B28",
"r. c #FB9996",
"t. c #FC8F91",
"y. c #FFA9AA",
"u. c #FFB7B8",
"i. c #FFA6AA",
"p. c #B81E15",
"a. c #808B2D",
"s. c #659639",
"d. c #D73324",
"f. c #FFB3B6",
"g. c #FA8A87",
"h. c #F31A1A",
"j. c #B60A06",
"k. c #4D7411",
"l. c #EC5B53",
"z. c #F57371",
"x. c #CD130C",
"c. c #C4482C",
"v. c #768130",
"b. c #4A7632",
"n. c #583616",
"m. c #567807",
"M. c #F3211C",
"N. c #E51513",
"B. c #EA2321",
"V. c #FC5D5C",
"C. c #EB5B45",
"Z. c #E71918",
"A. c #B3120D",
"S. c #6F3112",
"D. c #6F1D0D",
"F. c #840A03",
"G. c #588607",
"H. c #568408",
"J. c #83B91A",
"K. c #E7442C",
"L. c #E65244",
"P. c #DD130E",
"I. c #BB0303",
"U. c #9C0202",
"Y. c #940704",
"T. c #8D1804",
"R. c #F4433E",
"E. c #F53E3C",
"W. c #E00807",
"Q. c #DC0805",
"!. c #A30303",
"~. c #568307",
"^. c #DC0C0B",
"/. c #D60806",
"(. c #E54132",
"). c #EF4B43",
"_. c #CA1C13",
"`. c #D20C09",
"'. c #C80906",
"]. c #BA4528",
"[. c #D3342A",
"{. c #BB0C0A",
"}. c #AD0B09",
"|. c #A90B08",
" X c #7B7110",
".X c #C62919",
"XX c #CC0302",
"oX c #D31009",
"OX c #B30C0A",
"+X c #748D12",
"@X c #E32A25",
"#X c #DB2B1D",
"$X c #CD0C0A",
"%X c #6B4709",
"&X c #C50D0A",
"*X c #DF8260",
"=X c #B51411",
"-X c #CC4C33",
";X c #BC110E",
":X c #9C1C10",
">X c #BB221B",
",X c #CC1B19",
"<X c #D61815",
"1X c #B30404",
"2X c #C52926",
"3X c #C3221C",
"4X c #CB221D",
"5X c #B8261A",
"6X c #BB3323",
"7X c #BB1513",
"8X c #C21514",
"9X c #CC2A26",
"0X c #CC2421",
"qX c #BE1D19",
"wX c #D22B24",
"eX c #C43227",
"rX c #C11C1A",
"tX c #C42522",
"yX c #CA2D2A",
"uX c #C54634",
"iX c #C72A28",
"pX c #BD4730",
"aX c #C13D31",
"sX c #D23532",
/* pixels */
"                                                                                                                                ",
"                                                                                                                                ",
"                                                                                                                                ",
"                                                                                                                                ",
"                                                                                                                                ",
"                                                                                                                                ",
"                                                                                                                                ",
"                                                                                                                                ",
"                                                                                                                                ",
"                                                                                                                                ",
"                                                                                                                                ",
"                                                                                                                                ",
"                                                                  . X X                                                         ",
"                                                                  o O O + @ #       $ %                                         ",
"                                                        & & * = - ; o o : > , <     1 2                                         ",
"                                                    3 = 4 4 ; & * 5 6 6 7 8 9 0 q q w 1                                         ",
"                                                  e & 3 * * * * = * * * r t y u i i p a                                         ",
"                                                  e & 3 * * * * = * * * r t y u i i p a                                         ",
"                                                * - s d = = f g s 5 h h j k X k l l i z                                         ",
"                                            4 4 = x c v b b * r 5 h n n m k k + M M 0 N                                         ",
"                                          4 B B B c V C b b 4 f Z 6 A A S D j k + + M # w           F p                         ",
"                                        = * G G 4 c H b J J K L P I 4 4 U Y T j R R k E l W     Q ! ~                           ",
"                                        = ^ / / ( ) _ ` ( ( c ' ( ] - - [ { } S j j X , # p F F | 9                             ",
"                                        = ^ / / ( ) _ ` ( ( c ' ( ] - - [ { } S j j X , # p F F | 9                             ",
"                                       .V ..X.X.I o.O./ +.+.] d @.- #.#.$.%.U } &.&.> l a ~ 9 9 *.                              ",
"                                    = = x 4 6 6 +.=.g -.( ( @.4 @.- ;.;.:.* %.>.w w w ,.<.1.u u                                 ",
"                                    ^ H 2.3.( ( ( ^ s 2._ _ 4.5.6.] * * * #.7.8.a a a 9.1 ,.,.,.                                ",
"                                0.0...q.I w.e.e.r.t.y.u.i.i.;.g P ] * * U p.a.| s.s.<.1 $ ,.8.8.0                               ",
"                                6 6 O.q.J d.$.$.i.f.g.t.f.f.h.3 J ^ [ [ j.>.i a <.<.9.$ u k.i i i                               ",
"                                6 6 O.q.J d.$.$.i.f.g.t.f.f.h.3 J ^ [ [ j.>.i a <.<.9.$ u k.i i i                               ",
"                              3 = = ] o.( l./ / f.z.x.6 ` ` i.2.e * %.%.c.v.s.9.b.b.% n.m.k.W W ,                               ",
"                            M.M.N.N.v B.` ` V.V.i.v C.r._ _ z.Z.w.4 #.#.A.S.S.S.D.D.F.F.G.H.> > J.                              ",
"                            K.L.q.q.4.5.2.B.;.;.+./ d ` _ _ K P.e.H #.#.I.U.Y.Y.Y.Y.Y.T.G.G.M M .                               ",
"                          & x R.O.O.q.C.E.W.; ; V.J H J 3.3.5 K.q.R.Q.Q.I.} } !.!.!.!.T.~.G.M M . J.                            ",
"                          M.4 ^ V.V.+.V.x M.C.C.V.h.^.^.Z Z Z Z c B././.p.A.} !.!.!.!.T.G.m M M M @                             ",
"                          M.4 ^ V.V.+.V.x M.C.C.V.h.^.^.Z Z Z Z c B././.p.A.} !.!.!.!.T.G.m M M M @                             ",
"                        K.(.N.Q.w.w.).K h.v V.V.G Q._.d.Z.Z.H E. .`.'.'.].[.{.}.|.|.U.T.~.G. X XM .                             ",
"                        H C.P..X/./.{ XX#.#.%.%.%.Z.).z.E.E.P.^.oX'.{.{.I.{.OX7 Y Y U.S.m.m.S S +XR J.                          ",
"                        =.E.@X(././._.#X[ XX_._.x.^.Z Z ^.^.{ .X:.$X{.{.{.OXOXY } } U.%Xm.T .X.X+XX @                           ",
"                    (.(.d.P.w.@X^.^.6. .U &X*X*XR.U XX$X$X$XI.A @X$Xj.j.=XOXOXOX}.}.Y.%XS 5.      X                             ",
"                    L.L.=.5.oXI.`.`.4.^.%.Z o.o.N.XX&X-X.X.XI.&X&Xj.}.}.].j.OX;XA.A.:X>X,X@X      X                             ",
"                    L.L.=.5.oXI.`.`.4.^.%.Z o.o.N.XX&X-X.X.XI.&X&Xj.}.}.].j.OX;XA.A.:X>X,X@X      X                             ",
"                    $.$.N.V x.c.&X&X{ I.XXW.U U { { _.0.<X<X1X} OXOX}.}.2XOX;X3XOXOX4X,X5.=.                                    ",
"                    0.0.#X`.<Xe.I.I.-X:.I.1Xc.c.OX1X{.$X1X1X}.c.A.OXOXOXOX;X;X5XA A [.6X7X                                      ",
"                    [.[.=.A p.1XI.I.V _.} p.-X-X8X} !.!.|.|.|.9X8XOX;X;X;X7XOXOX0X0XqXOXOX                                      ",
"                    d.d.<XwX3X=X5X5X1X1X|.} j.j.} }.6X}.|.|.|.;XOX7XeXeXA.rXtX9X9X9XrX7X                                        ",
"                        5.4X5X5X7X7X|.A.c.A.|.|.}.}.A.} } } =XOX=X=X=X=X=XyXuXqXiXiXrX=X                                        ",
"                        5.4X5X5X7X7X|.A.c.A.|.|.}.}.A.} } } =XOX=X=X=X=X=XyXuXqXiXiXrX=X                                        ",
"                        #X3X6X5X}.}.|.Y 5XOX=X=XwX7X|.} OXOXpXOX=X>XtXtXiXyX>X3X>X>XOX                                          ",
"                            eXp.}.}.].5X7X7XA A 5X} =XrXqXqXOX=XtXaX>X>XrXyX2X3X=X=X                                            ",
"                                uXuX=X7X8XqX6X6XrX0X4X6X>X>X2XsXsX3XtXtX2X=Xj.                                                  ",
"                                      tX0X4X0X0XwX[.3X>XtXtXyXyXtX2X2X2X7X                                                      ",
"                                                                                                                                ",
"                                                                                                                                ",
"                                                                                                                                ",
"                                                                                                                                ",
"                                                                                                                                ",
"                                                                                                                                ",
"                                                                                                                                ",
"                                                                                                                                ",
"                                                                                                                                ",
"                                                                                                                                ",
"                                                                                                                                ",
"                                                                                                                                "
};
