/* XPM */
static char *enemy__2_1710944108[] = {
/* columns rows colors chars-per-pixel */
"64 64 235 2 ",
"   c None",
".  c #3D3433",
"X  c #69151A",
"o  c #77121C",
"O  c #740E19",
"+  c #502E16",
"@  c #793816",
"#  c #693A16",
"$  c #751624",
"%  c #4E302C",
"&  c #7C343A",
"*  c #732E2D",
"=  c #124C2E",
"-  c #09672B",
";  c #17672A",
":  c #096535",
">  c #176B30",
",  c #0A7939",
"<  c #137837",
"1  c #0C7A2E",
"2  c #336433",
"3  c #764616",
"4  c #715915",
"5  c #736B11",
"6  c #544533",
"7  c #775237",
"8  c #526936",
"9  c #666B29",
"0  c #757334",
"q  c #435B1B",
"w  c #153B5B",
"e  c #783050",
"r  c #4C3760",
"t  c #6D3665",
"y  c #134D51",
"u  c #344A54",
"i  c #31734C",
"p  c #08546A",
"a  c #0B4B75",
"s  c #10556E",
"d  c #2F536A",
"f  c #07627B",
"g  c #166474",
"h  c #32686D",
"j  c #595249",
"k  c #4E514A",
"l  c #765B48",
"z  c #6B4D49",
"x  c #4A684D",
"c  c #7B6853",
"v  c #6E6751",
"b  c #58676C",
"n  c #676F6D",
"m  c #776B67",
"M  c #787676",
"N  c #74746C",
"B  c #4E4074",
"V  c #890F1E",
"C  c #85171C",
"Z  c #960F1E",
"A  c #A9091F",
"S  c #BC2D1C",
"D  c #971526",
"F  c #A70C22",
"G  c #BB0B25",
"H  c #B70923",
"J  c #A51428",
"K  c #B51325",
"L  c #8D2B32",
"P  c #A52B34",
"I  c #C40625",
"U  c #CC0325",
"Y  c #C20925",
"T  c #CA0926",
"R  c #C70528",
"E  c #D40224",
"W  c #DD0024",
"Q  c #D30826",
"!  c #C71620",
"~  c #824817",
"^  c #945315",
"/  c #8F5219",
"(  c #AB5A1C",
")  c #9A7B0D",
"_  c #90700E",
"`  c #B5681A",
"'  c #AA7011",
"]  c #875732",
"[  c #915831",
"{  c #867632",
"}  c #986B30",
"|  c #AD6827",
" . c #AB5523",
".. c #C75719",
"X. c #C46719",
"o. c #D4681B",
"O. c #DA771D",
"+. c #CB741B",
"@. c #E67A1B",
"#. c #E97C1C",
"$. c #E8741B",
"%. c #E16F1B",
"&. c #DB7723",
"*. c #CB762E",
"=. c #B43444",
"-. c #C13549",
";. c #815744",
":. c #8D5356",
">. c #967454",
",. c #926E4F",
"<. c #857972",
"1. c #907C66",
"2. c #C57F4F",
"3. c #028439",
"4. c #048737",
"5. c #00933A",
"6. c #019C3C",
"7. c #039A36",
"8. c #158935",
"9. c #02A437",
"0. c #01A937",
"q. c #00A33A",
"w. c #01A938",
"e. c #249E32",
"r. c #71A61D",
"t. c #5D982A",
"y. c #0A8A43",
"u. c #039744",
"i. c #118457",
"p. c #038072",
"a. c #47885E",
"s. c #739347",
"d. c #558B68",
"f. c #7D817F",
"g. c #67A968",
"h. c #868916",
"j. c #979012",
"k. c #AA960C",
"l. c #BA940B",
"z. c #A98715",
"x. c #A8880E",
"c. c #928528",
"v. c #97A42E",
"b. c #A9AE2F",
"n. c #AC9A18",
"m. c #CE9D0D",
"M. c #EB861E",
"N. c #EC881F",
"B. c #E6841E",
"V. c #C6A808",
"C. c #D4A607",
"Z. c #CBB508",
"A. c #D7B709",
"S. c #CCB415",
"D. c #EDAE03",
"F. c #E9BC04",
"G. c #F3BD01",
"H. c #F2B702",
"J. c #ED8820",
"K. c #D4B720",
"L. c #DDC407",
"P. c #CDC214",
"I. c #E9C704",
"U. c #F4C301",
"Y. c #F4CC01",
"T. c #F4D401",
"R. c #F7DB01",
"E. c #F8DB01",
"W. c #EFD302",
"Q. c #C1C526",
"!. c #9E805E",
"~. c #8EA843",
"^. c #8A8175",
"/. c #9B8772",
"(. c #A78766",
"). c #BA926B",
"_. c #B1926D",
"`. c #BC8351",
"'. c #C59973",
"]. c #D7A77E",
"[. c #CDA174",
"{. c #115488",
"}. c #055D97",
"|. c #19548E",
" X c #086C87",
".X c #067999",
"XX c #107692",
"oX c #0466AA",
"OX c #0564A6",
"+X c #006EB6",
"@X c #006FB8",
"#X c #037FA4",
"$X c #34729B",
"%X c #687B85",
"&X c #5F7D8B",
"*X c #0482A5",
"=X c #0585AA",
"-X c #038CB3",
";X c #028CB8",
":X c #0194BE",
">X c #1095AF",
",X c #758A94",
"<X c #5F9D9A",
"1X c #0197C1",
"2X c #0199C5",
"3X c #019ECA",
"4X c #139CC0",
"5X c #01A1CD",
"6X c #0BA0CB",
"7X c #00A6D3",
"8X c #32A3C4",
"9X c #858785",
"0X c #908D8B",
"qX c #8E918F",
"wX c #999898",
"eX c #949593",
"rX c #96928E",
"tX c #909EA2",
"yX c #D7A882",
"uX c #DDB489",
"iX c #F2BC86",
"pX c #E9BA91",
"aX c #F6BC95",
"sX c #F9BE96",
"dX c #EBB48E",
"fX c #F9C59A",
"gX c #FACC9E",
"hX c #F6C79A",
"jX c #EAC094",
"kX c #FBCFA0",
"lX c #FAD0A1",
"zX c #AAC4D4",
"xX c #B2D5EA",
"cX c #C2DFF0",
"vX c #C5E3F5",
/* pixels */
"                                                                                                                                ",
"                                                                                                                                ",
"                                                                                                                                ",
"                                            wX0X^.9X      eX^.] ;.                                                              ",
"                                        } &.J.N.J.J.M.M.M.#.@.@.c                                                               ",
"                                  k   +.J.N.J.J.J.J.N.N.M.M.J.J.l 6                                                             ",
"                              j 7 ( &.J.J.J.N.J.J.J.N.B.M.J.J. .O.7                                                             ",
"                              j ~ $.J.J.J.J.N.N.N.N.N.| ~ o.@.3 &.wX                                                            ",
"                                X.N.N.N.N.N.N.N.B./ $.*.[.*.o.z eX                                                              ",
"                                $.#.N.N.N.N.N.M.J.`...2.kX>.c !.                                                                ",
"                              9X@.M.N.J.N.J.` M.&.yX/.gXkXkXgXgX                                                                ",
"                              0X$.N.N.J.N.` O.#.l jXuXlXkXkXkXlXm                                                               ",
"                                @.M.N.J.J.^ 3 ;.fXkXgXgXgXkX).gX_.                                                              ",
"                                | M.N.J.` +.#.yXfXfXpXuXlXgXlXgXdX                                                              ",
"                                ^.J.&./ ` #.] pXaXsXfXfX]._.dXfXsX                                                              ",
"                                  +.J.( # + _.aXaXaXfXfXfXgXfXsXpX                                                              ",
"                                  /.J.J.J.[ yXsXsXsXsXdXpXhXgXfX].} j                                                           ",
"                                    | J.M.B.^ aXsXsXfX'.>.(.jXfX,.] wX                                                          ",
"                                    _.#.B.M.@.,.fXfXfXfXgXlXlXhX` o.                                                            ",
"                                    ,.$.$.$.@.%.7 hXkXgXgXlXgXm   j                                                             ",
"                                    [ ` X.o.] + % jXfXgXhXuX<.                                                                  ",
"                                         ./ n zX;.aXiX[.wXxXtXN n                                                               ",
"                                        ,XzXxXvXcX%Xv ,XzXxXcX,XqX                                                              ",
"                                        n d ,XcXvXvX<Xf ,X,Xh 5X6XwX                                                            ",
"                                        XX#X;X#Xs g ;X2X5X5X5X5X3X=X                                                            ",
"                                        $X-X1X3X:X5X3X3X7X7X7X7XXX>Xn                                                           ",
"                                        XX2X5X5Xf 7X7X7X7X7X7X7Xp 5X8XwX:.L G R J l 0X                                          ",
"                                        *X5X7X7Xp 7X7X7X7X7X7Xf 9 #Xd G W W W W W W T :.                                        ",
"                                    { s.-X5X7X7Xp 7X7X5X*X8 Z.Z.y d Y E W W W W W W W E                                         ",
"                                  l.I.~.-X5X7X7X X.X*Xg 9 4 g  X=XX Y R R E W W W W W U *                                       ",
"                                l.U.S.8 *X5X7X7X7X7X7X3X:Xh u *X3Xy X Z H U E E E A C H Z l eX                                  ",
"                              0 U.F.n.j. X2X5X7X7X7X3X2X,X].lXlXb $XV V H G G I W W W W L z > w.k                               ",
"                              F.Y.I.j.s. X#X3X5X2X3X1X.Xv ).1.,.l 1 6.3.* E E W W W W W P 2 5.8.                                ",
"                            M F.W.L.Z.h =X=Xp p f {.y : u.y.(.l 6 1 q., * W W W W W W Q 7 u 9X                                  ",
"                            { F.W.x.b. X1X3X2X:X7X1X*Xi.q.y.- , - q 4 C I E W W W W W H                                         ",
"                            n.G.I._ b.;X3X5X7X7X7X7X5X-X.X#X=Xs H.G.I.X.G U W W W W W =.                                        ",
"                            A.T.W.x.b.1X7X7X7X7X7X7X7X5X3X1X=Xz.Y.Y.Z.3 D U E E W W W U                                         ",
"                            E.E.W.5 x 3X7X7X7X7X7X7X7X7X3X1Xf I.R.I.j.F...T I U Q W K *                                         ",
"                          { F.E.E.Y.b.7X7X7X7X7X7X7X7X7X:X-X9 I.R.W.A.m._ ~ V Z V @ V.A.                                        ",
"                          A.W.E.E.T.~.5X7X7X7X7X7X7X7X=X X.Xb.R.T.l.C.l.H.G.U.E.Y.z.3 $ D L                                     ",
"                          R.R.E.E.I.c.5X7X7X7X7X7X7X3X1X#Xs S.R.W._ C.C.U.T.E.x.A W W W W W Q <.                                ",
"                        1.K.R.R.E.A.h 7X7X7X7X7X7X7X7X7X#Xv.T.E.W.h.) U.T.E.k.T W W W W W W W W m                               ",
"                        c K.R.R.E.P. X7X7X7X7X7X7X7X7X7Xg.Y.E.E.E.T.Y.T.R.R.S W W W W W U H U W W                               ",
"                        0 S.R.R.E.Q.2X7X7X7X7X7X7X7X7X#Xv.E.E.E.E.E.E.E.R.k.! W W W W A d @XoXJ E &                             ",
"                        c.L.E.E.W.b.7X7X7X7X7X7X7X7X5Xg.I.R.R.R.E.E.R.R.E.^ Y W W W W L +X@X@Xw W K                             ",
"                        c.A.Y.T.I.9 7X7X7X7X7X7X7X7X=Xr.R.R.R.R.E.E.R.R.E.^ Y W W W E t @X@X@XOXQ Q                             ",
"                        c m.A.H.I.0 7X7X7X7X7X7X7X5X<XL.R.R.E.R.E.E.E.E.E.^ Y W W W E t @X@X@XOXW W                             ",
"                        a.6.w.w.1 c.-X7X7X7X7X7X5X=Xr.R.R.R.E.E.E.E.E.R.R.^ H E W W W t @X@X@XOXW W                             ",
"                        q.w.w.w.w.8.x >X5X7X7X7X6X9 E.E.R.R.R.E.R.R.R.R.T.) K U E W E L oX+X+Xw W Q                             ",
"                      8.w.w.w.w.w.9.; 6 h .X*Xs j.E.T.Y.h.; 8.- 5 R.R.R.Y.D.S I R E W H r oXa I W J                             ",
"                      7.w.- > 9.0.w.2 L ).(.z.U.Y.Y.I.r.9.0.0.0.w.e.Z.R.T.G.~ H R R U E U G E W Q M                             ",
"                      6.7..Xp 9.w.7.6 R Y H ' G.U.U.k.1 0.0.0.0.0.0.t.T.Y.U.C.H R R I I U E E E z                               ",
"                      6.w.y , 9.u.= $ W E L   ^.{ l.j.w.w.w.w.0.0.0.8.h.T.U.D.m.$ Y G Y I I A O wX                              ",
"                      8.q.9.9.6.= |.r J % u         a.w.4.- 7.w.0.0.0.r.G.H.D.@ G J o X X O A Y Y                               ",
"                      i 5.5.5.4.a }.OX}.oX{.        x w.p.}.q.w.w.9.9.t.C.D.x.K I G G Y Y U U C W T                             ",
"                        < 3.3., }.}.+XOXt H &       d.w.4.= 7.w.w.q.6.u.    M G I Y R U U E W W o W T                           ",
"                        n i 3.y.= a @X@Xr F %         q.9.9.w.q.9.q.5.y.    L K I U E E W W W W T Q T D                         ",
"                                  d a @X+X+X@X&X      4.5.5.6.5.5.u.i.b     J R U E W W W W W W E C W =.                        ",
"                                    |.OX+X@X@X9X      d.3.3.4.3.3., i       K R U W W W W W W W W W U W                         ",
"                                    b a OXoX|.          > , , 3., x         K T E W W W W W W W W I $ L                         ",
"                                      $X|.y                 eX              M L U E W Q E E E W W W -.wX                        ",
"                                                                                  N e J I E E E Q P m                           ",
"                                                                                                                                ",
"                                                                                                                                "
};
