/* XPM */
static char *_298fc4e9ace4c4bac9c489a5706ac57dmZ34RT10zvawciz[] = {
/* columns rows colors chars-per-pixel */
"64 64 152 2 ",
"   c None",
".  c #361901",
"X  c #3B1C01",
"o  c #462502",
"O  c #492602",
"+  c #452E04",
"@  c #4C2A03",
"#  c #522E04",
"$  c #433406",
"%  c #4C3205",
"&  c #443B07",
"*  c #4B3C07",
"=  c #453F09",
"-  c #553304",
";  c #5A3505",
":  c #543B06",
">  c #5E3906",
",  c #623D06",
"<  c #3D4409",
"1  c #3C4A0A",
"2  c #33570D",
"3  c #315E0F",
"4  c #2D620F",
"5  c #32610F",
"6  c #2D6610",
"7  c #2D6911",
"8  c #336511",
"9  c #3E6613",
"0  c #316D13",
"q  c #3B6D13",
"w  c #357315",
"e  c #397516",
"r  c #3B7A17",
"t  c #3C7C19",
"y  c #4A4308",
"u  c #434F0B",
"i  c #4C4C0B",
"p  c #51460A",
"a  c #5E4308",
"s  c #5C4809",
"d  c #40570D",
"f  c #545F0F",
"g  c #405F11",
"h  c #664107",
"j  c #6A4407",
"k  c #6D4708",
"l  c #624A09",
"z  c #6F4908",
"x  c #734C09",
"c  c #795109",
"v  c #426212",
"b  c #486213",
"n  c #426E15",
"m  c #496813",
"M  c #536112",
"N  c #437E1A",
"B  c #3F801A",
"V  c #458415",
"C  c #488712",
"Z  c #4B8C15",
"A  c #43841C",
"S  c #478A1E",
"D  c #4A8D1D",
"F  c #4E911B",
"G  c #549616",
"H  c #589614",
"J  c #579916",
"K  c #5B9D14",
"L  c #529519",
"P  c #5B9C1A",
"I  c #5FA013",
"U  c #66A70F",
"Y  c #61A211",
"T  c #63A410",
"R  c #63A510",
"E  c #62A411",
"W  c #63A411",
"Q  c #64A510",
"!  c #64A511",
"~  c #64A610",
"^  c #65A610",
"/  c #60A117",
"(  c #66A715",
")  c #63A411",
"_  c #67A810",
"`  c #67A811",
"'  c #68A811",
"]  c #68A911",
"[  c #68A912",
"{  c #69A912",
"}  c #69AA12",
"|  c #6AAA12",
" . c #6AAA13",
".. c #6AAB13",
"X. c #6BAB13",
"o. c #6AAA14",
"O. c #6BAB14",
"+. c #6CAC14",
"@. c #6CAC15",
"#. c #6DAD15",
"$. c #6DAD16",
"%. c #6EAD16",
"&. c #6EAD17",
"*. c #6EAE16",
"=. c #6EAE17",
"-. c #6FAE17",
";. c #6AAA13",
":. c #65A51A",
">. c #66A618",
",. c #6BAA1B",
"<. c #6DAC1B",
"1. c #6AAA19",
"2. c #70AF18",
"3. c #70AF18",
"4. c #71B019",
"5. c #72B01A",
"6. c #72B11B",
"7. c #73B11B",
"8. c #73B21A",
"9. c #73B21B",
"0. c #74B21C",
"q. c #74B31C",
"w. c #74B31D",
"e. c #75B31D",
"r. c #76B41E",
"t. c #77B51F",
"y. c #74B31C",
"u. c #78B61F",
"i. c #64A321",
"p. c #6FAD22",
"a. c #79B620",
"s. c #79B621",
"d. c #7AB822",
"f. c #7BB822",
"g. c #7CB922",
"h. c #7CB923",
"j. c #7DBA24",
"k. c #7EBB25",
"l. c #7FBB27",
"z. c #7FBC26",
"x. c #7DB923",
"c. c #80BC27",
"v. c #80BC27",
"b. c #81BE28",
"n. c #83BF29",
"m. c #83BE29",
"M. c #84C02A",
"N. c #85C02B",
"B. c #86C12C",
"V. c #87C22D",
"C. c #87C22D",
"Z. c #88C32E",
/* pixels */
"                                                                                                                                ",
"                                                                                                                                ",
"                                                        S S S S S S                                                             ",
"                                              S S S D D E K J E E S                                                             ",
"                                              S D J U U U U U h.%.G D S e 7                                                     ",
"                                  J ..o.L L S G U U U U U U U _ U U U D A A r w 7                                               ",
"                                D U ..%.Q U D J T T U U U ....U ..U U E S S S S 0                                               ",
"                                A F V V L J D S F E U U U ....w.n.U U U S t A A e                                               ",
"                              S S A S S w S B S S F U U Q U U ..z.E Q K r S F L S                                               ",
"                              D D S S S F F D S S S S S S I K K K S A t D Q %.6.E S                                             ",
"                          S G E ,.P F G U U K J D G G D S S A A A S A G J U n.s.U L S S                                         ",
"                          S U U N.6.E U U U U _ I U U E S S A J E K J U U U %._ s.T S S S                                       ",
"                          L U U .._ U U U U U V.U U w.w.K A S U U U U U U U U U %.U I S                                         ",
"                      D G E U U U U U ..o.U U ..U _ Z.Z.Q S S Q U U U U U U U U U U T S                                         ",
"                    S J U U U U U U U k.V._ U U U U d.d.T S S K U U U U U U U U U U K S S                                       ",
"                  S S K U U U U U U I <.6.K J G U U U U L S S F L L U E L U U U U U J S S                                       ",
"                    J Q U U U T D D D D D D S S D G L D S S S S S S D D S F Q U D D S S S                                       ",
"                    D Q U U Q L r S D S D D L ..%.Q D L D D D S S S S r r A S S S S S S S S S S S S J L   J / S                 ",
"                    r I U U F A S J T K _ T U d.k...U U T ..U S S S w D L S S S S t t A r S A S S L U U E 6.V.J F               ",
"                  S S T U L S t S U U U U U U U U U U U U ..T A A A Z E d.F B S S 7 t L i.J Z r A F K U U %.6.U E S S           ",
"                    S D F S t S K U U U U U U U U U h.k.U U L D D K Q U %.( D A A A J k.N.U K D K S D U U U U %.U E S 7 7       ",
"                    S S S S A Q U U U U U U c...Q c.V.V.Q S S U U U Q U U V.E S w A U ..U U N._ U D S S U U _ ....G S S S 7     ",
"                      S S S S E U U U U K I p.I A I :.K A A S K I K S K J K S e r A L E U U 6.U U U F S T T w.6.I F S S S w     ",
"                              F J J J J F S r M 6 e e v 0 0 e A t 0 e t n g w r S S S K U U U U U U L S L L J J S A S S S w     ",
"                                S J I I E A 3 y 3 7 6 : 3 A 8 p 7 7 7 7 $ 3 7 w S S A E U z.z.U U U S S S S S A A r S S S A     ",
"                                S K U L S 0 @ 3 < t A & * r r $ 1   7   o 7 7   w A e L U ....Q K F S S S S A E U F U U J S     ",
"                      D F   F     S S w 7 7 3 - - 0 e 7 ; 7 7 6 ;             S S A 6 N A G F S S D S F F D F U U U U U F       ",
"                    S E w.K Q G       r 7     @ , 7 7   @       @     o     7 r n w 7 1 4 S S S D K J %.r.K U U U ..U I J S     ",
"              D K E K U c.U %.w.K S S S         - #       ;       ; o       7 7 & 7 y 9 7 A S S K U U ..2.U U U U z.r.J S       ",
"              L U U _ n...U N.V.U S t A S         ;       ;       ; o         7 - : 8 S 7 A < S Q U U U U U U %.w.o.6.S S       ",
"        D G G Q U U U %.U U Q o.K Z ../ D   D     -       #       , o           ; = 7 t 7 b + A S E E U U _ U J F S S           ",
"      t Q U U U U U U U E K L Z L J r.w.:.U U S     ;     @       ,             ; 4 7 7 d y q w t S S K J .._ L S               ",
"        F I U U U U U U G D S t U U .._ %.U U J S   ; -     #   O ;             @     i d 5 S w 0 S S S S L L S                 ",
"      A S D G D K J L K S S S S J ..c.U U U E A r     ,     >   @ @           @ @ ; -     7 0   7 0 t A S                       ",
"      S S D G D C Q / D D D S D S T T G E J w r 7     > -   >   ; O           ; , -               7                             ",
"        L U U J G 6.c._ 2.Q K Q F S S w 9 w w w 7     @ ,   > # ; O           , ;                                               ",
"    S K +.r.I t G %.d...w.U U U E S S 6 $ 0 A 7         > , , h > O       @ ;         S S t S B S t J P S                       ",
"    S F Q o.D e U U ..U U U U J V w = < 1 *             > x , h ;         -           S S A V A I Z c.c.L K S                   ",
"      e A A S S e Q U U U U U U A 7 A 8 * x #           , c , ; - O     ; o       t S S S U U U n...n.k.U U J S S               ",
"          7 t S D _ 6.....Q K K A 2 e r     , -         , c h @ - o   > @         A S ,.S T U U ..U U U U U ..( S S             ",
"            7 S F ..V...J I A B q 1 1 u       - ;       , z h @ @ O k >           B J w.P J K K U U U U U o...%.S A             ",
"                S J ,.J S D     7 0       ; j ; h > j   > h h - o - -     7 A A 0 S J U w.E D D J U E U w.h.J D w               ",
"                S S S                           > , j > h , h ; X >       7 B 7 3 S D U Q F S S K A S T _ E S S                 ",
"                                                  o ; x , h , - X ;         7 5 $ 7 S D K F U U w.K H C S S S A                 ",
"                      U U U                         O ; k , ; @ X ;           * 0 0 t A S E U U %._ u...D S S B                 ",
"                    U U U U U U                         , , - O X -         ,   0 0 w w S L U Q U U U K D A t                   ",
"                    U U U U                             - , ; @ o #       ; - @ % : a % S S D D L J D D S r                     ",
"                                                        O , , > . @     @ ; , # @     7 7 7   S S                               ",
"                                                          h h x X o     , O                                                     ",
"                                                          > , x O . > -                                                         ",
"                                                          # , x O . h                         U U U U                           ",
"                                                          @ > x O o h                         U U U U                           ",
"                                                          O , x O # ,                           U U                             ",
"                                                            , x @ > ,                                                           ",
"                                                            , z - h ,                                                           ",
"                                                            , , j h ,                                                           ",
"                                                            , j x j >                                                           ",
"                                                            , x x k >                                                           ",
"                                                            h h c k > O                                                         ",
"                                                            k h c h , @                                                         ",
"                                                          3 l 8 x i s *     e                                                   ",
"                                                      7   e q w f e m 3 e r w                                                   ",
"                                                        w w w e w w w 0 0 0                                                     ",
"                                                                                                                                "
};
