/* XPM */
static char *result[] = {
/* columns rows colors chars-per-pixel */
"64 64 227 2 ",
"   c #54361F",
".  c #513F24",
"X  c #7B2A27",
"o  c #713230",
"O  c #2D5926",
"+  c #346334",
"@  c #4B532B",
"#  c #74433F",
"$  c #3C3947",
"%  c #333E54",
"&  c #443844",
"*  c #553341",
"=  c #36465A",
"-  c #2A4D5D",
";  c #1D587E",
":  c #2A5C6A",
">  c #365362",
",  c #2A5579",
"<  c #294E70",
"1  c #386377",
"2  c #33646F",
"3  c #5B4441",
"4  c #705A47",
"5  c #55654B",
"6  c #6A6B43",
"7  c #7B6A5D",
"8  c #435A68",
"9  c #455D72",
"0  c #515D62",
"q  c #55636A",
"w  c #4C697C",
"e  c #576B7A",
"r  c #416869",
"t  c #617060",
"y  c #65737D",
"u  c #6E6D6B",
"i  c #8A3D1F",
"p  c #A9271F",
"a  c #8B2924",
"s  c #9B2D28",
"d  c #992A25",
"f  c #8C332A",
"g  c #983628",
"h  c #8E3432",
"j  c #A72E2A",
"k  c #B52E29",
"l  c #A8342A",
"z  c #B53430",
"x  c #C62E2A",
"c  c #C43124",
"v  c #C1352F",
"b  c #D4312B",
"n  c #DB332C",
"m  c #D03126",
"M  c #C93530",
"N  c #E4322D",
"B  c #E8302D",
"V  c #9A492D",
"C  c #945035",
"Z  c #A34D27",
"A  c #9A6827",
"S  c #9C7529",
"D  c #9B7B34",
"F  c #8C6637",
"G  c #A87A29",
"H  c #A67B38",
"J  c #B1742B",
"K  c #8B4A47",
"L  c #9B534F",
"P  c #866B4C",
"I  c #8A6751",
"U  c #89715D",
"Y  c #95735B",
"T  c #95795B",
"R  c #AF7251",
"E  c #877869",
"W  c #917D6B",
"Q  c #9E7D69",
"!  c #90766F",
"~  c #A07E67",
"^  c #2B813C",
"/  c #B78626",
"(  c #B89226",
")  c #A98639",
"_  c #B88436",
"`  c #B99736",
"'  c #AF8D32",
"]  c #BFA123",
"[  c #C98A2A",
"{  c #C59929",
"}  c #D89C2A",
"|  c #CA8C37",
" . c #D69833",
".. c #CD9D3F",
"X. c #EB9B2C",
"o. c #CAA62A",
"O. c #C8A525",
"+. c #D7A82A",
"@. c #DCB525",
"#. c #C8A639",
"$. c #D9B632",
"%. c #E1A52B",
"&. c #E8A92D",
"*. c #F9A42A",
"=. c #F6AC2C",
"-. c #F9AB2D",
";. c #F6A929",
":. c #E6BA2A",
">. c #FBBC26",
",. c #F5B32B",
"<. c #F9B42A",
"1. c #F5BC2A",
"2. c #FBBB2A",
"3. c #F4B527",
"4. c #E8A532",
"5. c #F3B031",
"6. c #FCCE1E",
"7. c #EAC32A",
"8. c #FDC526",
"9. c #F5CB25",
"0. c #FDCD23",
"q. c #FCC429",
"w. c #FCCA29",
"e. c #F4C826",
"r. c #9E8156",
"t. c #9A874D",
"y. c #B88E46",
"u. c #BB9B43",
"i. c #A78B54",
"p. c #B48759",
"a. c #A8935A",
"s. c #B19C56",
"d. c #A88C4C",
"f. c #BDA847",
"g. c #B0A354",
"h. c #99836B",
"j. c #8C8172",
"k. c #9B8574",
"l. c #978A7E",
"z. c #988576",
"x. c #9F9163",
"c. c #AC8465",
"v. c #A6876B",
"b. c #B5896B",
"n. c #BB8D6B",
"m. c #B38766",
"M. c #BD916E",
"N. c #A78573",
"B. c #A48975",
"V. c #AB8C73",
"C. c #A68C77",
"Z. c #B58D71",
"A. c #BD8E71",
"S. c #A7927B",
"D. c #AB927B",
"F. c #AC9276",
"G. c #B6967A",
"H. c #AF9C69",
"J. c #C58D4C",
"K. c #C5AA41",
"L. c #C3926B",
"P. c #D99B6D",
"I. c #C19472",
"U. c #CB9A74",
"Y. c #CE9D78",
"T. c #D39D77",
"R. c #CA8B63",
"E. c #E39F74",
"W. c #D4A27C",
"Q. c #DCA57C",
"!. c #E5A274",
"~. c #EBAA7D",
"^. c #F4AD7A",
"/. c #F4AB77",
"(. c #F8B27D",
"). c #155D8A",
"_. c #1B5B88",
"`. c #0A5E95",
"'. c #175F92",
"]. c #1A5D94",
"[. c #155F98",
"{. c #0E5C83",
"}. c #245785",
"|. c #186284",
" X c #0C6394",
".X c #07659C",
"XX c #0B649C",
"oX c #146394",
"OX c #136397",
"+X c #0C608B",
"@X c #2B6586",
"#X c #356884",
"$X c #376F8E",
"%X c #0566A2",
"&X c #0168A6",
"*X c #0169A9",
"=X c #0366A8",
"-X c #456B84",
";X c #597586",
":X c #4E7288",
">X c #617283",
",X c #B69A81",
"<X c #BBA086",
"1X c #C5A283",
"2X c #C8A588",
"3X c #D9AB86",
"4X c #DDB28C",
"5X c #DFB087",
"6X c #EAAD85",
"7X c #E2B48D",
"8X c #EAB387",
"9X c #F5B584",
"0X c #F9B482",
"qX c #F9B987",
"wX c #FABB8C",
"eX c #F7B78A",
"rX c #E6B992",
"tX c #EBBB93",
"yX c #F3BC92",
"uX c #FABD93",
"iX c #F7AE85",
"pX c #F5C295",
"aX c #FBC295",
"sX c #F5C399",
"dX c #FAC299",
"fX c #EFC295",
"gX c None",
/* pixels */
"gXgXgXgXgXgXgXgXgXgXgXgXgXgXgXgXgXgXgXgXgXgXgXgXgXgXgXgXgXgXgXgXgXgXgXgXgXgXgXgXgXgXgXgXgXgXgXgXgXgXgXgXgXgXgXgXgXgXgXgXgXgXgXgX",
"gXgXgXgXgXgXgXgXgXgXgXgXgXgXgXgXgXgXgXgXgXgXgXgXgXgXgXgXgXgXgXgXgXgXgXgXgXgXgXgXgXgXgXgXgXgXgXgXgXgXgXgXgXgXgXgXgXgXgXgXgXgXgXgX",
"gXgXgXgXgXgXgXgXgXgXgXgXgXgXgXgXgXgXgXgXgXgXgXgXgXgXgXgXgXgXgXgXgXgXgXgXgXgXgXgXgXgXgXgXj.<X1X1XG.S.E gXgXgXgXgXgXgXgXgXgXgXgXgX",
"gXgXgXgXgXgXgXgXgXgXgXgXgXgXgXgXgXgXgXgXgXgXgXgXgXgXgXgXgXgXgXgXgXgXgXgXgXgXgXgXgXgXD.4XaXaXaXaXaXaXpX2XD.gXgXgXgXgXgXgXgXgXgXgX",
"gXgXgXgXgXgXgXgXgXgXgXgXgXgXgXgXgXgXgXgXgXgXgXgXgXgXgXgXgXgXgXgXgXgXgXgXgXgXgXgXE 4XdXaXaXdXaXaXaXaXaXaXaX7X! gXgXgXgXgXgXgXgXgX",
"gXgXgXgXgXgXgXgXgXgXgXgXgXgXgXgXgXgXgXgXgXgXgXgXgXgXgXgXgXgXgXgXgXgXgXgXgXgXgXz.7XaXaXaXaXaXaXaXaXaXaXaXaXaXrXS.gXgXgXgXgXgXgXgX",
"gXgXgXgXgXgXgXgXgXgXgXgXgXgXgXgXgXgXgXgXgXgXgXgXgXgXgXgXgXgXgXgXgXgXgXgXgXgXgX3XdXaXaXaXaXaXaXaXaXpXpXaXaXaXaXrXj.gXgXgXgXgXgXgX",
"gXgXgXgXgXgXgXgXgXgXgXgXgXgXgXgXgXgXgXgXgXgXgXgXgXgXgXgXgXgXgXgXgXgXgXgXgXgXG.uXuXaXaXaXaXaXaXaXaXaXpXaXaXaXaXaX2XgXgXgXgXgXgXgX",
"gXgXgXgXgXgXgXgXgXgXgXgXgXgXgXgXgXgXgXgXgXgXgXgXgXgXgXgXgXgXgXgXgXgXgXgXgXgX3XwXaXaXaXaXaXuXdXaXaX8XM.Q.aXaXaXpXrX,XgXgXgXgXgXgX",
"gXgXgXgXgXgXgXgXgXgXgXgXgXgXgXgXgXgXgXgXgXgXgXgXgXgXgXgXgXgXgXgXgXgXgXgXgXW 9XuXaXaXaXaXaXaXaXaXaXpXaXpXpXpXpXU.fX! gXgXgXgXgXgX",
"gXgXgXgXgXgXgXgXgXgXgXgXgXgXgXgXgXgXgXgXgXgXgXgXgXgXgXgXgXgXgXgXgXgXgXgXgXN.qXwX8XY.uXaXaXaXaXaXaXpXaXaXaXaXaXpX1XD.gXgXgXgXgXgX",
"gXgXgXgXgXgXgXgXgXgXgXgXgXgXgXgXgXgXgXgXgXgXgXgXgXgXgXgXgXgXgXgXgXgXgXgXgXb.0XwXc.rXyXaXaXaXaXaXfXfXpXaXaXaXaXaXsX,XgXgXgXgXgXgX",
"gXgXgXgXgXgXgXgXgXgXgXgXgXgXgXgXgXgXgXgXgXgXgXgXgXgXgXgXgXgXgXgXgXgXgXgXgXv.(.wXM.3XaXaXaXaXdXdX5X7 W.pXaXaXdXaXsXG.gXgXgXgXgXgX",
"gXgXgXgXgXgXgXgXgXgXgXgXgXgXgXgXgXgXgXgXgXgXgXgXgXgXgXgXgXgXgXgXgXgXgXgXgXj.^.eXpXaXaXaXaXaXuXuXtXm.fXaXaXaXk.G.sXS.gXgXgXgXgXgX",
"gXgXgXgXgXgXgXgXgXgXgXgXgXgXgXgXgXgXgXgXgXgXgXgXgXgXgXgXgXgXgXgXgXgXgXgXgXgXQ.qXuXaXaXaXaXuXuXuXaXaXfXW.7XyXU 2XpXj.gXgXgXgXgXgX",
"gXgXgXgXgXgXgXgXgXgXgXgXgXgXgXgXgXgXgXgXgXgXgXgXgXgXgXgXgXgXgXgXgXgXgXgXgXgXN.9XqXaXaXaXaXuXuXuXuXaXpX5XW.dXuXaX4XgXgXgXgXgXgXgX",
"gXgXgXgXgXgXgXgXgXgXgXgXgXgXgXgXgXgXgXgXgXgXgXgXgXgXgXgXgXgXgXgXgXgXgXgXgXgXgXY.qXwXaXaXaXuXuXyXyXpXaXsXdXuXuXyX,XgXgXgXgXgXgXgX",
"gXgXgXgXgXgXgXgXgXgXgXgXgXgXgXgXgXgXgXgXgXgXgXgXgXgXgXgXgXgXgXf.:.$.a.gXgXgXgXh.!.0XqXaXuXuXuXuXU.W.dXsXuXuXuX6XgXgXgXgXgXgXgXgX",
"gXgXgXgXgXgXgXgXgXgXgXgXgXgXgXgXgXgXgXgXgXgXgXgXgXgXgXgXD.P $.6.6.0.0.#.x.gXgXgXh.^.0XeXuXuXaXaXyXI.m.Q.uXwX8XB.gXgXgXgXgXgXgXgX",
"gXgXgXgXgXgXgXgXgXgXgXgXgXgXgXgXgXgXgXgXgXgXgXgXgXgXS.4X7X` 6.6.0.0.0.0.e.#.g.gXgXI P.(.0XqXwXwXuXuXwXwXuX6XN.gXgXgXgXgXgXgXgXgX",
"gXgXgXgXgXgXgXgXgXgXgXgXgXgXgXgXgXgXgXgXgXgXgXgXgXG.sXaXp.9.0.0.0.0.0.6.w.6.e.d.4 X R (.(.(.(.9X9XqX0X(.T.Q gXgXgXgXV.c.,XgXgXgX",
"gXgXgXgXgXgXgXgXgXgXgXgXgXgXgXgXgXgXgXgXgXgXgXz.3XaXaXaXR 8.0.0.0.0.0.0.6.9.] { ( g j R !.(.R.!.!.P.I.V.gXgXgXgXk.I n.yX! gXgXgX",
"gXgXgXgXgXgXgXgXgXgXgXgXgXgXgXgXgXgXgXgXgXgXz.7XaXsXeX6XS 0.0.0.0.0.0.0.:.( :.w.6.:.A k l R Z.7 gXgXgXgXgXgXgXgXC.8XaXaX7XU gXgX",
"gXgXgXgXgXgXgXgXgXgXgXgXgXgXgXgXgXgXgXgXgXk.7XaXwX9XY.C.D <.2.8.q.w.w.o.+.6.0.0.0.0.e.[ l x V gXgXgXgXgXgXgXgXgXD.aXuXuX9XB.gXgX",
"gXgXgXgXgXgXgXgXgXgXgXgXgXgXgXgXgXgXgXgXW 4XaXeX~.b.gXgXT -.<.3.2.<.} o.0.0.@.0.0.0.w.0.O.Z X j.gXgXgXgXgXgXgXgXG.aXeX6XN.gXgXgX",
"gXgXgXgXgXgXgXgXgXgXgXgXgXgXgXgXgXgX7 4XsXuX~.Z.gXgXgXgXgX)  .X.4.[ @.0.0.0.( @.0.w.0.0.0.0.O.s.gXgXgXgXgXgXC.2XaXeXI.gXgXgXgXgX",
"gXgXgXgXgXgXgXgXgXgXgXgXgXgXgXgXgX! Y Y c.eXb.gXgXgXgXgXgXgXgXgXr.+.w.0.0.6.7./ q.w.0.6.6.0.0.0.$.K.s.gXgXC.7XaXaXQ.gXgXgXgXgXgX",
"gXgXgXgXgXgXgXgXgXgXgXgXgXgXgXgXgXW L.I A.iXZ.gXgXgXgXgXgXgXgXgX#.q.w.0.0.9.6.S 5.2.w.0.0.0.0.0.w.w.:.D N.yXaXdX9Xk.gXgXgXgXgXgX",
"gXgXgXgXgXgXgXgXgXgXgXgXgXgXgXgXgXgX~ Y U G.gXgXgXgXgXgXgXgXgXu.>.w.0.0.0.0.9.@.[ ,.1.w.0.0.0.0.0.+.p.m.aXaXaXwXV.gXgXgXgXgXgXgX",
"gXgXgXgXgXgXgXgXgXgXgXgXgXgXgXgXgXgXgXgXgXgXgXgXgXgXgXgXgXgXi.1.w.0.6.0.0.0.0.9.G -.3.8.0.0.0.0...L.aXaXaXaXwXL.gXgXgXgXgXgXgXgX",
"gXgXgXgXgXgXgXgXgXgXgXgXgXgXgXgXgXgXgXgXgXgXgXgXgXgXgXgXV...3.8.w.0.0.0.0.0.0.6.] [ -.>.0.0.9.{ J.0XaXaXaXqXU.gXgXgXgXgXgXgXgXgX",
"gXgXgXgXgXgXgXgXgXgXgXgXgXgXgXgXgXgXgXgXgXgXgXgXgXgXgXy.&.8.8.0.0.0.0.0.0.0.0.0.0.G *.3.1.q.&.A R !.(.qXqXT.gXgXgXgXgXgXgXgXgXgX",
"gXgXgXgXgXgXgXgXgXgXgXgXgXgXgXgXgXgXgXgXgXgXgXgXgXi.4.2.q.w.0.0.0.0.6.0.0.0.0.0.6./ X.;.=.-.J *.| E V.M.n.gXgXgXgXgXgXgXgXgXgXgX",
"gXgXgXgXgXgXgXgXgXgXgXgXgXgXgXgXgXgXgXgXgXgXgXgXy.&.2.q.8.0.6.0.0.0.0.0.0.0.0.0.6.{ [ ;.*.[ J y.gXgXgXgXgXgXgXgXgXgXgXgXgXgXgXgX",
"gXgXgXgXgXgXgXgXgXgXgXgXgXgXgXgXgXgXgXgXgXgXgX` 5.2.8.0.0.0.0.0.0.0.0.6.0.0.0.6.0.e.G 4.J 4 gXgXgXgXgXgXgXgXgXgXgXgXgXgXgXgXgXgX",
"gXgXgXgXgXgXgXgXgXgXgXgXgXgXgXgXgXgXgXgXgXgXJ.;.>.q.0.0.0.0.0.0.0.0.0.0.0.0.0.0.0.0.@.D gXgXgXgXgXgXgXgXgXgXgXgXgXgXgXgXgXgXgXgX",
"gXgXgXgXgXgXgXgXgXgXgXgXgXgXgXgXgXgXgXgXgX .*.<.q.q.0.0.6.0.0.0.0.0.0.0.0.0.0.0.0.0.6.f.gXgXgXgXgXgXgXgXgXgXgXgXgXgXgXgXgXgXgXgX",
"gXgXgXgXgXgXgXgXgXgXgXgXgXgXgXgXgXgXgXgXgXp.| ;.2.8.0.0.0.0.0.0.0.0.0.0.0.0.0.0.0.0.0.s.gXgXgXgXgXgXgXgXgXgXgXgXgXgXgXgXgXgXgXgX",
"gXgXgXgXgXgXgXgXgX#Xe gXgXgXgXgXgXgXgXgXgX-X= H =.2.8.0.0.0.0.0.0.0.0.0.0.0.0.0.0.0.7.gXgXgXgXgXgXgXgXgXgXgXgXgXgXgXgXgXgXgXgXgX",
"gXgXgXgXgXgXgX;X- o c v L gXgXgXgXgX-X@X|.OXOX_.6 =.<.q.w.0.0.0.0.0.0.0.0.0.0.0.0.0.f.gXgXgXgXgXgXgXgXgXgXgXgXgXgXgXgXgXgXgXgXgX",
"gXgXgXgXgXgX9 $ l b N b V gXgXgXe }.].%XXX%X%X%X X6 +.<.q.w.w.0.0.0.0.0.0.0.0.0.0.:.H.gXgXgXgXgXgXgXgXgXgXgXgXgXgXgXgXgXgXgXgXgX",
"gXgXgXgX1 % o x n N k J ,.#.gXgXw ].`.%X&X&X&X*X%X&X: ' <.2.e.0.0.0.0.0.0.0.0.w.8.#.gXgXgXgXgXgXgXgXgXgXgXgXgXgXgXgXgXgXgXgXgXgX",
"gXgXgX> & j b b g c Z &.>.e.) t.> '..X&X&X&X*X&X&X*X*X+X6 %.<.q.q.q.0.0.8.8.8.8.e.v.gXgXgXgXgXgXgXgXgXgXgXgXgXgXgXgXgXgXgXgXgXgX",
"gXgXq $ k b N j + @ s g %.q.1.) > [..X%X*X*X&X&X*X&X&X&X*X{.5 ) %.1.>.>.1.$.' 6 : ).#XgXgXgXgXgXgXgXgXgXgXgXgXgXgXgXgXgXgXgXgXgX",
"gXgX8 X c N N a @ O j z A 3._ 5Xu )..X&X&X&X=X&X&X&X&X&X&X&X%X X|.2 r 2 2 ; .X&X&X&X&X X@XgXgXgXgXgXgXgXgXgXgXgXgXgXgXgXgXgXgXgX",
"gXgX0 X k N N d 4 t gXgXT | p.wXV._.XX%X&X*X&X&X&X&X&X&X&X&X*X*X`.&X*X*X&X&X&X*X&X&X*X*X&X Xw gXgXgXgXgXgXgXgXgXgXgXgXgXgXgXgXgX",
"gXgXgX3 s x j K gXgXgXgXgXi.F n.~.9 XX&X*X&X*X&X&X&X&X&X&X&XXX, ; XX%X*X&X&X&X&X&X&X*X*X&X*X.X1 gXgXgXgXgXgXgXgXgXgXgXgXgXgXgXgX",
"gXgXgXgXgXgXgXgXgXgXgXgXgXgXgXgXh.u ).&X&X&X=X&X&X*X*X&X%XoX;XgXe _.OX%X&X&X&X&X&X&X&X&X&X%X&X#XgXgXgXgXgXgXgXgXgXgXgXgXgXgXgXgX",
"gXgXgXgXgXgXgXgXgXgXgXgXgXgXgXgXgXgX-XXX&X=X&X&X*X&X&XOX$XgXgXgXgX;X, ].XX%X*X*X&X&X*X&X&X&X X;XgXgXgXgXgXgXgXgXgXgXgXgXgXgXgXgX",
"gXgXgXgXgXgXgXgXgXgXgXgXgXgXgXgXgXgXgX#XXX&X&X&X&XXX$XgXgXgXgXgXgXgX>X}.oX%X&X*X&X&X*X&X&X.X$XgXgXgXgXgXgXgXgXgXgXgXgXgXgXgXgXgX",
"gXgXgXgXgXgXgXgXgXgXgXgXgXgXgXgXgXgXgXgX:X X%XoX-XgXgXgXgXgXgXgXgXgXgXe }.[.XX=X*X&X&X%XXXq l.gXgXgXgXgXgXgXgX! gXgXgXgXgXgXgXgX",
"gXgXgXgXgXgXgXgXgXgXgXgXgXgXgXgXgXgXgXgXgXgX:XgXgXgXgXgXgXgXgXgXgXgXgXgXw }.].%X%X%X%X|.u 8X4XW i.gXgXgXgXgXV b M L gXgXgXgXgXgX",
"gXgXgXgXgXgXgXgXgXgXgXgXgXgXgXgXgXgXgXgXgXgXgXgXgXgXgXgXgXgXgXgXgXgXgXgXgX9 }.}.oX].}.7 ~.wXaXM.o.g.gXgXgXK p N n z > gXgXgXgXgX",
"gXgXgXgXgXgXgXgXgXgXgXgXgXgXgXgXgXgXgXgXgXgXgXgXgXgXgXgXgXgXgXgXgXgXgXgXgXgX9 }., e gXgXN.P.!.y.e.o.g l + . c N n * 1 gXgXgXgXgX",
"gXgXgXgXgXgXgXgXgXgXgXgXgXgXgXgXgXgXgXgXgXgXgXgXgXgXgXgXgXgXgXgXgXgXgXgXgXgXgXgXgXgXgXgXgXF J 1.w.w.A a O @ B n f < gXgXgXgXgXgX",
"gXgXgXgXgXgXgXgXgXgXgXgXgXgXgXgXgXgXgXgXgXgXgXgXgXgXgXgXgXgXgXgXgXgXgXgXgXgXgXgXgXgXgXgXgXd.J. .,.>.J k f g n f = gXgXgXgXgXgXgX",
"gXgXgXgXgXgXgXgXgXgXgXgXgXgXgXgXgXgXgXgXgXgXgXgXgXgXgXgXgXgXgXgXgXgXgXgXgXgXgXgXgXgXgXgXgXgXgXQ  .X.Z n B n d = >XgXgXgXgXgXgXgX",
"gXgXgXgXgXgXgXgXgXgXgXgXgXgXgXgXgXgXgXgXgXgXgXgXgXgXgXgXgXgXgXgXgXgXgXgXgXgXgXgXgXgXgXgXgXgXgXgX7 X k m m s = gXgXgXgXgXgXgXgXgX",
"gXgXgXgXgXgXgXgXgXgXgXgXgXgXgXgXgXgXgXgXgXgXgXgXgXgXgXgXgXgXgXgXgXgXgXgXgXgXgXgXgXgXgXgXgXgXgXgXgXC j k d & >XgXgXgXgXgXgXgXgXgX",
"gXgXgXgXgXgXgXgXgXgXgXgXgXgXgXgXgXgXgXgXgXgXgXgXgXgXgXgXgXgXgXgXgXgXgXgXgXgXgXgXgXgXgXgXgXgXgXgXgXgXK o = :XgXgXgXgXgXgXgXgXgXgX",
"gXgXgXgXgXgXgXgXgXgXgXgXgXgXgXgXgXgXgXgXgXgXgXgXgXgXgXgXgXgXgXgXgXgXgXgXgXgXgXgXgXgXgXgXgXgXgXgXgXgXgXgXgXgXgXgXgXgXgXgXgXgXgXgX",
"gXgXgXgXgXgXgXgXgXgXgXgXgXgXgXgXgXgXgXgXgXgXgXgXgXgXgXgXgXgXgXgXgXgXgXgXgXgXgXgXgXgXgXgXgXgXgXgXgXgXgXgXgXgXgXgXgXgXgXgXgXgXgXgX",
"gXgXgXgXgXgXgXgXgXgXgXgXgXgXgXgXgXgXgXgXgXgXgXgXgXgXgXgXgXgXgXgXgXgXgXgXgXgXgXgXgXgXgXgXgXgXgXgXgXgXgXgXgXgXgXgXgXgXgXgXgXgXgXgX",
"gXgXgXgXgXgXgXgXgXgXgXgXgXgXgXgXgXgXgXgXgXgXgXgXgXgXgXgXgXgXgXgXgXgXgXgXgXgXgXgXgXgXgXgXgXgXgXgXgXgXgXgXgXgXgXgXgXgXgXgXgXgXgXgX"
};
