/* XPM */
static char *result[] = {
/* columns rows colors chars-per-pixel */
"64 64 221 2 ",
"   c #513A34",
".  c #782A27",
"X  c #683537",
"o  c #6F3227",
"O  c #3C4222",
"+  c #2F7034",
"@  c #644326",
"#  c #6F513C",
"$  c #3C3546",
"%  c #323F51",
"&  c #433544",
"*  c #5D3B42",
"=  c #6B3741",
"-  c #374B5A",
";  c #34505B",
":  c #1B577E",
">  c #284964",
",  c #265779",
"<  c #345978",
"1  c #2F5472",
"2  c #3D627C",
"3  c #21647D",
"4  c #485559",
"5  c #6F5953",
"6  c #586348",
"7  c #526253",
"8  c #7C7D4B",
"9  c #75685A",
"0  c #716651",
"q  c #43576A",
"w  c #496766",
"e  c #46677E",
"r  c #596977",
"t  c #54717C",
"y  c #6E706F",
"u  c #65737E",
"i  c #717374",
"p  c #883425",
"a  c #983629",
"s  c #8E322D",
"d  c #AD2D29",
"f  c #A42D27",
"g  c #B32C26",
"h  c #B72E29",
"j  c #A53827",
"k  c #B7322B",
"l  c #B83935",
"z  c #C62E29",
"x  c #C5322B",
"c  c #CB3127",
"v  c #D3322B",
"b  c #DB322C",
"n  c #DF2E2D",
"m  c #E4322C",
"M  c #A45025",
"N  c #9D692B",
"B  c #977231",
"V  c #A77B23",
"C  c #A87938",
"Z  c #B07E31",
"A  c #AF6D28",
"S  c #C37F2D",
"D  c #974C47",
"F  c #83544F",
"G  c #9A5250",
"H  c #8E504F",
"J  c #AE5946",
"K  c #896A55",
"L  c #8A725A",
"P  c #967858",
"I  c #95724E",
"U  c #A47559",
"Y  c #8A7768",
"T  c #947C6E",
"R  c #957A64",
"E  c #89746A",
"W  c #A27E63",
"Q  c #C47C5D",
"!  c #9F823F",
"~  c #B68528",
"^  c #BC9126",
"/  c #A98234",
"(  c #BB8C3D",
")  c #B89836",
"_  c #A78A2C",
"`  c #CC8A2A",
"'  c #C59D2B",
"]  c #C59828",
"[  c #D8932B",
"{  c #C78D38",
"}  c #CA9A34",
"|  c #D19A3C",
" . c #EA9D31",
".. c #CBA429",
"X. c #D6A52B",
"o. c #D6B428",
"O. c #CCA63B",
"+. c #D5A734",
"@. c #D2B438",
"#. c #EAA52B",
"$. c #E4AE2C",
"%. c #F5A42E",
"&. c #F8AA2A",
"*. c #ECB22B",
"=. c #E6BC28",
"-. c #FAB526",
";. c #FBBE25",
":. c #F6B22C",
">. c #FAB52A",
",. c #F4BB29",
"<. c #FABB29",
"1. c #FCCF1D",
"2. c #EBC529",
"3. c #EFC625",
"4. c #FCC526",
"5. c #F4CA25",
"6. c #FDCD23",
"7. c #FCC329",
"8. c #FBC929",
"9. c #F4C628",
"0. c #EFC234",
"q. c #9B855C",
"w. c #A98549",
"e. c #B79848",
"r. c #AC8758",
"t. c #AD9354",
"y. c #B6A053",
"u. c #9E826D",
"i. c #93806E",
"p. c #958475",
"a. c #9C8674",
"s. c #95887B",
"d. c #9B8979",
"f. c #968B70",
"g. c #AD8A6C",
"h. c #B58A6C",
"j. c #B68968",
"k. c #A59463",
"l. c #BD926A",
"z. c #A48673",
"x. c #A58B76",
"c. c #AB8B74",
"v. c #A38C79",
"b. c #A98974",
"n. c #B68D72",
"m. c #A7927B",
"M. c #B39379",
"N. c #BC9C7D",
"B. c #B89477",
"V. c #C39642",
"C. c #C38C40",
"Z. c #C3A342",
"A. c #CB9668",
"S. c #C39575",
"D. c #C59B7A",
"F. c #CF9C78",
"G. c #D29E7C",
"H. c #D49E73",
"J. c #D49569",
"K. c #E19E72",
"L. c #DDA175",
"P. c #DBA57D",
"I. c #D8A57D",
"U. c #CCA07A",
"Y. c #E6A779",
"T. c #F5AD7A",
"R. c #F7B17C",
"E. c #135C89",
"W. c #0B5F92",
"Q. c #1C5C92",
"!. c #175E94",
"~. c #0F5E8A",
"^. c #245682",
"/. c #235B88",
"(. c #19628A",
"). c #0D6394",
"_. c #0C649C",
"`. c #05659A",
"'. c #136293",
"]. c #136199",
"[. c #1A6196",
"{. c #0C618D",
"}. c #266588",
"|. c #346A86",
" X c #0467A3",
".X c #0168A6",
"XX c #0169A9",
"oX c #0566A5",
"OX c #436C82",
"+X c #4F6F83",
"@X c #577989",
"#X c #487088",
"$X c #6F7A84",
"%X c #AA9784",
"&X c #BA9E83",
"*X c #CAA684",
"=X c #C5A183",
"-X c #DBAA84",
";X c #D7AB87",
":X c #DDB28D",
">X c #E3AD84",
",X c #EBAE82",
"<X c #E1AF8C",
"1X c #F4AE82",
"2X c #E3B38B",
"3X c #EBB78C",
"4X c #F5B485",
"5X c #FAB583",
"6X c #F4BC8D",
"7X c #FABB8C",
"8X c #F6B88A",
"9X c #E6B991",
"0X c #EDBC92",
"qX c #F4BD93",
"wX c #FABD93",
"eX c #F4C194",
"rX c #FBC295",
"tX c #F6C499",
"yX c #FAC298",
"uX c #FAC08F",
"iX c None",
/* pixels */
"iXiXiXiXiXiXiXiXiXiXiXiXiXiXiXiXiXiXiXiXiXiXiXiXiXiXiXiXiXiXiXiXiXiXiXiXiXiXiXiXiXiXiXiXiXiXiXiXiXiXiXiXiXiXiXiXiXiXiXiXiXiXiXiX",
"iXiXiXiXiXiXiXiXiXiXiXiXiXiXiXiXiXiXiXiXiXiXiXiXiXiXiXiXiXiXiXiXiXiXiXiXiXiXiXiXiXiXiXiXiXiXiXiXiXiXiXiXiXiXiXiXiXiXiXiXiXiXiXiX",
"iXiXiXiXiXiXiXiXiXiXiXiXiXiXiXiXiXiXiXiXiXiXiXiXiXiXiXiXiXiXiXiXiXiXiXiXiXiXiXiXiXiXiXiXiXiXiXiXiXiXiXiXiXiXiXiXiXiXiXiXiXiXiXiX",
"iXiXiXiXiXiXiXiXiXiXiXiXiXiXiXiXiXiXiXiXiXiXiXiXiXiXiXiXiXiXiXiXiXiXiXiXiXiXiXiXiXiXiXiXiXiXiXiXiXiXiXiXiXiXiXiXiXiXiXiXiXiXiXiX",
"iXiXiXiXiXiXiXiXiXiXiXiXiXiXiXiXiXiXiXiXiXiXiXiXiXiXiXiXiXiXiXiXiXiXiXiXiXiXiXiXiXiXiXiXiXiXd.i.i.s.iXiXiXiXiXiXiXiXiXiXiXiXiXiX",
"iXiXiXiXiXiXiXiXiXiXiXiXiXiXiXiXiXiXiXiXiXiXiXiXiXiXiXiXiXiXiXiXiXiXiXiXiXiXiXiXiXiXiXv.*X2XqXrXeX9X:XN.m.iXiXiXiXiXiXiXiXiXiXiX",
"iXiXiXiXiXiXiXiXiXiXiXiXiXiXiXiXiXiXiXiXiXiXiXiXiXiXiXiXiXiXiXiXiXiXiXiXiXiXiXiXiXp.N.tXyXyXrXyXyXyXyXeX0X=Xp.iXiXiXiXiXiXiXiXiX",
"iXiXiXiXiXiXiXiXiXiXiXiXiXiXiXiXiXiXiXiXiXiXiXiXiXiXiXiXiXiXiXiXiXiXiXiXiXiXiXiXa.9XeXrXrXrXrXrXrXrXrXrXrXrX0Xv.iXiXiXiXiXiXiXiX",
"iXiXiXiXiXiXiXiXiXiXiXiXiXiXiXiXiXiXiXiXiXiXiXiXiXiXiXiXiXiXiXiXiXiXiXiXiXiXiXd.<XrXrXrXrXrXrXrXrXrXrXrXrXrXuXeXd.iXiXiXiXiXiXiX",
"iXiXiXiXiXiXiXiXiXiXiXiXiXiXiXiXiXiXiXiXiXiXiXiXiXiXiXiXiXiXiXiXiXiXiXiXiXiXiXD.wXrXrXrXrXrXrXrXrXrXrXtXrXrXrXrX2XiXiXiXiXiXiXiX",
"iXiXiXiXiXiXiXiXiXiXiXiXiXiXiXiXiXiXiXiXiXiXiXiXiXiXiXiXiXiXiXiXiXiXiXiXiXiXT 8XrXrXrXrXrXrXrXrXrXrXeXI.rXrXrXrXyXv.iXiXiXiXiXiX",
"iXiXiXiXiXiXiXiXiXiXiXiXiXiXiXiXiXiXiXiXiXiXiXiXiXiXiXiXiXiXiXiXiXiXiXiXiXiXS.7XrXrXrXrXrXrXrXrXrXrXP.-XeXeXrXeXrX;XiXiXiXiXiXiX",
"iXiXiXiXiXiXiXiXiXiXiXiXiXiXiXiXiXiXiXiXiXiXiXiXiXiXiXiXiXiXiXiXiXiXiXiXiXiXL.8X7XI.-XrXrXrXrXrXrXrXrXrXrXeXrXeXD.0XiXiXiXiXiXiX",
"iXiXiXiXiXiXiXiXiXiXiXiXiXiXiXiXiXiXiXiXiXiXiXiXiXiXiXiXiXiXiXiXiXiXiXiXiXiXY.5X2XB.2XrXrXrXrXrXrXrXeXrXrXrXrXrX>XeX9 iXiXiXiXiX",
"iXiXiXiXiXiXiXiXiXiXiXiXiXiXiXiXiXiXiXiXiXiXiXiXiXiXiXiXiXiXiXiXiXiXiXiXiXiXL.5X6Xh.3XrXrXrXrXrXrX*XN.tXrXrXrXrXeXeXiXiXiXiXiXiX",
"iXiXiXiXiXiXiXiXiXiXiXiXiXiXiXiXiXiXiXiXiXiXiXiXiXiXiXiXiXiXiXiXiXiXiXiXiXiXF.5XwXrXrXrXrXrXrXrXrXL k.tXrXrXtX0XtX3XiXiXiXiXiXiX",
"iXiXiXiXiXiXiXiXiXiXiXiXiXiXiXiXiXiXiXiXiXiXiXiXiXiXiXiXiXiXiXiXiXiXiXiXiXiXM.5X7XrXrXrXyXwXwXwXrX6XqXyXwXyX&XT tX*XiXiXiXiXiXiX",
"iXiXiXiXiXiXiXiXiXiXiXiXiXiXiXiXiXiXiXiXiXiXiXiXiXiXiXiXiXiXiXiXiXiXiXiXiXiXT Y.7XrXrXrXyXwXwXwXwXrXrXU.S.9XD.b.yXM.iXiXiXiXiXiX",
"iXiXiXiXiXiXiXiXiXiXiXiXiXiXiXiXiXiXiXiXiXiXiXiXiXiXiXiXiXiXiXiXiXiXiXiXiXiXiXh.4X7X7XrXrXwXwXwXwXrXrXrXwXyXwXwX0Xs.iXiXiXiXiXiX",
"iXiXiXiXiXiXiXiXiXiXiXiXiXiXiXiXiXiXiXiXiXiXiXiXiXiXiXiXiXiXiXiXiXe.k.iXiXiXiXiXL.R.7XwXrXwXwXqX-X;XrXyXwXwXwXwX&XiXiXiXiXiXiXiX",
"iXiXiXiXiXiXiXiXiXiXiXiXiXiXiXiXiXiXiXiXiXiXiXiXiXiXiXiXiXiXiXw.2.6.3.e.iXiXiXiXi.T.5X7XuXrXrXrX2Xj.qXqXwXwXwX-XiXiXiXiXiXiXiXiX",
"iXiXiXiXiXiXiXiXiXiXiXiXiXiXiXiXiXiXiXiXiXiXiXiXiXiXiXiXiXm.L 9.6.6.6.6.2.O.k.iXiXK L.R.5X5X7XuXwX3X*X,XwX7X-Xz.iXiXiXiXiXiXiXiX",
"iXiXiXiXiXiXiXiXiXiXiXiXiXiXiXiXiXiXiXiXiXiXiXiXiXiXiXd.:X9X) 6.6.6.1.6.6.6.3.t.0 . U T.T.T.5X5X8X8X5X5X5X-XE iXiXiXiXiXiXiXiXiX",
"iXiXiXiXiXiXiXiXiXiXiXiXiXiXiXiXiXiXiXiXiXiXiXiXiXiXM.eXrXt.9.6.6.6.6.6.1.1.o.] ~ a j Q T.Y.Y.R.R.R.Y.H.z.iXiXiXiXiXiXiXiXiXiXiX",
"iXiXiXiXiXiXiXiXiXiXiXiXiXiXiXiXiXiXiXiXiXiXiXiXiXv.qXyXqX( 5.6.6.6.6.6.6...X.6.6.' M k J J.U M.n.n.x.iXiXiXiXiXiXiXiXiXiXiXiXiX",
"iXiXiXiXiXiXiXiXiXiXiXiXiXiXiXiXiXiXiXiXiXiXiXiXd.wXrXrXY.C <.4.6.8.4.=.' 5.6.6.6.6.9.M x h F iXiXiXiXiXiXiXiXiXiXiXiXE M.iXiXiX",
"iXiXiXiXiXiXiXiXiXiXiXiXiXiXiXiXiXiXiXiXiXiXiXiX:XrX7XY.x.w.>.<.<.<.*.' 5.6.o.6.6.6.6.2.A a # iXiXiXiXiXiXiXiXiXiXu.U I >XE iXiX",
"iXiXiXiXiXiXiXiXiXiXiXiXiXiXiXiXiXiXiXiXiXiXiXb.rXqXT.g.iXP #.&.&.#.^ 5.6.6._ 6.6.6.6.6.1...I iXiXiXiXiXiXiXiXiXiX-XuXrX6XL iXiX",
"iXiXiXiXiXiXiXiXiXiXiXiXiXiXiXiXiXiXiXiXiXiXv.9X7XY.z.iXiXiXq.r.g.] 8.6.6.1.~ $.4.6.6.6.6.6.5.@.k.iXiXiXiXiXiXiXM.wXrXrXqXW iXiX",
"iXiXiXiXiXiXiXiXiXiXiXiXiXiXiXiXiXiXiXiXiXL qX<X4XL iXiXiXiXiXiXe.8.6.6.6.6.2.~ >.9.6.6.6.6.6.6.8.e.iXiX%XM.D.0XwX7X7X8XY.c.iXiX",
"iXiXiXiXiXiXiXiXiXiXiXiXiXiXiXiXiXiXiXiXY P P U 1Xb.iXiXiXiXiXO.4.6.6.6.6.1.1.V %.-.8.6.6.6.6.5.+.B g.2XrXrXrXwX,Xn.B.b.iXiXiXiX",
"iXiXiXiXiXiXiXiXiXiXiXiXiXiXiXiXiXiXiXiXY S.P h.K.b.iXiXiXiXV.7.8.6.6.6.6.6.6.^ [ :.9.6.6.6.,.( I.2XeXrXrXyX8XI.c.iXiXiXiXiXiXiX",
"iXiXiXiXiXiXiXiXiXiXiXiXiXiXiXiXiXiXiXiXiXR R 9 iXiXiXiXV.*.;.6.6.6.6.6.6.6.6.5.~ &.<.6.4.*.U T.uXuXrXuX8XH.v.iXiXiXiXiXiXiXiXiX",
"iXiXiXiXiXiXiXiXiXiXiXiXiXiXiXiXiXiXiXiXiXiXiXiXiXiXr.+.:.4.4.6.6.6.6.6.6.6.6.6.V %.&.-.-.~ C K.uXuXuXR.l.iXiXiXiXiXiXiXiXiXiXiX",
"iXiXiXiXiXiXiXiXiXiXiXiXiXiXiXiXiXiXiXiXiXiXiXiXiXV.>.<.7.6.6.6.6.6.6.6.6.6.6.6...` %.&.S [ ( i.H.R.P.g.iXiXiXiXiXiXiXiXiXiXiXiX",
"iXiXiXiXiXiXiXiXiXiXiXiXiXiXiXiXiXiXiXiXiXiXiXiX| >.<.4.6.6.6.6.6.6.6.6.6.6.6.6.8.~ %.` B U iXiXiXc.iXiXiXiXiXiXiXiXiXiXiXiXiXiX",
"iXiXiXiXiXiXiXiXiXiXiXiXiXiXiXiXiXiXiXiXiXiXiX| ;.<.6.6.6.6.6.6.6.6.1.6.6.6.6.1.1...N Y iXiXiXiXiXiXiXiXiXiXiXiXiXiXiXiXiXiXiXiX",
"iXiXiXiXiXiXiXiXiXiXiXiXiXiXiXiXiXiXiXiXiXiXV.:.<.6.6.6.6.6.6.6.6.6.6.6.6.6.6.6.6.6.=.iXiXiXiXiXiXiXiXiXiXiXiXiXiXiXiXiXiXiXiXiX",
"iXiXiXiXiXiXiXiXiXiXiXiXiXiXiXiXiXiXiXiXiX{ &.>.<.6.6.6.6.6.6.6.6.6.6.6.6.6.6.6.6.6.o.iXiXiXiXiXiXiXiXiXiXiXiXiXiXiXiXiXiXiXiXiX",
"iXiXiXiXiXiXiXiXiXiXiXiXiXiXiXiXiXiXiXiXP %.&.>.7.8.6.6.6.6.6.6.6.6.6.6.6.6.6.1.6.6.Z.iXiXiXiXiXiXiXiXiXiXiXiXiXiXiXiXiXiXiXiXiX",
"iXiXiXiXiXiXiXiXiXiXiXiXiXiXiXiXiXiXiXiXiXP C #.-.;.4.6.6.6.6.6.6.6.6.6.6.6.6.6.6.6.y.iXiXiXiXiXiXiXiXiXiXiXiXiXiXiXiXiXiXiXiXiX",
"iXiXiXiXiXiXiXiXiXiXiXiXiXiXiXiXiXiXiXiXiX^.E.4 / :.>.7.7.6.6.6.6.6.6.6.6.6.6.6.6.0.k.iXiXiXiXiXiXiXiXiXiXiXiXiXiXiXiXiXiXiXiXiX",
"iXiXiXiXiXiXiXiXiXiXiXiXiXiXiXiXiXiXiX+X/.].]. XE.7 ] :.<.4.6.6.6.6.6.6.6.6.8.6.7.X.iXiXiXiXiXiXiXiXiXiXiXiXiXiXiXiXiXiXiXiXiXiX",
"iXiXiXiXiXiXiXiXiXiXiXiXiXiXiXiXiXiX|.Q._. X.X XoX.XE.7 { :.<.9.4.8.8.6.4.7.7.*.' 6 @XiXiXiXiXiXiXiXiXiXiXiXiXiXiXiXiXiXiXiXiXiX",
"iXiXiXiXiXiXiXiXiXiXiXiXiXiXiXiXiX< Q._. X.X.X.X.X.XXXoX{.w 8 ) +.X.X.X.) 8 w 3 ).XXoX'.|.iXiXiXiXiXiXiXiXiXiXiXiXiXiXiXiXiXiXiX",
"iXiXiXiXiXiXiXiXiXiXiXiXiXiXiXiXr ^.]._. X.XXX.X.XXX.X.X X.X X`.{.'.{.). X.XoX.X.XoXXXXXoX(.iXiXiXiXiXiXiXiXiXiXiXiXiXiXiXiXiXiX",
"iXiXiXiXiXiXiXiXiXiXiXiXiXiXiXiXiX, '._. X.X.X.X.X.X.XXX.X.X.XXXoXW. X.X.X.X.X.X.X.X.X.X.X.XQ.iXiXiXiXiXiXiXiXiXiXiXiXiXiXiXiXiX",
"iXiXiXiXiXiXiXiXiXiXiXiXiXiXiXiXf.; !._. X.XXX.XXX.X.X.X.X.X.XXX, ^.). X X.X.X.X.XXX.XXX.X.X X}.iXiXiXiXiXiXiXiXiXiXiXiXiXiXiXiX",
"iXiXiXiXiXiXiXiXe * v b N @.Z./ +.0 > '._. X.XXX.X.X.X.XXXXXXX}.iX$X, Q._.oXXXXXXX.X.XXX.X.X.X(.iXiXiXiXiXiXiXiXiXiXiXiXiXiXiXiX",
"iXiXiXiXiXiXiXiX> a m h [ 7.6.4.^ ;Xd.: _. X.X.X.X.X.X.XXXXX(.iXiXiXiX< Q.W.oXXX.X.XXXXX.X.X).#XiXiXiXiXiXiXiXiXiXiXiXiXiXiXiXiX",
"iXiXiXiXiXiXiXiX% x m d [ #.*.-.~ >X7Xz., `. XXX.X.X.X.XXX}.iXiXiXiXiXiX< Q.!.oX.X.X`.`.(.3 @XiXiXiXiXiXiXiXiXiXiXiXiXiXiXiXiXiX",
"iXiXiXiXiXiXiXr X v m x . j a Z ` I j.A.i 2 `..X.X.XXXoX}.iXiXiXiXiXiXiXiX< Q.!._.[.2 s.*X%XiXiXiXiXiXiXiXiXiXiXiXiXiXiXiXiXiXiX",
"iXiXiXiXiXiXiX< s n s O p k D iXiXP iXiXiXiXOX).XXXXoX|.iXiXiXiXiXiXiXiXiXu ^./.^.u A.7XeXm.iXiXiXiXiXiXiXiXiXiXiXiXiXiXiXiXiXiX",
"iXiXiXiXiXiXiX% d m o + + 6 iXiXiXiXiXiXiXiXiXiXOX}.@XiXiXiXiXiXiXiXiXiXiXiXu OX$X{ { A.l.w.iXiXiXiXiXiXiXiXiXiXiXiXiXiXiXiXiXiX",
"iXiXiXiXiXiXt $ z m v . @ iXiXiXiXiXiXiXiXiXiXiXiXiXiXiXiXiXiXiXiXiXiXiXiXiXiXiXiX( >.8.5.@.iXiXiXiXiXiXiXiXiXiXiXiXiXiXiXiXiXiX",
"iXiXiXiXiXiXw * z b m k D iXiXiXiXiXiXiXiXiXiXiXiXiXiXiXiXiXiXiXiXiXiXiXiXiXiXiX9  .>.4.^ D iXiXiXiXiXiXiXiXiXiXiXiXiXiXiXiXiXiX",
"iXiXiXiXiXiX$X$ g v m b G iXiXiXiXiXiXiXiXiXiXiXiXiXiXiXiXiXiXiXiXiXiXiXiXiXiXE p A ` V s j iXiXiXiXiXiXiXiXiXiXiXiXiXiXiXiXiXiX",
"iXiXiXiXiXiXiX; o f k s iXiXiXiXiXiXiXiXiXiXiXiXiXiXiXiXiXiXiXiXiXiXiXiXiXiXiXs d v v g   + # H iXiXiXiXiXiXiXiXiXiXiXiXiXiXiXiX",
"iXiXiXiXiXiXiXiX4   F iXiXiXiXiXiXiXiXiXiXiXiXiXiXiXiXiXiXiXiXiXiXiXiXiXiXiXy . d c b x   @ f f l G iXiXiXiXiXiXiXiXiXiXiXiXiXiX",
"iXiXiXiXiXiXiXiXiXiXiXiXiXiXiXiXiXiXiXiXiXiXiXiXiXiXiXiXiXiXiXiXiXiXiXiXiXiXiX- & . f c b m m m m l iXiXiXiXiXiXiXiXiXiXiXiXiXiX",
"iXiXiXiXiXiXiXiXiXiXiXiXiXiXiXiXiXiXiXiXiXiXiXiXiXiXiXiXiXiXiXiXiXiXiXiXiXiXiXiXiXr q $ = d v m m l iXiXiXiXiXiXiXiXiXiXiXiXiXiX",
"iXiXiXiXiXiXiXiXiXiXiXiXiXiXiXiXiXiXiXiXiXiXiXiXiXiXiXiXiXiXiXiXiXiXiXiXiXiXiXiXiXiXiXiXq > & = = 5 iXiXiXiXiXiXiXiXiXiXiXiXiXiX",
"iXiXiXiXiXiXiXiXiXiXiXiXiXiXiXiXiXiXiXiXiXiXiXiXiXiXiXiXiXiXiXiXiXiXiXiXiXiXiXiXiXiXiXiXiXiXiXOXOXiXiXiXiXiXiXiXiXiXiXiXiXiXiXiX",
"iXiXiXiXiXiXiXiXiXiXiXiXiXiXiXiXiXiXiXiXiXiXiXiXiXiXiXiXiXiXiXiXiXiXiXiXiXiXiXiXiXiXiXiXiXiXiXiXiXiXiXiXiXiXiXiXiXiXiXiXiXiXiXiX"
};
