/* XPM */
static char *result[] = {
/* columns rows colors chars-per-pixel */
"64 64 227 2 ",
"   c #5A311E",
".  c #49343F",
"X  c #633239",
"o  c #6D3024",
"O  c #346932",
"+  c #494F2B",
"@  c #774C31",
"#  c #776F3B",
"$  c #383C49",
"%  c #2C3951",
"&  c #463A48",
"*  c #553740",
"=  c #3A4C59",
"-  c #224255",
";  c #1E4B6A",
":  c #274D68",
">  c #2A586B",
",  c #39576B",
"<  c #275877",
"1  c #395E79",
"2  c #3B647D",
"3  c #2B667B",
"4  c #5D4244",
"5  c #785B46",
"6  c #625551",
"7  c #5B6550",
"8  c #6F694D",
"9  c #495E72",
"0  c #425667",
"q  c #576A77",
"w  c #536669",
"e  c #746F69",
"r  c #882A25",
"t  c #9A2B28",
"y  c #9C322C",
"u  c #973224",
"i  c #883835",
"p  c #9C3B33",
"a  c #882F2E",
"s  c #A92C25",
"d  c #B42E29",
"f  c #BB2C25",
"g  c #AB3625",
"h  c #B63428",
"j  c #B03733",
"k  c #C32E29",
"l  c #C23126",
"z  c #CE312A",
"x  c #C7332D",
"c  c #DC322B",
"v  c #D63328",
"b  c #CC3331",
"n  c #D43331",
"m  c #E2322C",
"M  c #E83029",
"N  c #E43231",
"B  c #8D5030",
"V  c #AC5327",
"C  c #9B7A2B",
"Z  c #946334",
"A  c #A97A26",
"S  c #AD712D",
"D  c #8B4944",
"F  c #885A54",
"G  c #965D5A",
"H  c #8F534F",
"J  c #A24B4A",
"K  c #8C774D",
"L  c #8C6C54",
"P  c #856B58",
"I  c #94635D",
"U  c #8B734C",
"Y  c #AE7E42",
"T  c #A77A5D",
"R  c #B97A56",
"E  c #846864",
"W  c #877967",
"Q  c #947C6B",
"!  c #997D69",
"~  c #987E77",
"^  c #C17F5A",
"/  c #9E8336",
"(  c #AD8B29",
")  c #B58628",
"_  c #BA942A",
"`  c #BE9627",
"'  c #A48A33",
"]  c #B38938",
"[  c #B09237",
"{  c #BCA039",
"}  c #C3872A",
"|  c #C69D24",
" . c #DD9829",
".. c #CE9232",
"X. c #CE9C3F",
"o. c #D69C3A",
"O. c #C98830",
"+. c #E79B2F",
"@. c #E49E31",
"#. c #F09F2A",
"$. c #CAA329",
"%. c #D3A829",
"&. c #DDB62A",
"*. c #C8A937",
"=. c #D9B933",
"-. c #DDA234",
";. c #E4A82B",
":. c #F4AB2C",
">. c #F8A72C",
",. c #E9BC28",
"<. c #FAB526",
"1. c #F6B32B",
"2. c #F9B329",
"3. c #F4BD2B",
"4. c #FBBB29",
"5. c #F7BC26",
"6. c #E9A832",
"7. c #E5BA36",
"8. c #FCCE1F",
"9. c #EAC42B",
"0. c #FCC425",
"q. c #F6CB24",
"w. c #FDCD23",
"e. c #F4C429",
"r. c #FBC529",
"t. c #F4CB2C",
"y. c #F4C827",
"u. c #94874A",
"i. c #A99548",
"p. c #BC9B4B",
"a. c #B59948",
"s. c #A68357",
"d. c #B19B58",
"f. c #B2814D",
"g. c #9B856B",
"h. c #8C877A",
"j. c #958473",
"k. c #9D8675",
"l. c #998A7A",
"z. c #9B8878",
"x. c #A4826C",
"c. c #AA856B",
"v. c #AD8A6D",
"b. c #B28A6C",
"n. c #BB8C6C",
"m. c #B68965",
"M. c #AC8D75",
"N. c #A48A76",
"B. c #B28D72",
"V. c #AB917C",
"C. c #A69279",
"Z. c #BC9373",
"A. c #BD9B7D",
"S. c #B7957C",
"D. c #AD936D",
"F. c #C8AB43",
"G. c #C38E69",
"H. c #C2926D",
"J. c #C9936B",
"K. c #D99A6D",
"L. c #C39573",
"P. c #CE9A73",
"I. c #CC9C7A",
"U. c #D29A75",
"Y. c #D3A37D",
"T. c #DDA476",
"R. c #C4A17D",
"E. c #E6AB7C",
"W. c #E9A87A",
"Q. c #F6AD7B",
"!. c #F9AD7C",
"~. c #F0AA75",
"^. c #F5B17E",
"/. c #F9B27E",
"(. c #175D8C",
"). c #185E96",
"_. c #095E96",
"`. c #235B87",
"'. c #375F81",
"]. c #1B618E",
"[. c #06669E",
"{. c #0B649D",
"}. c #096497",
"|. c #156094",
" X c #136299",
".X c #1C6398",
"XX c #256085",
"oX c #256489",
"OX c #3A6888",
"+X c #226699",
"@X c #337094",
"#X c #0467A3",
"$X c #0168A6",
"%X c #0169A9",
"&X c #0167A8",
"*X c #166DA3",
"=X c #576F86",
"-X c #4C7186",
";X c #557486",
":X c #426C85",
">X c #BB9D82",
",X c #B69F86",
"<X c #C7A482",
"1X c #DDAC84",
"2X c #D4AC8A",
"3X c #D5A985",
"4X c #DDB188",
"5X c #F1AD83",
"6X c #E4B48C",
"7X c #EBB68D",
"8X c #E8B68B",
"9X c #F4B483",
"0X c #F9B684",
"qX c #F4BB8D",
"wX c #FABC8D",
"eX c #F8B788",
"rX c #EAB991",
"tX c #E7BA92",
"yX c #F3BC93",
"uX c #FABD94",
"iX c #FCBC99",
"pX c #E7AD87",
"aX c #F6C295",
"sX c #FBC295",
"dX c #F9C398",
"fX c #F4C199",
"gX c None",
/* pixels */
"gXgXgXgXgXgXgXgXgXgXgXgXgXgXgXgXgXgXgXgXgXgXgXgXgXgXgXgXgXgXgXgXgXgXgXgXgXgXgXgXgXgXgXgXgXgXgXgXgXgXgXgXgXgXgXgXgXgXgXgXgXgXgXgX",
"gXgXgXgXgXgXgXgXgXgXgXgXgXgXgXgXgXgXgXgXgXgXgXgXgXgXgXgXgXgXgXgXgXgXgXgXgXgXgXl.D.A.R.>X>XV.l.gXgXgXgXgXgXgXgXgXgXgXgXgXgXgXgXgX",
"gXgXgXgXgXgXgXgXgXgXgXgXgXgXgXgXgXgXgXgXgXgXgXgXgXgXgXgXgXgXgXgXgXgXgXgXgXN.2XaXsXsXsXsXsXsXaX2Xj.gXgXgXgXgXgXgXgXgXgXgXgXgXgXgX",
"gXgXgXgXgXgXgXgXgXgXgXgXgXgXgXgXgXgXgXgXgXgXgXgXgXgXgXgXgXgXgXgXgXgXgXgXA.aXsXaXsXsXsXsXsXsXsXsXtXC.gXgXgXgXgXgXgXgXgXgXgXgXgXgX",
"gXgXgXgXgXgXgXgXgXgXgXgXgXgXgXgXgXgXgXgXgXgXgXgXgXgXgXgXgXgXgXgXgXgXgX<XdXsXsXsXsXsXsXsXsXsXsXsXsXsXS.gXgXgXgXgXgXgXgXgXgXgXgXgX",
"gXgXgXgXgXgXgXgXgXgXgXgXgXgXgXgXgXgXgXgXgXgXgXgXgXgXgXgXgXgXgXgXgXgXN.aXsXsXsXsXsXsXsXaXsXsXsXsXaX1X4XC.gXgXgXgXgXgXgXgXgXgXgXgX",
"gXgXgXgXgXgXgXgXgXgXgXgXgXgXgXgXgXgXgXgXgXgXgXgXgXgXgXgXgXgXgXgXgXz.rXaXsXsXsXsXsXsXaXaXZ.8XaXaXaXP.1XR.gXgXgXgXgXgXgXgXgXgXgXgX",
"gXgXgXgXgXgXgXgXgXgXgXgXgXgXgXgXgXgXgXgXgXgXgXgXgXgXgXgXgXgXgXgXgXM.sXsXsXsXsXsXsXsXaXaXaXaXsXsXsXsXaXaXj.gXgXgXgXgXgXgXgXgXgXgX",
"gXgXgXgXgXgXgXgXgXgXgXgXgXgXgXgXgXgXgXgXgXgXgXgXgXgXgXgXgXgXgXgXgXI.sXsXsXsXsXsXsXsXsXsXdXsXsXsXsXaXaXaX,XgXgXgXgXgXgXgXgXgXgXgX",
"gXgXgXgXgXgXgXgXgXgXgXgXgXgXgXgXgXgXgXgXgXgXgXgXgXgXgXgXgXgXgXgXgXpXwXsXsXsXsXsXsXsXsXsXsXdXsXsXsXtXv.iX<XgXgXgXgXgXgXgXgXgXgXgX",
"gXgXgXgXgXgXgXgXgXgXgXgXgXgXgXgXgXgXgXgXgXgXgXgXgXgXgXgXgXgXgXgXgX5XwXaXqXrXsXsXsXsXsXsXL.,XsXsXsX3Xe 1X4XgXgXgXgXgXgXgXgXgXgXgX",
"gXgXgXgXgXgXgXgXgXgXgXgXgXgXgXgXgXgXgXgXgXgXgXgXgXgXgXgXgXgXgXgXgX~.eX7Xn.Y.sXsXsXsXsXsXb.P aXsXuXaX6XuX6XgXgXgXgXgXgXgXgXgXgXgX",
"gXgXgXgXgXgXgXgXgXgXgXgXgXgXgXgXgXgXgXgXgXgXgXgXgXgXgXgXgXgXgXgXgXU.0XqXn.1XsXsXsXsXuXsXaXyXuXI.L.yXiXuX1XgXgXgXgXgXgXgXgXgXgXgX",
"gXgXgXgXgXgXgXgXgXgXgXgXgXgXgXgXgXgXgXgXgXgXgXgXgXgXgXgXgXgXgXgXgXc.!.wXyXyXsXsXsXsXuXuXuXuXsXaXaXdXuXuX3XgXgXgXgXgXgXgXgXgXgXgX",
"gXgXgXgXgXgXgXgXgXgXgXgXgXgXgXgXgXgXgXgXgXgXgXgXgXgXgXgXgXgXgXgXgXgXY.0XaXsXsXsXsXiXiXuXuXuXsXdXdXuXuXqXS.gXgXgXgXgXgXgXgXgXgXgX",
"gXgXgXgXgXgXgXgXgXgXgXgXgXgXgXgXgXgXgXgXgXgXgXgXgXgXgXgXgXgXgXgXgXgXk.5XwXwXsXsXsXdXuXuXiX3XrXdXaXuXiXeXQ gXgXgXgXgXgXgXgXgXgXgX",
"gXgXgXgXgXgXgXgXgXgXgXgXgXgXgXgXgXgXgXgXgXgXgXgXgXgXgXgXgXgXgXgXgXgXgXb.9XwXwXaXsXsXuXuXuX6XT m.L.uXwXI.gXgXgXgXgXgXgXgXgXgXgXgX",
"gXgXgXgXgXgXgXgXgXgXgXgXgXgXgXgXgXgXgXgXgXgXgXgXgXgXgXgXgXgXgXgXgXgXgXgXH./.eXwXwXwXsXwXuXyXiXyXwXeX5X! gXgXgXgXgXgXgXgXgXgXgXgX",
"gXgXgXgXgXgXgXgXgXgXgXgXgXgXgXgXgXgXgXgXgXgXgXgXgXgXgXgXgXgXgXgXgXgXgXgXgXv.Q./.0XwXaXsXuXwXeXeXeX!.c.gXgXgXgXgXgXgXgXgXgXgXgXgX",
"gXgXgXgXgXgXgXgXgXgXgXgXgXgXgXgXgXgXgXgXgXgXgXgXgXgXgXgXgXgXgXgXgXgXgXgXgXgX5 G.!.^.^.0X0XeX0X0XW.B.gXgXgXgXgXgXgXgXgXgXgXgXgXgX",
"gXgXgXgXgXgXgXgXgXgXgXgXgXgXgXgXgXgXgXgXgXgXgXgXgXgXi.*.*.=.=.9.7.9.*.i.,X. r B ~.!.~.!.!.Q.Q.J.! gXgXgXgXgXgXgXgXgXgXgXgXgXgXgX",
"gXgXgXgXgXgXgXgXgXgXgXgXgXgXgXgXgXgXgXgXgXgXgXgXgXa.w.8.w.w.w.w.w.w.q.' %.) B s p G.~.~.R T Q gXgXgXgXgXgXgXgXgXgXgXgXgXgXgXgXgX",
"gXgXgXgXgXgXgXgXgXgXgXgXgXgXgXgXgXgXgXgXgXgXgXgXgX=.w.w.w.w.w.w.8.9.( y.w.w.t.) g f y R H.gXgXgXgXgXgXgXgXgXgXgXgXgXgXgXgXgXgXgX",
"gXgXgXgXgXgXgXgXgXgXgXgXgXgXgXgXgXgXgXgXgXgXgXgXK t.w.w.w.w.w.w.8._ y.q.w.w.w.q.,.S h z y W gXgXgXgXgXgXgXgXgXgXgXgXgXgXgXgXgXgX",
"gXgXgXgXgXgXgXgXgXgXgXgXgXgXgXgXgXgXgXgXgXgXgXV.s.w.w.w.w.w.w.w.$.,.8.w.q.w.w.w.w.y.A d g 5 gXgXgXgXgXgXgXgXgXgXgXgXgXgXgXgXgXgX",
"gXgXgXgXgXgXgXgXgXgXgXgXgXgXgXgXgXgXgXgXgXgXC.aXd.r.w.w.w.r.r.;.$.w.8.&.$.0.w.w.w.w.w.%.o 8 gXgXgXgXgXgXgXgXgXgXgXgXgXgXgXgXgXgX",
"gXgXgXgXgXgXgXgXgXgXgXgXgXgXgXgXgXgXgXgXgXgX2XsXZ.3.0.w.r.4.1._ q.w.w.q.A 3.0.w.w.w.w.w.&.W gXgXgXgXgXgXgXgXgXgXgXgXgXgXgXgXgXgX",
"gXgXgXgXgXgXgXgXgXgXgXgXgXgXgXgXgXgXgXgXgXS.sXaXE.) 4.4.1.:.} ,.w.w.w.w.$...4.r.w.8.w.w.8.=.gXgXgXgXgXgXgXgXgXgXgXgXQ z.gXgXgXgX",
"gXgXgXgXgXgXgXgXgXgXgXgXgXgXgXgXgXgXgXgXV.aXaXwXI.P ..:.6.D.p.r.w.w.w.8.q.C >.5.r.w.w.w.w.w.F.gXgXgXgXgXgXgXgXgX! 8 I.c.gXgXgXgX",
"gXgXgXgXgXgXgXgXgXgXgXgXgXgXgXgXgXgXgXz.7XsXwXE.k.gXgXK g.p.5.w.w.w.w.w.w.`  .:.0.w.w.w.w.w.y.d.gXgXgXgXgXgXgXgXJ.n.uX7XP gXgXgX",
"gXgXgXgXgXgXgXgXgXgXgXgXgXgXgXgXgXgXl.8XsXwXW.x.gXgXgXgXp.5.r.w.w.w.w.w.8.9.) >.4.w.w.w.w.w.w.7.gXgXgXgXgXgXgXj.qXuXaXaXZ.gXgXgX",
"gXgXgXgXgXgXgXgXgXgXgXgXgXgXgXgXW ,X2XwX0XJ.k.gXgXgXgXX.5.0.w.w.w.w.w.w.8.w.) >.<.0.0.q.r.t.9.3.a.gXgXgXgXgXgXI.uXuXuXeXL.gXgXgX",
"gXgXgXgXgXgXgXgXgXgXgXgXgXgXgXW I n.U.5Xx.gXgXgXgXc.;.4.w.w.w.w.w.w.w.w.w.w.) :.>.1. .A f.f.n.U @ j.V.>X<X4XdXsX9XP.Z.k.gXgXgXgX",
"gXgXgXgXgXgXgXgXgXgXgXgXgXgXgXQ c.L b.5XM.gXgXgXgX-.4.0.8.w.w.w.w.w.w.8.w.w.,.) +...O.S K.wXsX1XY.8XyXsXsXsXuXE.B.gXgXgXgXgXgXgX",
"gXgXgXgXgXgXgXgXgXgXgXgXgXgXgXQ m.L s.Z.gXgXgXgX-.4.0.w.w.w.w.w.w.w.w.w.w.8.8.` Z gXf.S K.sXsXsXsXsXsXsXiX0XB.gXgXgXgXgXgXgXgXgX",
"gXgXgXgXgXgXgXgXgXgXgXgXgXgXgXgXk.E gXgXgXgXgXo.4.r.w.w.w.w.w.w.w.w.w.w.w.w.w.0.=.gXgXgXP.wXsXsXsXsXsXE.S.N.gXgXgXgXgXgXgXgXgXgX",
"gXgXgXgXgXgXgXgXgXgXgXgXgXgXgXgXgXgXgXgXgXx.o.<.4.0.w.w.w.w.w.w.w.w.w.w.w.w.w.w.w.gXgXgXb./.wXeX^.T.b.gXgXgXgXgXgXgXgXgXgXgXgXgX",
"gXgXgXgXgXgXgXgXgXgXgXgXgXgXgXgXgXgXgXgXs.@.2.<.r.w.w.w.w.w.w.w.w.w.w.w.w.w.w.w.t.gXgXgXgXU.U.L.B.gXgXgXgXgXgXgXgXgXgXgXgXgXgXgX",
"gXgXgXgXgXgXgXgXgXgXgXgXgXgXgXgXgXgXgXgX] >.:.4.4.0.w.w.w.w.w.8.8.w.w.w.w.w.w.w.9.gXgXgXgXgXgXgXgXgXgXgXgXgXgXgXgXgXgXgXgXgXgXgX",
"gXgXgXgXgXgXgXgXgXgXgXgXgXgXgXgXgXgXgXgXgXB O.:.<.4.r.w.w.w.w.w.w.w.w.w.w.w.w.8.{ gXgXgXgXgXgXgXgXgXgXgXgXgXgXgXgXgXgXgXgXgXgXgX",
"gXgXgXgXgXgXgXgXgXgXgXgXgXgXgXgXgXgXgXgXgX: > 7 ] ;.<.4.4.0.0.0.w.w.w.w.w.w.w.e.d.gXgXgXgXgXgXgXgXgXgXgXgXgXgXgXgXgXgXgXgXgXgXgX",
"gXgXgXgXgXgXgXgXgXgXgXgXgXgXgXgXgXgXgXgXOX).{.{.}.> 7 # C / ' [ %.4.0.r.r.w.r.7.gXgXgXgXgXgXgXgXgXgXgXgXgXgXgXgXgXgXgXgXgXgXgXgX",
"gXgXgXgXgXgXgXgXgXgXgXgXgXgXgXgXgXgXgX-X(.{.#X#X#X%X%X$X$X#X$X[.}.3 8 u.' _ ` u.gXgXgXgXgXgXgXgXgXgXgXgXgXgXgXgXgXgXgXgXgXgXgXgX",
"gXgXgXgXgXgXgXgXgXgXgXgXgXgXgXgXgXgXgX< {.#X&X&X$X&X$X$X$X$X$XXX}.$X$X$X$X[.[.].gXgXgXgXgXgXgXgXgXgXgXgXgXgXgXgXgXgXgXgXgXgXgXgX",
"gXgXgXgXgXgXgXgXgXgXgXgXgXgXgXgXgXgX=X).#X&X&X&X$X$X%X$X$X$X#XXX.X$X$X%X$X%X%X$XoXgXgXgXgXgXgXgXgXgXgXgXgXgXgXgXgXgXgXgXgXgXgXgX",
"gXgXgXgXgXgXgXgXgXgXgXgXgXgXgXgXgXgXOX).{.#X$X&X%X$X$X&X%X%X$X`.+X#X%X$X$X$X%X%X#X-XgXgXgXgXgXgXgXgXgXgXgXgXgXgXgXgXgXgXgXgXgXgX",
"gXgXgXgXgXgXgXgXgXgXgXgXgXgXgXgXgXgX< ). X#X#X$X%X$X$X%X$X$X%X+X+X#X$X$X%X%X$X$X%XoXgXgXgXgXgXgXgXgXgXgXgXgXgXgXgXgXgXgXgXgXgXgX",
"gXgXgXgXgXgXgXgXgXgXgXgXgXgXgXgXgXgXq `.].}.[.$X$X%X$X$X$X%X*XoX.X$X$X$X$X$X$X%X#X}.gXgXgXgXgXgXgXgXgXgXgXgXgXgXgXgXgXgXgXgXgXgX",
"gXgXgXgXgXgXgXgXgXgXgXgXgXgXgXgXgXgXgXq ;  X|.[.#X$X$X$X%X%X@X`..X#X%X$X$X$X$X$X#X[.;XgXgXgXgXgXgXgXgXgXgXgXgXgXgXgXgXgXgXgXgXgX",
"gXgXgXgXgXgXgXgXgXgXgXgXgXgXgXgXgXgXgXK / W 1 |.}.#X$X%X#X%X{.OX.X#X$X$X%X$X$X$X#X#XOXgXgXgXgXgXgXgXgXgXgXgXgXgXgXgXgXgXgXgXgXgX",
"gXgXgXgXgXgXgXgXgXgXgXgXgXgXgXgXgXgXs.| ,.m.aXM.0 (.#X#X%X%X}.OX(. X{.#X#X$X$X#X[.XXgXgXgXgXgXgXgXgXgXgXgXgXgXgXgXgXgXgXgXgXgXgX",
"gXgXgXgXgXgXgXgXgXgXgXgXgXgXgXgXP ] 3.8.4...G.G.L.e -XOXOX:XgX;X9 '.:Xq q q 2 OXgXgXgXgXgXgXgXgXgXgXgXgXgXgXgXgXgXgXgXgXgXgXgXgX",
"gXgXgXgXgXgXgXgXgXgXgXgXgXgXgXI x V 3.:.A Z f.U gXgXgXgXgXgXgXgXgXgXN.9XaX6XgXgXgXgXgXgXgXgXgXgXgXgXgXgXgXgXgXgXgXgXgXgXgXgXgXgX",
"gXgXgXgXgXgXgXgXgXgXgXgXgXgXgXJ m v V B s p gXgXgXgXgXgXgXgXgXgXgXs.Z K.8XZ.g.gXgXgXgXgXgXgXgXgXgXgXgXgXgXgXgXgXgXgXgXgXgXgXgXgX",
"gXgXgXgXgXgXgXgXgXgXgXgXgXgXgX& l m m s   O 7 gXgXgXgXgXgXgXgXgXgXs.6.6.$.$.[ gXgXgXgXgXgXgXgXgXgXgXgXgXgXgXgXgXgXgXgXgXgXgXgXgX",
"gXgXgXgXgXgXgXgXgXgXgXgXgXgXgX1 & f m y O   r H gXgXgXgXgXgXgXgXgX! @.r.w.( I gXgXgXgXgXgXgXgXgXgXgXgXgXgXgXgXgXgXgXgXgXgXgXgXgX",
"gXgXgXgXgXgXgXgXgXgXgXgXgXgXgXgX, * x n n k f z F gXgXgXgXgXgXgXgX5 6.4.%.u y gXgXgXgXgXgXgXgXgXgXgXgXgXgXgXgXgXgXgXgXgXgXgXgXgX",
"gXgXgXgXgXgXgXgXgXgXgXgXgXgXgXgXgX9 * f m m m c i gXgXgXgXgXgXgXE s u h d   O + D H G gXgXgXgXgXgXgXgXgXgXgXgXgXgXgXgXgXgXgXgXgX",
"gXgXgXgXgXgXgXgXgXgXgXgXgXgXgXgXgXgX= X d z z f i gXgXgXgXgXgXgXD s x c m o + u s v b I gXgXgXgXgXgXgXgXgXgXgXgXgXgXgXgXgXgXgXgX",
"gXgXgXgXgXgXgXgXgXgXgXgXgXgXgXgXgXgXgX: . r s o 6 gXgXgXgXgXgXgX4 u d k z v c M m N N J gXgXgXgXgXgXgXgXgXgXgXgXgXgXgXgXgXgXgXgX",
"gXgXgXgXgXgXgXgXgXgXgXgXgXgXgXgXgXgXgXgX9 0 0 w gXgXgXgXgXgXgXgXq = $ $ $ X a d z c n F gXgXgXgXgXgXgXgXgXgXgXgXgXgXgXgXgXgXgXgX",
"gXgXgXgXgXgXgXgXgXgXgXgXgXgXgXgXgXgXgXgXgXgXgXgXgXgXgXgXgXgXgXgXgXgXgXgXgX9 , : % % - w gXgXgXgXgXgXgXgXgXgXgXgXgXgXgXgXgXgXgXgX",
"gXgXgXgXgXgXgXgXgXgXgXgXgXgXgXgXgXgXgXgXgXgXgXgXgXgXgXgXgXgXgXgXgXgXgXgXgXgXgXgXgXgXgXgXgXgXgXgXgXgXgXgXgXgXgXgXgXgXgXgXgXgXgXgX",
"gXgXgXgXgXgXgXgXgXgXgXgXgXgXgXgXgXgXgXgXgXgXgXgXgXgXgXgXgXgXgXgXgXgXgXgXgXgXgXgXgXgXgXgXgXgXgXgXgXgXgXgXgXgXgXgXgXgXgXgXgXgXgXgX"
};
