/* XPM */
static char *_aa6bf76a96d47528919f5b29fa46666KFN8Uh6nMScvsvUz[] = {
/* columns rows colors chars-per-pixel */
"64 64 208 2 ",
"   c None",
".  c #6B3310",
"X  c #4F362F",
"o  c #7B2C37",
"O  c #773324",
"+  c #35542D",
"@  c #256636",
"#  c #4E4A2B",
"$  c #745A35",
"%  c #7A6E2F",
"&  c #2B3947",
"*  c #463E58",
"=  c #4D3548",
"-  c #663242",
";  c #25445A",
":  c #304E5E",
">  c #2A7549",
",  c #0A5379",
"<  c #1A5578",
"1  c #275A78",
"2  c #3C5F70",
"3  c #2C5069",
"4  c #1E637C",
"5  c #286575",
"6  c #3C667D",
"7  c #404153",
"8  c #6F5352",
"9  c #506B57",
"0  c #60754F",
"q  c #796B57",
"w  c #405968",
"e  c #466678",
"r  c #56676E",
"t  c #736B65",
"y  c #76706C",
"u  c #637171",
"i  c #B01B1F",
"p  c #89261A",
"a  c #9B351F",
"s  c #B0351E",
"d  c #B51C21",
"f  c #86272A",
"g  c #8D2F32",
"h  c #A82526",
"j  c #B32426",
"k  c #B82729",
"l  c #A53435",
"z  c #B53030",
"x  c #CF1F24",
"c  c #DF1E25",
"v  c #E31F26",
"b  c #E91E25",
"n  c #CC2326",
"m  c #C62528",
"M  c #D32327",
"N  c #DC2126",
"B  c #E12026",
"V  c #964A19",
"C  c #9F5014",
"Z  c #A45719",
"A  c #9A660F",
"S  c #9D791B",
"D  c #A87B0E",
"F  c #B5791D",
"G  c #AD7314",
"H  c #8A5335",
"J  c #8C7133",
"K  c #A37628",
"L  c #A67A3A",
"P  c #834747",
"I  c #8F5657",
"U  c #A35C48",
"Y  c #917A47",
"T  c #856A56",
"R  c #947757",
"E  c #927451",
"W  c #A26C52",
"Q  c #897768",
"!  c #997E6A",
"~  c #947B68",
"^  c #827C72",
"/  c #069E47",
"(  c #B88C18",
")  c #BB9614",
"_  c #B2910B",
"`  c #998537",
"'  c #958632",
"]  c #AC8B26",
"[  c #AD8D37",
"{  c #B58533",
"}  c #BA9B36",
"|  c #B49930",
" . c #C69B14",
".. c #D0911E",
"X. c #D3A70B",
"o. c #DAB60D",
"O. c #CAA519",
"+. c #D8A618",
"@. c #C9A10F",
"#. c #E5BD06",
"$. c #E2B50D",
"%. c #E7BB0C",
"&. c #E4AC1D",
"*. c #EBAF1D",
"=. c #E8B614",
"-. c #FCBD1D",
";. c #F3BA18",
":. c #C89A29",
">. c #C59930",
",. c #CC9422",
"<. c #CBA123",
"1. c #C3A726",
"2. c #D2A222",
"3. c #FCB821",
"4. c #F4AF24",
"5. c #EBC108",
"6. c #FCCE06",
"7. c #FFCD0B",
"8. c #F5C809",
"9. c #FFD302",
"0. c #F4C111",
"q. c #FFC615",
"w. c #FFC911",
"e. c #FEC219",
"r. c #998241",
"t. c #A48D41",
"y. c #A78648",
"u. c #B58B4D",
"i. c #B29E40",
"p. c #B38859",
"a. c #AF8D54",
"s. c #9C826E",
"d. c #95816C",
"f. c #968375",
"g. c #98877A",
"h. c #AB876A",
"j. c #B98966",
"k. c #A28671",
"l. c #A48A75",
"z. c #AD8D75",
"x. c #A88D7B",
"c. c #B48E71",
"v. c #AC917B",
"b. c #A7917F",
"n. c #BD9475",
"m. c #BA957A",
"M. c #B49177",
"N. c #B99469",
"B. c #C29450",
"V. c #C5A041",
"C. c #C49B7A",
"Z. c #CA9A76",
"A. c #D19870",
"S. c #CDA07D",
"D. c #DBA57A",
"F. c #F4B07E",
"G. c #065A89",
"H. c #115D8A",
"J. c #0B6394",
"K. c #02659B",
"L. c #076395",
"P. c #14699B",
"I. c #296588",
"U. c #356C8D",
"Y. c #3F6D89",
"T. c #016AA5",
"R. c #016EAC",
"E. c #0170AF",
"W. c #0171B3",
"Q. c #0075BB",
"!. c #43708B",
"~. c #0177C0",
"^. c #0179C2",
"/. c #BB9B81",
"(. c #B19680",
"). c #C69F82",
"_. c #C4A286",
"`. c #CDA382",
"'. c #CDA788",
"]. c #D9AB84",
"[. c #DAAD8A",
"{. c #D4AA87",
"}. c #DEB18D",
"|. c #DCB391",
" X c #E2AD84",
".X c #E5AF8A",
"XX c #E3B38C",
"oX c #EBB58C",
"OX c #F5B586",
"+X c #F3B689",
"@X c #F9BA8C",
"#X c #F8B98A",
"$X c #EBBA94",
"%X c #E6B996",
"&X c #F4BE94",
"*X c #FABC94",
"=X c #FBBC96",
"-X c #FAC195",
";X c #F6C39A",
":X c #FAC69D",
">X c #FCC79D",
",X c #FBC49A",
"<X c #FDC89E",
"1X c #FDC89F",
"2X c #FDC89D",
"3X c #FCC89E",
"4X c #F7C094",
"5X c #FCC8A0",
/* pixels */
"                                                                                                                                ",
"                                                                                                                                ",
"                                                                                                                                ",
"                                              /.'.|.%X|._.b.                                                                    ",
"                                        Q ].2X2X2X5X5X5X5X5X[.f.                                                                ",
"                                      M.&X>X2X2X5X5X5X5X:X`.}.$Xb.                                                              ",
"                                    c.-X,X2X2X5X5X5X5X5X5X5X2X5X%Xg.                                                            ",
"                                  s.@X,X2X2X5XC.XX5X5X5X5X5X5X5X5X'.                                                            ",
"                                   X-X>X2X5X5XS.5X5X5X5X5X5X[.|.>X:Xb.                                                          ",
"                                z.*X,X2X2X5X5X5X5X5X5X5X5X5Xl.Q :X,X).                                                          ",
"                                n.-X,X2X2X5X5X5X5X_.[.5X5X:X;X$X,X=X.X                  Q                                       ",
"                                C.-X,X2X2X5X2X2X>Xd.~ 2XXXn.&X>X,X*X*Xz.                v.l.  g.! t                             ",
"                                C.*X,X2X>X>X>X>X,X&X&X>X2X2X2X>X,X*X*Xm.                _.;Xc.h.! !                             ",
"                                n.@X-X,X>X>X>X,X*X*X*X,X>X2X2X>X,X=X*XM.              (.{.,X4X XR ~                             ",
"                                k.#X*Xn.XX>X,X*X*X*X*X*X,X2X2X:X>X,X,Xx.            /.,X-XoX XZ.z.                              ",
"                                  Z.+Xh.XX,X,X*X*X*X*X*XS.`.C.`.2X2X[.          v.$X,X-X Xf.                                    ",
"                                  d.OXZ.j.-X,X-X*X*X*X,XoX].[.:X2X,X/.        m.&X-X-X+Xk.                                      ",
"                                    ! OX@X*X-X-X-X,X,X:X>X2X2X:X,XXX    | 8.) +X@X@X+X~                                         ",
"                                      s.D.#X@X*X-X-X-X,X,X,X-X*XZ.d.i.o.9.9.9.y.#XD.s.                                          ",
"                                          c.Z.OX#X@X@X@X@X+XA.U K =.6.9.9.9.9. .c.                                              ",
"                                              k.m.W j.F.F.A.E j Z q.7.9.9.9.9.#.y                                               ",
"                                                  j h z k d V p F q.7.9.9.9.9.%.n.y                                             ",
"                                                y.F Z s n x C p ..e.q.w.7.7.$.a.;Xf.                                            ",
"                                              E 4.-.e.0.X.A . s V 3.-.&.>.y.N.2X2X:X$X`.q                                       ",
"                                              >.-.w.7.9.9.9.6.#._ K B.].$X2X2X>X>X>X;Xh.T                                       ",
"                                              ,.e.6.9.9.9.9.9.$.p.*X,X2X>X,XXXl.Q `.XXT y                                       ",
"                                              :.q.9.9.9.9.9.9.] +X*X-X-X.Xm.                                                    ",
"                                              [ e.7.9.9.9.9.6.u.OX+XD.p.~                                                       ",
"                                              J &.+.6.9.9.9.%.L B.{ ,.*.                                                        ",
"                                              :.e.) =.9.9.9.=.2.3.*.+.q.|                                                       ",
"                                              &.w.0. .+.7.9.0.( q.$.$.9.1.                                                      ",
"                                              e.7.9.6.@. .;.w.( 0.X.5.9.O.                                                      ",
"                                            Y q.7.9.9.9.5.@. .( S ) 9.9.o.                                                      ",
"                                            [ w.9.9.9.9.9.6.%.$.$.6.9.9.#.                                                      ",
"                                            >.w.9.9.9.9.9.9.9.9.9.9.9.9.6.                                                      ",
"                                            <.7.9.9.9.9.9.9.9.9.9.9.9.9.7.t.                                                    ",
"                                            +.7.9.9.9.9.9.9.9.9.9.9.9.9.7.t.                                                    ",
"                                            =.7.9.9.9.9.9.9.9.9.9.9.9.9.7.t.                                                    ",
"                                          q q.7.9.9.9.9.9.9.9.9.9.9.9.9.7.[                                                     ",
"                                          [ q.7.9.9.9.9.9.9.9.9.9.9.9.9.7.}                                                     ",
"                                          2.q.7.9.9.9.9.9.9.9.9.9.9.9.9.7.<.                                                    ",
"                                          -.q.7.7.9.9.9.9.9.9.9.9.9.9.9.7.;.y.                                                  ",
"                                        y.3.-.e.q.w.7.7.9.9.9.9.9.9.9.9.6.w.}                                                   ",
"                                        y.J ` >.+.;.e.q.q.w.7.7.9.9.9.9.6.w.<.                                                  ",
"                                          L.T.G.5 0 ` :.&.-.q.q.w.7.7.7.0.O.]                                                   ",
"                                        I.Q.W.W.W.R.T.L.4 9 % ' ] ] ' 0 5 , u                                                   ",
"                                        R.~.Q.Q.Q.W.W.R.T.G., K.T.R.R.E.W.W.U.                                                  ",
"                                      U.^.^.^.~.Q.Q.W.R.T., K.T.R.W.W.Q.Q.Q.P.                                                  ",
"                                      J.^.^.^.^.Q.Q.W.R.J.r L.T.R.W.Q.Q.Q.Q.W.                                                  ",
"                                      Y.Q.^.~.Q.Q.Q.W.R.I.  H.T.R.W.Q.Q.Q.Q.Q.e                                                 ",
"                                        !.J.Q.Q.W.W.R.K.6   1 T.T.R.W.W.W.P.U.                                                  ",
"                                        g.&Xv.u < G.G.1       e 1 3 r ^ Q                                                       ",
"                                        z.>X-Xn.                   X-X&Xb.                                                      ",
"                                      S {.-X*Xf.                $ oX,XC.                                                        ",
"                                      D O.B.u.J                 O.<.V.{ R                                                       ",
"                                    j n A 9.)                 E ;.9.D H                                                         ",
"                                  > # h D 7.r.                :.-. .j l                                                         ",
"                              P h O / X V V g               P a V p + @ 8 I                                                     ",
"                            z c d i O a M n f               l n N h @ O d c k                                                   ",
"                            n v B B N N n f &               l m M N v b b v N 8                                                 ",
"                          : o m n n h X ; 2                 7 - o g j n M m g w                                                 ",
"                            ; = - = ; e                       I.I.< 3 * * * 1                                                   ",
"                                                                                                                                ",
"                                                                                                                                "
};
