/* XPM */
static char *result[] = {
/* columns rows colors chars-per-pixel */
"59 64 221 2 ",
"   c #671E18",
".  c #412B34",
"X  c #522F2D",
"o  c #642B2A",
"O  c #6F2922",
"+  c #782A25",
"@  c #683A2F",
"#  c #285C26",
"$  c #347234",
"%  c #454836",
"&  c #585A38",
"*  c #6A4A37",
"=  c #6D5535",
"-  c #71632C",
";  c #2A3A4D",
":  c #2A495B",
">  c #314C4E",
",  c #195678",
"<  c #17566D",
"1  c #2B4E64",
"2  c #244967",
"3  c #25536D",
"4  c #32516A",
"5  c #2A5374",
"6  c #24567B",
"7  c #325B75",
"8  c #3B637B",
"9  c #425054",
"0  c #755B43",
"q  c #675149",
"w  c #7B6B5C",
"e  c #7B6E4F",
"r  c #475969",
"t  c #465D72",
"y  c #476478",
"u  c #5A6773",
"i  c #7B6D66",
"p  c #757168",
"a  c #882C1B",
"s  c #882B23",
"d  c #8B2C29",
"f  c #992C27",
"g  c #863729",
"h  c #8C3837",
"j  c #A52D29",
"k  c #B62B29",
"l  c #AD332C",
"z  c #AE3026",
"x  c #B23228",
"c  c #B73130",
"v  c #CB2F29",
"b  c #C22F26",
"n  c #CE342B",
"m  c #CB3224",
"M  c #D4342C",
"N  c #DD312B",
"B  c #D43432",
"V  c #DE3233",
"C  c #CE3136",
"Z  c #E3312B",
"A  c #E73129",
"S  c #E33130",
"D  c #884C1E",
"F  c #875A23",
"G  c #875E34",
"H  c #946B28",
"J  c #93763B",
"K  c #8E6F2D",
"L  c #A76B28",
"P  c #A67E24",
"I  c #A77C3B",
"U  c #B3772F",
"Y  c #8A5956",
"T  c #866747",
"R  c #8A774C",
"E  c #8C6B51",
"W  c #846A5C",
"Q  c #976F55",
"!  c #8B7A53",
"~  c #99775C",
"^  c #936047",
"/  c #A97A4E",
"(  c #847362",
")  c #8C7663",
"_  c #8C7A6C",
"`  c #877A6C",
"'  c #947661",
"]  c #967A67",
"[  c #8A7F75",
"{  c #34813E",
"}  c #308946",
"|  c #96801F",
" . c #9F803E",
".. c #8B883E",
"X. c #A9813B",
"o. c #BA8433",
"O. c #AF9328",
"+. c #FDB81F",
"@. c #C48736",
"#. c #C79835",
"$. c #D99C34",
"%. c #CC962B",
"&. c #EE9E38",
"*. c #C6A42A",
"=. c #D9AA2A",
"-. c #D7B127",
";. c #C8A636",
":. c #DBAD3A",
">. c #DBB33D",
",. c #EDA42C",
"<. c #EEAA2D",
"1. c #FBAA25",
"2. c #F6AB2C",
"3. c #F8AB2A",
"4. c #F8A425",
"5. c #EDB92D",
"6. c #FBB325",
"7. c #F4BB25",
"8. c #FBBC26",
"9. c #F9B12A",
"0. c #FABA2A",
"q. c #F5B72C",
"w. c #E8A735",
"e. c #E7B934",
"r. c #F9B931",
"t. c #F0A631",
"y. c #FDCD1B",
"u. c #F9CB1B",
"i. c #FBD01C",
"p. c #EECA2A",
"a. c #E5C72C",
"s. c #FCC426",
"d. c #F6CD24",
"f. c #FDCD23",
"g. c #F5C02B",
"h. c #FCC329",
"j. c #FCCB29",
"k. c #F5C929",
"l. c #F5D124",
"z. c #E9C037",
"x. c #9D8645",
"c. c #96815E",
"v. c #8F8142",
"b. c #A28C47",
"n. c #99876D",
"m. c #8B8174",
"M. c #89847B",
"N. c #94887A",
"B. c #AC8366",
"V. c #A9836A",
"C. c #A6876A",
"Z. c #B48969",
"A. c #B78969",
"S. c #BF8D71",
"D. c #B29372",
"F. c #B99378",
"G. c #B09071",
"H. c #CBA043",
"J. c #C58B67",
"K. c #CA9873",
"L. c #D49B72",
"P. c #E39D74",
"I. c #D7A47B",
"U. c #C2A07E",
"Y. c #E5AA7D",
"T. c #E9A87A",
"R. c #F6AD7D",
"E. c #F8AD78",
"W. c #F6B17E",
"Q. c #F9B27D",
"!. c #0C5F87",
"~. c #1B5C8A",
"^. c #165B89",
"/. c #1A5C94",
"(. c #165F96",
"). c #095E97",
"_. c #245786",
"`. c #18628A",
"'. c #05659E",
"]. c #0A649E",
"[. c #086799",
"{. c #116396",
"}. c #116299",
"|. c #096089",
" X c #0367A3",
".X c #0068A6",
"XX c #0267AA",
"oX c #0069AA",
"OX c #0A64A2",
"+X c #5A7585",
"@X c #72808F",
"#X c #7E949A",
"$X c #958B82",
"%X c #99948A",
"&X c #8D8D8F",
"*X c #A18B88",
"=X c #9CA09E",
"-X c #C29B84",
";X c #C8A587",
":X c #D6A785",
">X c #DDB38E",
",X c #DDB591",
"<X c #E5AD85",
"1X c #E8B488",
"2X c #F5B483",
"3X c #F9B582",
"4X c #F5B98D",
"5X c #FABB8C",
"6X c #F9B888",
"7X c #ECBC93",
"8X c #E7B991",
"9X c #F4BC94",
"0X c #FBBD93",
"qX c #FCC28E",
"wX c #F2C18E",
"eX c #F5C395",
"rX c #FBC295",
"tX c #F6C49A",
"yX c #F9C29A",
"uX c #EDC097",
"iX c None",
/* pixels */
"iXiXiXiXiXiXiXiXiXiXiXiXiXiXiXiXiXiXiXiXiXiXiXiXiXiXiXiXiXiXiXiXiXiXiXiXiXiXiXiXiXiXiXiXiXiXiXiXiXiXiXiXiXiXiXiXiXiXiX",
"iXiXiXiXiXiXiXiXiXiXiXiXiXiXiXiXiXiXiXiXiXiXiXiXiXiXiXiXiXiXiXiXiXiXiXiXiXiXiXiXiXiXiXiXiXiXiXiXiXiXiXiXiXiXiXiXiXiXiX",
"iXiXiXiXiXiXiXiXiXiXiXiXiXiXiXiXiXiXiXiXiXiXiXiXiXiXiXiXiXiXiXiXiXiXiXiXiXiXiXiXM.n.D.F.C.( M.iXiXiXiXiXiXiXiXiXiXiXiX",
"iXiXiXiXiXiXiXiXiXiXiXiXiXiXiXiXiXiXiXiXiXiXiXiXiXiXiXiXiXiXiXiXiXiXiXiXiXiXM.;XtXrXrXyXtXrXeX,X( iXiXiXiXiXiXiXiXiXiX",
"iXiXiXiXiXiXiXiXiXiXiXiXiXiXiXiXiXiXiXiXiXiXiXiXiXiXiXiXiXiXiXiXiXiXiXiXiXi eXrXrXrXrXrXrXrXrXrXrX-XiXiXiXiXiXiXiXiXiX",
"iXiXiXiXiXiXiXiXiXiXiXiXiXiXiXiXiXiXiXiXiXiXiXiXiXiXiXiXiXiXiXiXiXiXiXiXW tXqXrXrXrXrXrXrXrXrXrXrXrX,XiXiXiXiXiXiXiXiX",
"iXiXiXiXiXiXiXiXiXiXiXiXiXiXiXiXiXiXiXiXiXiXiXiXiXiXiXiXiXiXiXiXiXiXiXiXtXrXrXrXrXrXrXrXrXrXeXrXrXrXrXD.iXiXiXiXiXiXiX",
"iXiXiXiXiXiXiXiXiXiXiXiXiXiXiXiXiXiXiXiXiXiXiXiXiXiXiXiXiXiXiXiXiXiXiXV.rXrXrXrXrXrXrXrXyXrXeXrXrXrXrXyX` iXiXiXiXiXiX",
"iXiXiXiXiXiXiXiXiXiXiXiXiXiXiXiXiXiXiXiXiXiXiXiXiXiXiXiXiXiXiXiXiXiXiX4XeXrXrXrXrXrXyXrXrXuXE Y.rXeXeXrXC.iXiXiXiXiXiX",
"iXiXiXiXiXiXiXiXiXiXiXiXiXiXiXiXiXiXiXiXiXiXiXiXiXiXiXiXiXiXiXiXiXiXi 5XqXrXrXrXrXrXrXrXrXrXeXrXeXeXeX:X8XiXiXiXiXiXiX",
"iXiXiXiXiXiXiXiXiXiXiXiXiXiXiXiXiXiXiXiXiXiXiXiXiXiXiXiXiXiXiXiXiXiX' 3X5X1X:XrXrXrXrXrXrXrXrXrXrXrXrXI.rXiXiXiXiXiXiX",
"iXiXiXiXiXiXiXiXiXiXiXiXiXiXiXiXiXiXiXiXiXiXiXiXiXiXiXiXiXiXiXiXiXiX] Q.5XB.uXrXrXrXrXrXrX8XrXrXrXrXrXyXeXiXiXiXiXiXiX",
"iXiXiXiXiXiXiXiXiXiXiXiXiXiXiXiXiXiXiXiXiXiXiXiXiXiXiXiXiXiXiXiXiXiXW 3X5XE I.rXyXrX0XyXrXp >XrXrXrXyXtXqXiXiXiXiXiXiX",
"iXiXiXiXiXiXiXiXiXiXiXiXiXiXiXiXiXiXiXiXiXiXiXiXiXiXiXiXiXiXiXiXiXiX[ 2X5XrXrXrX0XrX0X0XrXB.tXrXrXeXm.tXuXiXiXiXiXiXiX",
"iXiXiXiXiXiXiXiXiXiXiXiXiXiXiXiXiXiXiXiXiXiXiXiXiXiXiXiXiXiXiXiXiXiXiX2X5X0XrXrXrXyX0X0X0X0XyX8X7XeXq eXU.iXiXiXiXiXiX",
"iXiXiXiXiXiXiXiXiXiXiXiXiXiXiXiXiXiXiXiXiXiXiXiXiXiXiXiXiXiXiXiXiXiXiX' 2X5XrXrXrX0X0X0X0XrXrX9X4XrX0XrX_ iXiXiXiXiXiX",
"iXiXiXiXiXiXiXiXiXiXiXiXiXiXiXiXiXiXiXiXiXiXiXiXiXiXiXiXiXiXN.iXiXiXiXiXT.5X5XrXrX0X0X9X9XtXrXyX0X0X9X9XiXiXiXiXiXiXiX",
"iXiXiXiXiXiXiXiXiXiXiXiXiXiXiXiXiXiXiXiXiXiXiXiXiXiXiXiX! a.j.x.iXiXiXiXW E.6X5X5X0X0X0X9X>XyXrX0X0X0X] iXiXiXiXiXiXiX",
"iXiXiXiXiXiXiXiXiXiXiXiXiXiXiXiXiXiXiXiXiXiXiXiXiX` G.- f.f.f.y.z.c.iXiXiXc.R.3X5X0X0XrXeXK.~ 1X0X0X:XiXiXiXiXiXiXiXiX",
"iXiXiXiXiXiXiXiXiXiXiXiXiXiXiXiXiXiXiXiXiXiXiXiXn.rXS.d.j.f.f.f.y.i.>.n.iXiXT R.2X6X5X5X5X5X5X6X4X<XiXiXiXiXm.iXiXiXiX",
"iXiXiXiXiXiXiXiXiXiXiXiXiXiXiXiXiXiXiXiXiXiXiX;XeXqXH f.y.f.f.f.i.j.i.j.v.@ + <XE.E.Q.W.2X2XQ.Q.A.iXiXiXiXW 8Xw iXiXiX",
"iXiXiXiXiXiXiXiXiXiXiXiXiXiXiXiXiXiXiXiXiX$X8XqXrXqX;.y.f.f.f.f.f.i.d.O.=.P j f L.E.J.T.R.T.A._ iXiXiXiXK.0 0XQ iXiXiX",
"iXiXiXiXiXiXiXiXiXiXiXiXiXiXiXiXiXiXiXiX$X7XqXeX3XY.:.s.f.f.f.f.d.d.P d.f.f.e.a C g L.iXiXiXiXiXiXiXiXiX1XqXyXyXT iXiX",
"iXiXiXiXiXiXiXiXiXiXiXiXiXiXiXiXiXiXiXiX8XrXrX3XK.=X$.0.8.s.s.s.5.#.y.d.f.l.f.d.D M B i iXiXiXiXiXiXiXiX1XrXrX3X] iXiX",
"iXiXiXiXiXiXiXiXiXiXiXiXiXiXiXiXiXiX%X;X0X5XR.Q iXiXJ 1.q.9.9.w.*.j.f.-.f.f.f.f.y.P d e iXiXiXiXiXiXiX%X9X5X6X] iXiXiX",
"iXiXiXiXiXiXiXiXiXiXiXiXiXiXiXiX_ 0 rXyX3XV.iXiXiXiXiXH.<.t.w.*.f.f.f.O.f.f.f.f.f.i.k.b.iXiXiXiXiXiX_ rX0XT.M.iXiXiXiX",
"iXiXiXiXiXiXiXiXiXiXiXiXiXiXiXiXV.* * 9XZ.iXiXiXiXiXiXiXiXiXO.h.f.f.f.p.=.h.j.f.f.f.f.f.l.;.c.iXiXG.rXyX5X_ iXiXiXiXiX",
"iXiXiXiXiXiXiXiXiXiXiXiXiXiXiXiX~ ^ ;XP.J.iXiXiXiXiXiXiXiXx.r.s.f.f.f.y.F 9.h.j.y.f.f.f.f.j.k. .-XeXrX0XZ.iXiXiXiXiXiX",
"iXiXiXiXiXiXiXiXiXiXiXiXiXiXiXiXiX>X% ) iXiXiXiXiXiXiXiXN.8.k.f.f.f.d.l.*.t.6.g.f.f.f.f.f.w.D.A.0XrXrXY.iXiXiXiXiXiXiX",
"iXiXiXiXiXiXiXiXiXiXiXiXiXiXiXiXiXiXiXiXiXiXiXiXiXiXiXiX:.h.f.f.f.f.f.f.k.H 2.0.s.f.f.y.>.L.rXrXrXrXQ.[ iXiXiXiXiXiXiX",
"iXiXiXiXiXiXiXiXiXiXiXiXiXiXiXiXiXiXiXiXiXiXiXiXiXiX~ q.h.f.f.f.f.f.f.f.d.P 4.3.s.f.s.5./ Q.qXrX0X3X' iXiXiXiXiXiXiXiX",
"iXiXiXiXiXiXiXiXiXiXiXiXiXiXiXiXiXiXiXiXiXiXiXiX*X#.s.s.s.f.f.f.f.f.f.f.d.k.%.3.8.s.6.F = T.Q.2X2XV.iXiXiXiXiXiXiXiXiX",
"iXiXiXiXiXiXiXiXiXiXiXiXiXiXiXiXiXiXiXiXiXiXiX! 3.0.h.f.f.f.f.f.f.f.i.f.f.i.F 4.2.1.@.,.$.%X( A.' iXiXiXiXiXiXiXiXiXiX",
"iXiXiXiXiXiXiXiXiXiXiXiXiXiXiXiXiXiXiXiXiXiXX.9.0.h.f.f.f.f.f.f.f.f.f.f.f.f.P 2.4.4.L I iXiXiXiXiXiXiXiXiXiXiXiXiXiXiX",
"iXiXiXiXiXiXiXiXiXiXiXiXiXiXiXiXiXiXiXiXiXI 9.0.j.f.i.f.f.f.f.f.f.f.f.f.f.h.p.o.t.X m.iXiXiXiXiXiXiXiXiXiXiXiXiXiXiXiX",
"iXiXiXiXiXiXiXiXiXiXiXiXiXiXiXiXiXiXiXiXX.3.0.h.f.f.f.f.f.f.f.f.f.f.f.f.f.f.f.-.( iXiXiXiXiXiXiXiXiXiXiXiXiXiXiXiXiXiX",
"iXiXiXiXiXiXiXiXiXiXiXiXiXiXiXiXiXiXiXI 4.3.8.f.f.f.f.f.f.f.f.f.f.f.f.f.f.f.f.y.iXiXiXiXiXiXiXiXiXiXiXiXiXiXiXiXiXiXiX",
"iXiXiXiXiXiXiXiXiXiXiXiXiXiXiXiXiXiXiXiX@.1.0.s.f.f.f.f.f.f.f.f.f.f.f.f.f.f.y.a.iXiXiXiXiXiXiXiXiXiXiXiXiXiXiXiXiXiXiX",
"iXiXiXiXiXiXiXiX7 > iXiXiXiXiXiXiXiXiXt _.= 2.6.f.f.f.f.f.f.f.f.f.f.f.f.f.f.f.b.iXiXiXiXiXiXiXiXiXiXiXiXiXiXiXiXiXiXiX",
"iXiXiXiXiXiXiX< X m M Y iXiXiXiX+X7 `.{.[.}.% 1.r.h.j.f.f.f.f.f.f.f.f.f.f.f.f.iXiXiXiXiXiXiXiXiXiXiXiXiXiXiXiXiXiXiXiX",
"iXiXiXiXiXu 2 f N S B g iXiXiX4 /.}.'. X.X XXX> 2.6.s.k.j.f.f.f.f.f.f.f.f.y.H.iXiXiXiXiXiXiXiXiXiXiXiXiXiXiXiXiXiXiXiX",
"iXiXiXiX3 X b M V B U 8.;.iXiX6 (.OX.XoX.X.X'.oX, %.r.0.u.f.f.f.f.f.f.f.s.s.v.iXiXiXiXiXiXiXiXiXiXiXiXiXiXiXiXiXiXiXiX",
"iXiXiX1 d v N s l d 2.8.u.F J ~.}.'..X.X.X.X.X.X X.X- q.0.h.h.s.h.j.f.h.s.5.iXiXiXiXiXiXiXiXiXiXiXiXiXiXiXiXiXiXiXiXiX",
"iXiX> o v A S # # l s w.k.7.T ^.}. X.X.XoX.X.X.X.X.X.X!.& H.6.8.+.8.=.J > !.[.7 iXiXiXiXiXiXiXiXiXiXiXiXiXiXiXiXiXiXiX",
"iXiX: z N Z k O } + M H 1.G tX2 }.'..X.X.X.XoXXX.X.XoX X'. X X, , |..XoX XoX'..XOXy iXiXiXiXiXiXiXiXiXiXiXiXiXiXiXiXiX",
"iXiX9 j v N M o %XiXiXiX&.F.rXq }.'.oX.X.X.X.X.XoX.X.X.XoX).'..XoX.X.X.X.XoX.X.X.XoX, iXiXiXiXiXiXiXiXiXiXiXiXiXiXiXiX",
"iXiXiXX j c h iXiXiXiXiXR G :XI.^. X.X.X.XXXXX.X.X.X.XoX, 1 {.'..X.X.X.X.XoX.XoXoX.XoX, iXiXiXiXiXiXiXiXiXiXiXiXiXiXiX",
"iXiXiXiXiXiXiXiXiXiXiXiXiXiXiX` r .X X.X.X.X.X.X.X.X X8 iXiX5 {.'. XoX.X.X.X.X.XoX X.X`.iXiXiXiXiXiXiXiXiXiXiXiXiXiXiX",
"iXiXiXiXiXiXiXiXiXiXiXiXiXiXiXiXiX6  X.X.X.X.X.X.X`.&XiXiXiXiX7 /.]. X.X.X.X.X.X.X.X X+XiXiXiXiXiXiXiXiXiXiXiXiXiXiXiX",
"iXiXiXiXiXiXiXiXiXiXiXiXiXiXiXiXiXiX^..X.X.X X[.+XiXiXiXiXiXiXiX5 /.'.oXoX.XoXoX.X.X5 iXiXiXiXiXiXiXiXiXiXiXiXiXiXiXiX",
"iXiXiXiXiXiXiXiXiXiXiXiXiXiXiXiXiXiXiX,  X`.+XiXiXiXiXiXiXiXiXiXiX5 /.}..XoX X XOX: n.iXiXiXiXiXiXiXiXY iXiXiXiXiXiXiX",
"iXiXiXiXiXiXiXiXiXiXiXiXiXiXiXiXiXiXiXiXiXiXiXiXiXiXiXiXiXiXiXiXiX&X_./.'.OX'.OX1 uXrX_ x.$XiXiXiXiXM Z C p iXiXiXiXiX",
"iXiXiXiXiXiXiXiXiXiXiXiXiXiXiXiXiXiXiXiXiXiXiXiXiXiXiXiXiXiXiXiXiXiXu _._._._.y J.3XrXwX;.v.$XiXiXh A N Z ; iXiXiXiXiX",
"iXiXiXiXiXiXiXiXiXiXiXiXiXiXiXiXiXiXiXiXiXiXiXiXiXiXiXiXiXiXiXiXiXiXiXr _.4 iXiXiX~ E.K u.p.l l }   A S z , iXiXiXiXiX",
"iXiXiXiXiXiXiXiXiXiXiXiXiXiXiXiXiXiXiXiXiXiXiXiXiXiXiXiXiXiXiXiXiXiXiXiXiXiXiXiXiXE L r.s.f.H g $ a Z b : @XiXiXiXiXiX",
"iXiXiXiXiXiXiXiXiXiXiXiXiXiXiXiXiXiXiXiXiXiXiXiXiXiXiXiXiXiXiXiXiXiXiXiXiXiXiXiXiXiX/ @.3.6.o.M f n m ; t iXiXiXiXiXiX",
"iXiXiXiXiXiXiXiXiXiXiXiXiXiXiXiXiXiXiXiXiXiXiXiXiXiXiXiXiXiXiXiXiXiXiXiXiXiXiXiXiXiXiXiXo.&.a N Z n . t iXiXiXiXiXiXiX",
"iXiXiXiXiXiXiXiXiXiXiXiXiXiXiXiXiXiXiXiXiXiXiXiXiXiXiXiXiXiXiXiXiXiXiXiXiXiXiXiXiXiXiXiXiXd z M v o r iXiXiXiXiXiXiXiX",
"iXiXiXiXiXiXiXiXiXiXiXiXiXiXiXiXiXiXiXiXiXiXiXiXiXiXiXiXiXiXiXiXiXiXiXiXiXiXiXiXiXiXiXiXiXq k j + 1 iXiXiXiXiXiXiXiXiX",
"iXiXiXiXiXiXiXiXiXiXiXiXiXiXiXiXiXiXiXiXiXiXiXiXiXiXiXiXiXiXiXiXiXiXiXiXiXiXiXiXiXiXiXiXiXiXY . 4 iXiXiXiXiXiXiXiXiXiX",
"iXiXiXiXiXiXiXiXiXiXiXiXiXiXiXiXiXiXiXiXiXiXiXiXiXiXiXiXiXiXiXiXiXiXiXiXiXiXiXiXiXiXiXiXiXiXiXiXiXiXiXiXiXiXiXiXiXiXiX",
"iXiXiXiXiXiXiXiXiXiXiXiXiXiXiXiXiXiXiXiXiXiXiXiXiXiXiXiXiXiXiXiXiXiXiXiXiXiXiXiXiXiXiXiXiXiXiXiXiXiXiXiXiXiXiXiXiXiXiX",
"iXiXiXiXiXiXiXiXiXiXiXiXiXiXiXiXiXiXiXiXiXiXiXiXiXiXiXiXiXiXiXiXiXiXiXiXiXiXiXiXiXiXiXiXiXiXiXiXiXiXiXiXiXiXiXiXiXiXiX",
"iXiXiXiXiXiXiXiXiXiXiXiXiXiXiXiXiXiXiXiXiXiXiXiXiXiXiXiXiXiXiXiXiXiXiXiXiXiXiXiXiXiXiXiXiXiXiXiXiXiXiXiXiXiXiXiXiXiXiX"
};
