/* XPM */
static char *result[] = {
/* columns rows colors chars-per-pixel */
"64 54 249 2 ",
"   c #771A07",
".  c #5E2A11",
"X  c #345817",
"o  c #2D5210",
"O  c #39661A",
"+  c #385C26",
"@  c #3C6526",
"#  c #48521F",
"$  c #71460D",
"%  c #486A0A",
"&  c #4D7805",
"*  c #527D06",
"=  c #47681A",
"-  c #557818",
";  c #467318",
":  c #6A7613",
">  c #446B29",
",  c #497729",
"<  c #4F7B2F",
"1  c #647B4D",
"2  c #840100",
"3  c #8B0101",
"4  c #850C05",
"5  c #930302",
"6  c #9D0302",
"7  c #900903",
"8  c #99170A",
"9  c #A40302",
"0  c #AB0404",
"q  c #AD0B0A",
"w  c #A90907",
"e  c #B30404",
"r  c #BC0403",
"t  c #B20907",
"y  c #B40C0B",
"u  c #B90C0A",
"i  c #BD0A06",
"p  c #AB150C",
"a  c #B4110E",
"s  c #BB110E",
"d  c #BB1A0F",
"f  c #AE1913",
"g  c #B51312",
"h  c #BA1413",
"j  c #BC1B1A",
"k  c #B71916",
"l  c #893311",
"z  c #B8271B",
"x  c #A93013",
"c  c #BE2723",
"v  c #BB3726",
"b  c #B63E30",
"n  c #C40302",
"m  c #CC0302",
"M  c #C60905",
"N  c #C80C0A",
"B  c #D30302",
"V  c #DB0202",
"C  c #D30A06",
"Z  c #D30D0B",
"A  c #DE0B08",
"S  c #C9150D",
"D  c #D8150C",
"F  c #C41916",
"G  c #C31C1A",
"H  c #CB1D1A",
"J  c #C61612",
"K  c #D61916",
"L  c #E40402",
"P  c #EB0402",
"I  c #EB0C0B",
"U  c #E50908",
"Y  c #F30402",
"T  c #FE0302",
"R  c #FE0B0B",
"E  c #F80B06",
"W  c #E6120D",
"Q  c #FA110E",
"!  c #E91716",
"~  c #FD1413",
"^  c #FC1B1B",
"/  c #F91715",
"(  c #FA0F10",
")  c #C52519",
"_  c #D82317",
"`  c #CC3016",
"'  c #FA251B",
"]  c #EF2D1C",
"[  c #CA2C2A",
"{  c #C72725",
"}  c #D82926",
"|  c #CA312E",
" . c #C43826",
".. c #D6362C",
"X. c #C73834",
"o. c #D73835",
"O. c #E62B25",
"+. c #FD2423",
"@. c #FD2B2B",
"#. c #F82826",
"$. c #E9352A",
"%. c #FD332C",
"&. c #F33127",
"*. c #E83B36",
"=. c #FE3431",
"-. c #FD3A36",
";. c #FD3C3B",
":. c #F63939",
">. c #8F5010",
",. c #A3441D",
"<. c #886509",
"1. c #BB4725",
"2. c #B25629",
"3. c #836A23",
"4. c #B96C37",
"5. c #C94829",
"6. c #D8482A",
"7. c #C85437",
"8. c #D65332",
"9. c #E5473E",
"0. c #F9443B",
"q. c #F34830",
"w. c #D16436",
"e. c #E56E37",
"r. c #C5491C",
"t. c #F93E43",
"y. c #BA6F46",
"u. c #BE5F40",
"i. c #CD504C",
"p. c #E74C47",
"a. c #FE4442",
"s. c #FE4C4A",
"d. c #FA4846",
"f. c #FD534C",
"g. c #FE5553",
"h. c #FB5D5B",
"j. c #FC5855",
"k. c #E95956",
"l. c #D16D47",
"z. c #FE635C",
"x. c #EF6F51",
"c. c #D57568",
"v. c #E96A68",
"b. c #FE6463",
"n. c #FF6B65",
"m. c #FC6A6A",
"M. c #FE716D",
"N. c #FE7574",
"B. c #FE7B7C",
"V. c #FB7774",
"C. c #F27371",
"Z. c #5C850B",
"A. c #5C8B0A",
"S. c #588707",
"D. c #588814",
"F. c #5E9109",
"G. c #628D0C",
"H. c #668C08",
"J. c #65920B",
"K. c #6C9B0C",
"L. c #69960B",
"P. c #638817",
"I. c #6A9814",
"U. c #739F18",
"Y. c #779114",
"T. c #72A40D",
"R. c #73A312",
"E. c #76A91A",
"W. c #7BB312",
"Q. c #69A214",
"!. c #598829",
"~. c #57873A",
"^. c #528F24",
"/. c #658D26",
"(. c #66982A",
"). c #628F34",
"_. c #669738",
"`. c #729B33",
"'. c #6AA42A",
"]. c #74A72B",
"[. c #6CA736",
"{. c #76A736",
"}. c #6DB933",
"|. c #77C136",
" X c #7B906B",
".X c #619842",
"XX c #83BA17",
"oX c #87BA39",
"OX c #85B72E",
"+X c #9D8D34",
"@X c #87C118",
"#X c #92C730",
"$X c #88BA44",
"%X c #8CB04B",
"&X c #8CAA7C",
"*X c #DA884A",
"=X c #D58B54",
"-X c #E28A57",
";X c #EA8B4E",
":X c #DB9364",
">X c #FF817B",
",X c #E58E68",
"<X c #E9B578",
"1X c #EFAE76",
"2X c #ECAC5D",
"3X c #95C747",
"4X c #8ED049",
"5X c #96E14E",
"6X c #B0D479",
"7X c #B3E778",
"8X c #F8C37A",
"9X c #FF7F83",
"0X c #9DB390",
"qX c #FE8482",
"wX c #FF8C8B",
"eX c #FF8887",
"rX c #FF918D",
"tX c #FE9394",
"yX c #FF9A9B",
"uX c #FD9997",
"iX c #F19291",
"pX c #FDA49C",
"aX c #EEAF95",
"sX c #FF9EA1",
"dX c #FFA4A5",
"fX c #FFACAD",
"gX c #FFA8A5",
"hX c #FFBABC",
"jX c #FEB4B6",
"kX c #F8AFA9",
"lX c #B9D983",
"zX c #BEE98A",
"xX c #C8E391",
"cX c #D8E7BA",
"vX c #EFCB9D",
"bX c #D0D7C9",
"nX c #FEC7C9",
"mX c #FCD7D7",
"MX c #EEC7C6",
"NX c #DCE5CD",
"BX c #E6ECDA",
"VX c #E4EECC",
"CX c #FCE6E6",
"ZX c #F4F7EA",
"AX c #FDF5F4",
"SX c #FFFEFE",
"DX c #F6F8F3",
"FX c #EDF3E8",
"GX c None",
/* pixels */
"GXGXGXGXGXGXGXGXGXGXGXGXGXGXGXGXGXGXGXGXGXGXGXGXGXGXGXGXGXGXGXGXGXGXGXGXGXGXGXGXGXGXGXGXGXGXGXGXGXGXGXGXGXGXGXGXGXGXGXGXGXGXGXGX",
"GXGXGXGXGXGXGXGXGXGXGXGXGXGXGXGXGXGXGXGXGXGXGXGXGXGXGXGXGXGXGXGXGXGXSXSXGXGXGXGXGXGXGXGXGXGXGXGXGXGXGXGXGXGXGXGXGXGXGXGXGXGXGXGX",
"GXGXGXGXGXGXGXGXGXGXGXGXGXGXGXGXGXGXGXGXGXGXGXGXGXGXGXGXGXGXGXGXGXGXSXoXSXGXGXGXGXGXGXGXGXGXGXGXGXGXGXGXGXGXGXGXGXGXGXGXGXGXGXGX",
"GXGXGXGXGXGXGXGXGXGXGXGXGXGXGXGXGXGXGXGXGXGXGXGXGXGXGXGXGXGXGXGXGXGXSXU.K.%XDXSXGXGXGXGXGXGXGXDX XDXGXGXGXGXGXGXGXGXGXGXGXGXGXGX",
"GXGXGXGXGXGXGXGXGXGXGXGXGXGXGXGXGXGXGXGXGXGXGXGXGXGXGXGXGXGXGXGXGXGXSX%XJ.K.R.%XVXSXGXGXGXGXBX+ + bXGXGXGXGXGXGXGXGXGXGXGXGXGXGX",
"GXGXGXGXGXGXGXGXGXGXGXGXGXGXGXGXGXGXGXGXGXGXGXGXGXGXGXGXGXSXAXCXmXmXmXcXI.K.L.R.E.#XlXSXSXSX.X@ @ 0XGXGXGXGXGXGXGXGXGXGXGXGXGXGX",
"GXGXGXGXGXGXGXGXGXGXGXGXGXGXGXGXGXGXGXGXGXGXGXGXGXGXSXnX;.T R T T T T T +XK.K.G.K.W.oX#X6XSX[.@ O &XGXGXGXGXGXGXGXGXGXGXGXGXGXGX",
"GXGXGXGXGXGXGXGXGXGXGXGXGXGXGXGXGXGXGXGXGXGXGXGXSXnX^ x.q.T Y R T T E l.;X2.~.!., /.'.E.'.(.$X, O &XGXGXGXGXGXGXGXGXGXGXGXGXGXGX",
"GXGXGXGXGXGXGXGXGXGXGXGXGXGXGXGXGXGXGXGXGXGXSXjX~ T T T T ] :Xe.R T T T T Y T F = X o /.E./.I.!., 0XGXGXGXGXGXGXGXGXGXGXGXGXGXGX",
"GXGXGXGXGXGXGXGXGXGXGXGXGXGXGXGXGXGXGXGXGXAX@.' z.T R T T E E T T T T T T T T T T D # + < oX{.].).NXGXGXGXGXGXGXGXGXGXGXGXGXGXGX",
"GXGXGXGXGXGXGXGXGXGXGXGXGXGXGXGXGXGXGXGXmXR Q ' T $.q.T T Y Y ' %.9XR T T E <.H.J.K.L.- o `.$XoX4XFXGXGXGXGXGXGXGXGXGXGXGXGXGXGX",
"GXGXGXGXGXGXGXGXGXGXGXGXGXGXGXGXGXGXSXpXT T T T / 6.&.^ T T P  .r.E T T <.Z.H.S.L.L.K.K.Q.D.`.{.3XlXSXGXGXGXGXGXGXGXGXGXGXGXGXGX",
"GXGXGXGXGXGXGXGXGXGXGXGXGXGXGXGXGXSXb.R R T T f.z.z.n.n.@.T T T T E >.P.P.G.S.H.F.J.G.T.K.J.E.!.{.3XNXSXGXGXGXGXGXGXGXDXBXVXGXGX",
"GXGXGXGXGXGXGXGXGXGXGXGXGXGXGXGXGXkX' x.R ;.=.n.%.&.' yXR ^ T T T L L m u l P.S.H.J.H.A.D.T.F.R.{.oX(.VXGXGXGXGXGXSXDX7X5X#XSXGX",
"GXGXGXGXGXGXGXGXGXGXGXGXGXGXGXGX9XR ' 6.2X&.s.d.C <X-XR g.0.T L :.N.+.d.! n r w : S.L.K.F.D.T.J.E.3X/.!.DXGXGXSXSXzX5X4X'.^.VXGX",
"GXGXGXGXGXGXGXGXGXGXGXGXGXGXGXfXR T T T E ~ g.s.=.~ #.s.b.+.B ,X1XN.N.M.~ Y V r e w Y.S.A.R.S.K.U.$X(.D.`.SXZX7X5X4X}.^.o bXGXGX",
"GXGXGXGXGXGXGXGXGXGXGXGXGXGXCXT T T / M.rXB.z.rXyXdXpXrXh.s.I ! 9.B.rXf.T T P V n 9 w x L.H.G.I.J.{.3X`.].5X5X4X}.^.O 1 SXGXGXGX",
"GXGXGXGXGXGXGXGXGXGXGXGXGXSX~ j.E t.M.d.pX0.kXpXm.h.;.>XqXN.>XyXpXrX0.E T P m m B n 9 9 9 >.L.L.J.U.{.].}.}.].^.O o NXSXGXGXGXGX",
"GXGXGXGXGXGXGXGXGXGXGXGXGXh.q.;X+.s.&.x./ rXn.wXh.#.N.wXn.-.%.@.' ^ T T Y M ) z L P m e 0 8 : (.I./.|., ^.^.= X  XSXGXGXGXGXGXGX",
"GXGXGXGXGXGXGXGXGXGXGXGXnXT E T ;.^ _ S -.qXV.C 8.e.m.fXg.=.' R Q T T T P w.4.C T Y B M 3./.(.(.!.< ).= o X = ZXSXGXGXGXGXGXGXGX",
"GXGXGXGXGXGXGXGXGXGXGXSX( T ~ g.t.R ( b.gX;.0.P ` D ^ M.eXm.~ A k.jXj.T Y L Y T T L n (.'._.(._.).).< {.X ).= BXSXGXGXGXGXGXGXGX",
"GXGXGXGXGXGXGXGXGXGXSXs.R b.h.0.tXtXsXyXpXB.R R ^ a.M.wXuX:.C n D ^ hX' T T T T L m ].{.[._._._._.!.> , < ].= %XSXGXGXGXGXGXGXGX",
"GXGXGXGXGXGXGXGXGXGXjX_ t.:. ./ yXg.I ! tXtXeXwXjXdXhXnXtXI m 1X*XC.b.%.T Y L m r +X{.[.{._.~.).< , + = /.{././.SXGXGXGXGXGXGXGX",
"GXGXGXGXGXGXGXGXGXSX$.` rXx.v m.t.B e r m.fXjXhXnXnXnXnXyXY P U f.hXB.T T M e 0 p [.[.{._._..X~.< > > % % {.oX/.DXGXGXGXGXGXGXGX",
"GXGXGXGXGXGXGXGXSX-.I E j.U ;.tX~ ..<X) tXhXjXjXt.K ! fXnX:.P T T f.Q T L i e r.3._.[._._.~.~.< > @ = % % ; {.`.cXGXGXGXGXGXGXGX",
"GXGXGXGXGXGXGXGXjXR T R =.g.uXyXh.s.Q B.fXhXsX} r n V ^ nXnXdXB.f.~ T T L e 2X2._._..X.X~.< @ + + . : & % % !.U.xXGXGXGXGXGXGXGX",
"GXGXGXGXGXGXGXmX~ R U +.9Xm.d.pXdXdXdXyXjXjXwX! ..8Xv.b.hXnXjXC.z.g.~ T P r M ,.~.< ~., @ + #   2 2 G.% S.S.D.E.xXGXGXGXGXGXGXGX",
"GXGXGXGXGXGXSX/ _ t.r -.h.V B j.dXB.#.^ 9XfXtX#.` v.mXN.fXB.L L B } s.R Y B i 5 3 2 2 2 4 3 3 2 3 2 A.* F.S.I.T.#XSXGXGXGXGXGXGX",
"GXGXGXGXGXSXx.x.$.8.6.B.U m $.0.V.U V V ! eXtXg.^ n.V.>XuXU I I m n >X+.P B r 9 9 6 5 3 l 9 5 6 5 3 A.Z.S.S.U.T.XXxXGXGXGXGXGXGX",
"GXGXGXGXSXV.R R tX{ +.B.L <X_ wX! V V V U B.b.b.f.j.M.qXV.U I D <X` uX-.L M n 0 e 0 9 9 e w 9 6 5 5 S.S.S.S.].K.XX@XSXGXGXGXGXGX",
"GXGXGXGXCX' E ( @.T d.eXp.p.g.N.Y U 9.-X' tXg.=.Q / #.d.n.I W D ' #.rX/ B B r 9 0 0 9 9 9 9 6 9 6 3 & A.S.A.E.L.T.XX3XSXGXGXGXGX",
"GXGXGXSXq.^ ( / ' ( t.fXuXM.N.+.T -.} %.tX#.Y U m m m V %.z.%.+.a.>X&.A C m 9 ;X0 e 9 9 6 6 6 9 5 7 S.S.A.F.E.G.K.W.@XZXGXGXGXGX",
"GXGXGXaX=Xg.M ^ U B #.tXqX&.I ^ E =.eXwX;.P P m n n _ B U %.g.g.f.O.D C M i :X,.p.e 0 9 9 9 9 6 5 7 * S.Z.H.>.E.G.T.W.6XGXGXGXGX",
"GXGXSX&.@.p.5.I n n B U C m B L #.-.^ Y Y P U Z M vX .pXQ ' ! W W W Z M M i w D *.t 0 t l.x 9 6 5   * & * * 6 R.I.K.W.#XGXGXGXGX",
"GXGXhX' N.7.I A r 8.A B n n N V P L V B m V P &.;.z.yXb.W Z C C A S M M i i M M u t 0 0 =X0 9 6 5 $ & & * $ q Y.Z.L.W.XXSXGXGXGX",
"GXSXl.] wX+.U A l.D V m n  .` P L n n r S n B I ;.;.^ W n r r r l.r.V M u u u t y y y 9 e 0 9 9 3 * * & : J } BXR.Z.R.OXSXGXGXGX",
"GXCX..S 0.! A eXwXP B B 9.6.E P m r r aXw.! V m m B C C n n e w 2.] P M u u u u y y u u w 0 9 5 4 & % >.H O.p.SX].G.I.3XGXGXGXGX",
"GXuXO.*XI m B ! A m m t.wXt.E B B m :Xl.dX%.V m m Z N N Z n e r K =.! u t t f w u u y y q y w 3 % $ f G O.O.mXGXNXL.I.cXGXGXGXGX",
"GXC.k.0.A J S V e r m W t.U B B V E yXyX:.L m n N i l.8.J r n M n n t t t f 4.t u y y u h g 8 l h H H H O.$.SXGXSXY.L.SXGXGXGXGX",
"GX7.6./ U l.I n e 8.r n n r r m V I I L V n n n S r.5.&.Z e 0 0 0 y y y 0 1. .) y y s J s e s H O.H H O.&.C.GXGXGXBXK.SXGXGXGXGX",
"GXl._ W ! s.V n l.) M r r u r n n m n r e r r r N :.=.! n 0 t t q y y q 0 0 { y y u J c 7.w F } G y F $.$.SXGXGXGXSX%XGXGXGXGXGX",
"GXv._ 6.D C i C m.Z e 0 :Xl.r r e e e 5.w.0 e e e M M r w t q -X1.0 0 q t u g s J J y u.e G { } :Xt e { uXGXGXGXGXGXZXGXGXGXGXGX",
"GX,XH k.Z y z e e e e m x.d.r e 0 0 :X2.p.r 9 9 0 9 9 9 0 q w x } e t y y g g h J t 9 9 h G } c q 0 a k SXGXGXGXGXGXGXGXGXGXGXGX",
"GXnXp.! Z d 2.F q u 0 e n n e 0 0 e n K n e 0 9 9 9 0 9 0 9 9 o.H t a h F h e g h g a h H { G q 0 y w CXGXGXGXGXGXGXGXGXGXGXGXGX",
"GXSX_ K S S *.a 0 c.r.q e 0 w w 9 0 0 9 9 w 0 w -X5.9 9 w w 0 q e a g J v 4.0 k j [ o.o...} { H G c i.GXGXGXGXGXGXGXGXGXGXGXGXGX",
"GXGXv.J 8.) g p q J o.e 0 0 a f w.q w w w 9 9 p q O.0 9 9 w w 0 y g g y q e 0 j [ o.7.y u [ [ { s c SXGXGXGXGXGXGXGXGXGXGXGXGXGX",
"GXGXSXO.J H f 2.-X0 t w 9 0 v y.| q w w s G F 9 0 0 9 w 0 q 7.a y g h g h g k { | X.b e { [ p e X.SXGXGXGXGXGXGXGXGXGXGXGXGXGXGX",
"GXGXGXSX*.H v k h g q q w 9 0 0 e 0 w H O... .h 0 0 0 t a u.f e g k j [ [ [ | o.[ 0 0 { | k g c.SXGXGXGXGXGXGXGXGXGXGXGXGXGXGXGX",
"GXGXGXGXSXiXv z k p w p :X=Xg h h j H H q f 0 0 q h G G a t 0 q g c | c.c h y j [ { [ [ j g MXGXGXGXGXGXGXGXGXGXGXGXGXGXGXGXGXGX",
"GXGXGXGXGXGXCXi.z k l.f w q h G G j z  .q p u j ..} { X.[ o.{ h [ o.q q y c [ | | h g g i.SXGXGXGXGXGXGXGXGXGXGXGXGXGXGXGXGXGXGX",
"GXGXGXGXGXGXGXGXSXaXb z q g j h g w f g h { { } h 9 f f q y c o.t.X.| [ [ { | q 0 y i.AXGXGXGXGXGXGXGXGXGXGXGXGXGXGXGXGXGXGXGXGX",
"GXGXGXGXGXGXGXGXGXGXGXSXAXMXiXv.k.k.v.v.v.C.v.i.| ) ) { | X.o.| c q y j [ c i.aXAXSXGXGXGXGXGXGXGXGXGXGXGXGXGXGXGXGXGXGXGXGXGXGX",
"GXGXGXGXGXGXGXGXGXGXGXGXGXGXGXGXGXGXGXGXGXGXGXGXSXSXSXSXAXCXCXmXCXAXAXSXSXGXGXGXGXGXGXGXGXGXGXGXGXGXGXGXGXGXGXGXGXGXGXGXGXGXGXGX",
"GXGXGXGXGXGXGXGXGXGXGXGXGXGXGXGXGXGXGXGXGXGXGXGXGXGXGXGXGXGXGXGXGXGXGXGXGXGXGXGXGXGXGXGXGXGXGXGXGXGXGXGXGXGXGXGXGXGXGXGXGXGXGXGX"
};
