/* XPM */
static char *result[] = {
/* columns rows colors chars-per-pixel */
"64 79 237 2 ",
"   c #293809",
".  c #35350C",
"X  c #79390E",
"o  c #264C06",
"O  c #264C0A",
"+  c #2C4C0C",
"@  c #284309",
"#  c #3B4D0B",
"$  c #384708",
"%  c #2C540A",
"&  c #2E5909",
"*  c #2A5307",
"=  c #34550B",
"-  c #3B530B",
";  c #335B0B",
":  c #3C5D0C",
">  c #3F5907",
",  c #355311",
"<  c #3C5B12",
"1  c #395616",
"2  c #324A13",
"3  c #36630C",
"4  c #3C640D",
"5  c #3D690D",
"6  c #3D6312",
"7  c #44480A",
"8  c #42540D",
"9  c #435C0A",
"0  c #475A08",
"q  c #444A11",
"w  c #435B14",
"e  c #4B5D1C",
"r  c #485715",
"t  c #535B1A",
"y  c #565B17",
"u  c #5D4A0F",
"i  c #675A0D",
"p  c #735814",
"a  c #44640D",
"s  c #4B630B",
"d  c #446A0E",
"f  c #4D6B0D",
"g  c #536C0D",
"h  c #58690C",
"j  c #4C710F",
"k  c #53730E",
"l  c #59760F",
"z  c #446412",
"x  c #4B6414",
"c  c #456B12",
"v  c #4C6C13",
"b  c #4B6A1A",
"n  c #4B6519",
"m  c #546513",
"M  c #536C13",
"N  c #5A6C13",
"B  c #54651A",
"V  c #556C1A",
"C  c #5C6D1A",
"Z  c #5B641A",
"A  c #4C7213",
"S  c #4F7319",
"D  c #547413",
"F  c #5A7414",
"G  c #557913",
"H  c #5A7916",
"J  c #55731A",
"K  c #5B7419",
"L  c #547919",
"P  c #5B7B1A",
"I  c #6E7C0E",
"U  c #636D1B",
"Y  c #666C15",
"T  c #627515",
"R  c #647A15",
"E  c #63731C",
"W  c #647C1B",
"Q  c #6A7E1B",
"!  c #687718",
"~  c #727D19",
"^  c #716F0F",
"/  c #614F24",
"(  c #486827",
")  c #596725",
"_  c #4E7228",
"`  c #557827",
"'  c #517432",
"]  c #646926",
"[  c #657A26",
"{  c #777929",
"}  c #6B7933",
"|  c #647C4A",
" . c #97170D",
".. c #8F1C11",
"X. c #AA1D11",
"o. c #A81A0E",
"O. c #993512",
"+. c #AC2414",
"@. c #B52314",
"#. c #BC2415",
"$. c #BD2A15",
"%. c #BC2B1B",
"&. c #B32A1B",
"*. c #BB3717",
"=. c #BD360D",
"-. c #BB3222",
";. c #B82F21",
":. c #C8270D",
">. c #C42A15",
",. c #C32C19",
"<. c #C92A18",
"1. c #DB2C1E",
"2. c #D82B19",
"3. c #C5311C",
"4. c #CB311B",
"5. c #C73416",
"6. c #D43315",
"7. c #D7341B",
"8. c #E33D1D",
"9. c #E33718",
"0. c #E02C15",
"q. c #DC2E23",
"w. c #C53623",
"e. c #DC3322",
"r. c #DC3922",
"t. c #D53824",
"y. c #CF2C20",
"u. c #E33922",
"i. c #E02C20",
"p. c #865110",
"a. c #B5611B",
"s. c #896D15",
"d. c #CB4E16",
"f. c #DA4829",
"g. c #D45531",
"h. c #D65C2D",
"j. c #DF6749",
"k. c #5E811C",
"l. c #67820E",
"z. c #64811C",
"x. c #6B831C",
"c. c #6C8515",
"v. c #73851D",
"b. c #748B1C",
"n. c #778D1C",
"m. c #7B951B",
"M. c #7D991C",
"N. c #79941A",
"B. c #5B8432",
"V. c #658422",
"C. c #6C8422",
"Z. c #6B8628",
"A. c #758624",
"S. c #748B24",
"D. c #748D2B",
"F. c #7B8D2B",
"G. c #788926",
"H. c #7C9324",
"J. c #7C922C",
"K. c #7B9728",
"L. c #7C9332",
"P. c #6C8432",
"I. c #778A55",
"U. c #7C9755",
"Y. c #779166",
"T. c #849A19",
"R. c #92900D",
"E. c #A79C1B",
"W. c #8AA219",
"Q. c #91A61E",
"!. c #A6A316",
"~. c #B3A817",
"^. c #B3B513",
"/. c #828A28",
"(. c #83942D",
"). c #849B2C",
"_. c #87972A",
"`. c #838A38",
"'. c #839532",
"]. c #869A33",
"[. c #8A9B35",
"{. c #8E9C3B",
"}. c #89953A",
"|. c #929E3C",
" X c #979A32",
".X c #A49E38",
"XX c #8BA526",
"oX c #93AB25",
"OX c #9AB22B",
"+X c #8CA235",
"@X c #8EA23B",
"#X c #88A434",
"$X c #93A33C",
"%X c #97A639",
"&X c #A5BA38",
"*X c #ABAB2D",
"=X c #C7B72D",
"-X c #BFC113",
";X c #CDC520",
":X c #949C45",
">X c #8EA843",
",X c #93A041",
"<X c #9AAA41",
"1X c #97A947",
"2X c #9FB14F",
"3X c #A3AD43",
"4X c #B5B252",
"5X c #ABB350",
"6X c #99A978",
"7X c #8CA468",
"8X c #9FAA6F",
"9X c #CCA34A",
"0X c #B3CB54",
"qX c #B0C84D",
"wX c #D4C54F",
"eX c #A9BA93",
"rX c #9AA784",
"tX c #B3C39E",
"yX c #ACC693",
"uX c #B8C9A7",
"iX c #BFD2B8",
"pX c #BBCFAF",
"aX c #CCCF91",
"sX c #E0DB84",
"dX c #E0E296",
"fX c #CDDABD",
"gX c #C4D4B7",
"hX c #D2E1BB",
"jX c #C9D9C4",
"kX c #CDDED0",
"lX c #D6E3CA",
"zX c #D9E7DA",
"xX c #D9F1CE",
"cX c #E4EDD8",
"vX c #E1E9CC",
"bX c #E4F0E4",
"nX c None",
/* pixels */
"nXnXnXnXnXnXnXnXnXnXnXnXnXnXnXnXnXnXnXnXnXnXnXnXnXnXnXnXnXnXnXnXnXM F J M P nXnXnXnXnXnXnXnXnXnXnXnXnXnXnXnXnXnXnXnXnXnXnXnXnXnX",
"nXnXnXnXnXnXnXnXnXnXnXnXnXnXnXnXnXT.M.T.W.T.m.c.nXnXnXnXnXZ.L D G K G G D F K V J nXnXnXnXnXnXnXnXnXnXnXnXnXnXnXnXnXnXnXnXnXnXnX",
"nXnXnXnXnXnXnXnXnXnXnXnXnXnXH.M.nXnXnXnXnXnXnXXXN.nXnXnXnXZ.L G G G J D D D D J ` J [ nXnXnXnXnXnXnXnXnXnXnXnXnXnXnXnXnXnXnXnXnX",
"nXnXnXnXnXnXnXnXnXnXnXnXnXM.nXnXnXnXnXnXnXnXnXnXnXoXnXnXnXJ.H k D M D f v M b n w e nXnXnXnXnXnXnXnXnXnXnXnXnXnXnXnXnXnXnXnXnXnX",
"nXnXnXnXnXnXnXnXnXnXnX#XN.nXnXnXnXnXnXnXnXnXnXnXnXnXoXnXnXL.G k j k g v z < , , ( nXnXnXnXnXnXnXnXnXnXnXnXnXnXnXnXnXnXnXnXnXnXnX",
"nXnXnXe B B nXnXnXnXnXN.nXnXnXnXnXnXnXnXnXnXnXnXnXnXnXoXnXZ.l g f W s > # e ) nXnXnXnXnXnXnXnXnXnXnXnXnXnXnXnXnXnXnXnXnXnXnXnXnX",
"nXnXnXv D v b nXnXnXK.nXnXnXnXnXnXnXnXnXnXnXnXnXnXnXnXnXW.[ R f h s 0 r } nXnXnXnXnXnXnXnXnXnXnXnXnXnXnXnXnXnXnXnXnXnXnXnXnXnXnX",
"nXnXnXG V L L F nX#XnXnXnXnXnXnXnXnXnXnXnXnXnXnXnXnXnXnXOXnXT s J 0 8 nXnXnXnXnXnXnXnXnXnXnXnXnXnXnXnXnXnXnXnXnXnXnXnXnXnXnXnXnX",
"nX# w k g s h R.*X).nXnXnXB V nXnXnXnXnXnXnXnXnXnXnXnXnXnXW.J 0 > # { nXnXnXnXnXnXnXnXnXnXnXnXnXnXnXnXnXnXnXnXnXnXnXnXnXnXnXnXnX",
". # D D 0 i d.d.9X Xl.$ 9 V V nXnXnXnXnXnXnXnXnXnXnXnXnXnXOX0 9 r # nXnXnXnXnXnXnXnXnXnXnXnXnXnXnXnXnXnXnXnXnXnXnXnXnXnXnXnXnXnX",
"nX1 s 7 7 :.6.2.6.O.N.b.t 9 / nXnXnXnXnXnXnXnXnXnXnXnXnXnXnXI J 8 V nXnXnXnXnXnXnXnXnXnXnXnXnXnXnXnXnXnXnXnXnXnXnXnXnXnXnXnXnXnX",
"nXnXnX  *.9.8.0.0.:.X Z 5.q U nXnXnXnXnXnXnXnXnXnXnXnXnXnXnXoX/.nXnXnXnXnXnXnXnXnXnXnXnXnXnXnXnXnXnXnXnXnXnXnXnXnXnXnXnXnXnXnXnX",
"nXnXnXnX5.7.6.f.7.<.$.f.>.nXnXnXnXnXnXnXnXnXnXnXnXnXnXnXnXnXOX$XnXnXnXnXnXnXnXnXnXP.V.nX[ nXnXnXnXnXnXnXnXnXnXnXnXnXnXnXnXnXnXnX",
"nXnXnXnX5.,.5.g.4.$.>.4.3.g.nXnXnXnXnXnXnXnXnXnXnXnXnXnXnXnXnXnXnXnXnXnXnXnXnXnXnXnXv A 5 6 c b nXnXnXnXnXnXnXnXnXnXnXnXnXnXnXnX",
"nXnXnXnXnX4.3.t.4.&.%.w.w.nXnXnXnXnXnXnXnXnXnXnXnXnXnXnXnXnXnXl.nXnXnXnXnXnXnXT h M f 4 c 5 3 5 z nXnXnXnXnXnXnXnXnXnXnXnXnXnXnX",
"nXnXnXnXnX3.>.7.w.%.&.&.-.nXnXnXnXnXnXnXnXnXnXnXnXnXnXnXnXnXnXm.nXnXnXnXnXnX(.A.D D A d 5 3 3 3 6 nXnXnXnXnXnXnXnXe nXnXnXnXnXnX",
"nXnXnXnXnX$.,.3.,.%.+.&.;.nXnXnXnXnXnXnXnXnXnXnXnXnXnXnXnXnXnXXXnXnXnXnXnXnXR x.k.k.A 5 j 3 3 3 3 < nXnXnXnXnXnXnXw w nXnXnXnXnX",
"nXnXnXnXnX3.#.,.,.%.@.%.nXnXnXnXnXnXnXnXnXnXnXnXnXnXnXnXnXnXnXoXnXnXnXnX#X%XS.c.R G G A 5 5 3 ; ; 1 nXnXnXnXnXnXnXn w nXnXnXnXnX",
"nXnXnXnXnXnX,.>.#.@.$.w.nXnXnXnXnXnXnXnXnXnXnXnXnXnXnXnXnXnXnXOXnXnXnXnXD.(.].+X$X].Z.k.A 5 5 3 = % nXnXnXnXnXnXr 9 @ nXnXnXnXnX",
"nXnXnXnXnXnXnX>.#.+.%.nXnXnXnXnXnXnXnXnXnXnXnXnXnXnXnXnXnXnXnXnXnXnXnXnXnX@X@X).K.C.k.k.k.j d b B n.M.M.M.nXnX4 7 . nX# nXnXnXnX",
"nXnXnXnXnXnXnX3.%.@.3.nXnXnXnXnXnXnXnXnXnXnXnXnXnXnXnXnXnXnXnXnXnXnXnXnXnX%X$XS.[ D G A A A A H nXnXnXnXnXnXK.i p s.7 7 b S L L ",
"nXnXnXnXnXnXnXnX3.*.nXnXnXnXnXnXnXnXnXnXnXnXnXnXnXnXnXnXnXnXnXnXnXnXnXnXnXnX<XH.b.K.].x.A D A z.nXnXnXnXnXr h.u.8.u.u.a.n V S S ",
"nXnXnXnXnXnXnXnXnXnXnXnXnXnXnXnXnXnXnXnXnXnXnXnXnXnXnXnXnXnXnXnXnXnXnXnXnXnX_./.$X'.F M j G D.Z.nXnXnXnXnXu 7.r.9.i.u.f.h.e nXnX",
"nXnXnXnXnXnXnXnXnXnXnXnXnXnXnXnXnXnXnXnXnXnXnXnXnXnXnXnXnXnXnXnXnXnXnXnXnXnXnX/.h B N W H x.K.'.nXnXnXnXnXf.r.e.1.q.r.y.f.{ nXnX",
"nXnXnXnXnXnXnXnXnXnXnXnXnXnXnXnXnXnXnXnXnXnXnXnXnXnXnXnXnXnXnXnXnXnXnXnXnXnXnXh T T Q J.G.J.{.nXnXnXnX3XnXf.4.1.1.1.y.;.w.j.nXnX",
"nXnXnXnXnXnXnXnXnXnXnXnXnXnXnXnXnXnXnXnXnXnXnXnXnXnXnXnXnXnXnXnXnXnXnXnXnXnXnXXXn.v.x.F./.|.`.nXnXnX3XnX# f.e.e.1.q.q.;.w.g.nXnX",
"nXnXnXnXnXnXnXnXnXnXnXnXnXnXnXnXnXnXnXnXnXnXnXnXnXnXnXnXnXnXnXnXnXnXnXnXnXnXnX{ b.$X|.{.,XnXnXnXnXnXnXnX. O.r.<.e.1.i.t.w.g.nXnX",
"nXnXnXnXnXnXnXnXnXnXnXnXnXnXnXnXnXnXnXnXnXnXnXnXnXnXnXnXnXnXnXnXnXnXnXnXnXnXnXnXOXnXnXnXnXnXnXnXnXnXnXnX. . r.t.<.q.i.r.y.j.nXnX",
"nXnXnXnXnXnXnXnXnXnXnXnXnXnXnXnXnXnXnXnXnXnXnXnXnXnXnXnXnXnXnXnXnXnXnXnXnXnXnXT.nXnXnXnXnXnXnXnXnXnXnXnXnXnXnX4.t.1.i.q.<.nXnXnX",
"nXnXnXnXnXnXnXnXnXnXnXnXnXnXnXnXnXnXnXnXnXnXnXnXnXnXnXnXnXM K F G K D H nXnXnX+XnXnXnXnXnXnXnXnXnXnXnXnXnXnXnXnX7.1.2.9.t.nXnXnX",
"nXnXnXnXnXnXnXnXnXnXnXnXnXnXnXnXnXnXnXnXnXnXnXnXnXnXZ.L L D K L K G D H F J M D nXnXnXnXnXnXnXnXnXnXnXnXnXnXnXnXnX8.0.2.f.nXnXnX",
"nXnXnXnXnXnXnXnXnXnXnXnXnXnXnXnXnXnXnXnXnXnXnXnXnXnXP.P G D G K J M D J V D K J L ] nXnXnXnXnXnXnXnXnXnXnXnXnXnXnXnX9.8.u.nXnXnX",
"nXnXnXnXnXnXnXnXnXnXnXnXnXnXm.M.nXnXnXXXM.nXnXnXnXnXD.z.G k G D D D v M D J J ) e nXnXnXnXnXnXnXnXnXnXnXnXnXnXnXnXnXnXf.nXnXnXnX",
"nXnXnXnXnXnXnXnXnXnXnXnXnXH.nXnXnXnXnXnXnXoXnXnXnXnXD.G D G D j D v v b x < 1 1 nXnXnXnXnXnXnXnXnXnXnXnXnXnXnXnXnXnXnXnXnXnXnXnX",
"nXnXnXnXnXnXnXnXnXnXnXnXN.nXnXnXnXnXnXnXnXnXOXnXnXnXJ.G k D g D j s : 1 1 1 w nXnXnXnXnXnXnXnXnXnXnXnXnXnXnXnXnXnXnXnXnXnXnXnXnX",
"nXnXnXnXnXnXnXnXnXB nXK.V V N F F F F g nXnXnXQ.nXnXC.D k f D f a = # w ) nXnXnXnXnXnXnXnXnXnXnXnXnXnXnXnXnXnXnXnXnXnXnXnXnXnXnX",
"nXnXnXnXnXx x W M M Z.M g D f j H k k l k nXnXnXnXnXx.D s f D s - q ] T.nXnXnXnXnXnXnXnXnXnXnXnXnXnXnXnXnXnXnXnXnXnXnXnXnXnXnXnX",
"nXnXnXnXnXv K j S S M D F D K l k l l l x.V.nXnXXXnXC.h s R 0 0 e :XnX&XnXB.' Y.jX( ' nXnXnXnXnXnXnXnXnXnXnXnXnXnXnXnXnXnXnXnXnX",
"nXnXnXnXnXnX$ $ h D N J K l D h k k l l.x.L.1XnXnXnXZ.g 9 0 0 8 nXnXnX0X' eXgXaX4XjXnXB.nXnXnXnXnXnXnXnXnXnXnXnXnXnXnXnXnXnXnXnX",
"nXnXnXnXnXnX5.:.=.^ K K F H D l g g j H C.}.1XnXnXnX[ s C 0 ` N K K c.nXlXfXvX*X~.4XgXjXnXnXnXnXnXnXnXnXnXnXnXnXnXnXnXnXnXnXnXnX",
"nXnXnXnXnX5.6.6.:.p.G G H D F F f s s 0 J.{.,X2XnXXXx 9 - # 8 ` D D J I.bXaX~.^.-X=XpXgXnXnXnXnXnXnXnXnXnXnXnXnXnXnXnXnXnXnXnXnX",
"nXnXnXnX%.$.:.4.$.D K K F k h l s l Q x.[ A.2X5XnXnXnX- 0 # 9 < z M v I.bXaX~.^.;X4XjXiXnXnXnXnXnXnXnXnXnXnXnXnXnXnXnXnXnXnXnXnX",
"nXnXnXnX>.@.#.w.O.F K F F g l F g s 0 9 = y V >XnXnXnXm r [ nXnXt : v = jXxXdXdXsXvXkXnXnXnXnXnXnXnXnXnXnXnXnXnXnXnXnXnXnXnXnXnX",
"nXnXnX,.#.<.@.p k F F D h N m s s 0 0 # # # y C.F.nXnXG.nXnXnXnXnX) > 9 ( eXhXjXlXjXgXK M M F nXnXnXnXnXnXnXnXnXnXnXnXnXnXnXnXnX",
"nXnXnX$.@.o. .p.W H l N m h s s 0 8 # 8 = x nXnXnXnXnX/.nXnXnXnXnXT.`.9 ( # U.I.uXuXI.7Xk F K K nXnXnXnXnXnXnXnXnXnXnXnXnXnXnXnX",
"nXnXnX#.@.o.....N M N h N s # 8 7 `.1XnXs nXnXnXnXQ.nX` @ O , , nXoXnXy 9 9 nXnXuXgXgXgX` P.P J R P nXnXnXnXnXnXnXnXnXnXnXnXnXnX",
"nXnX3.X. .o. .C U N m N m 8 $ y :XnXF.}.,XD.V.K v nXJ @ @ O % < 6 &XnXs # , nXnXjX8XeXgXtXtXjX7XF F nXnXnXnXnXnXnXnXnXnXnXnXnXnX",
"nXnX&.+.X.X...U U N N m 8 $ ] nX|.|.{.@XS.H z.S d w 2 @ O O % ; 6 w nXnXnXk.zXgX1XE.*X4XfXkXbXM N N m nXnXnXnXnXnXnXnXnXnXnXnXnX",
"nXnXnXnXnXnXZ h N C Z 8 8 ] nX:X{.[.G.x.D.D c D < = % o o o * & 3 Z.nX2   7XuX.X!.~.~.4XbXjXuXq Z U Y nXnXnXnXnXnXnXnXnXnXnXnXnX",
"nXnXnXnXnXnXY T E Y r q Z :X|.}.F.'.A.P D j d a 3 : % o o * & & 3 b < O ( cXtX.XE.^.~.wXiXjXY.) r y E nXnXnXnXnXnXnXnXnXnXnXnXnX",
"nXnXnXnXnXnXY U U t # y nXnX|.A.F.}.F K k z G d d : % % o * & & 3 6 , O   zXjX:XE.!.R.aXtX| }.nXnXnXnXnXnXnXnXnXnXnXnXnXnXnXnXnX",
"nXnXnXnXnXnXU ! r r t nXnX'.[.v.J.F W F v P d c c d ; = ; ; 3 3 6 >X6 @   uXgXrXaXE.:XrXzXrXG.nXnXnXnXnXnXnXnXnXnXnXnXnXnXnXnXnX",
"nXnXnXnXnXnX! t U nXnXnX`.$Xx.Q T F N B x.P d L L v 3 < v 3 3 3 6 ` 6 ; + @   2 gXgXtXyXxXK nXnXnXnXnXnXnXnXnXnXnXnXnXnXnXnXnXnX",
"nXnXnXnXnXnX] nXnXnXnXnXnXH.G.~ T B N '.].v f V.P z A 4 c 3 3 5 b ` _ 6 : 9 w t I.fXhXxXgXnXnXnXnXnXnXnXnXnXnXnXnXnXnXnXnXnXnXnX",
"nXnXnXnXnXnXG.nXnXnXnXnXv.m.m.! U N %XD.D F W D.Z.v D v b c c A nX>XnXv f M J N { ) :XpXiXnXnXnXnXnXnXnXnXnXnXnXnXnXnXnXnXnXnXnX",
"nXnXnXnXnXnXnXnXnXnXnXnX{ ).l.m R H.H.c.K S.Z.L.C.v z.S A d A A D 0XnXnXR F T x.D.D.nXnXnXnXnXnXnXnXnXnXnXnXnXnXnXnXnXnXnXnXnXnX",
"nXnXnXnXnXnXnXnXnXnXnXnXnXnXI I [._.).S.Q ].$X[.W H W D v D D D ).0XnXnXF.nXJ.F %XD.nXnXnXnXnXnXnXnXnXnXnXnXnXnXnXnXnXnXnXnXnXnX",
"nXnXnXnXnXnXnXnXnXnXnXnXnXnXnXnX/.H.XXJ.F.'.<XK.R F D h v x.nX[ x.0XnXnXnXnXnXnXnXnXnXnXnXnXnXnXnXnXnXnXnXnXnXnXnXnXnXnXnXnXnXnX",
"nXnXnXnXnXnXnXnXnXnXnXnXnXnXnXnXnX$X%X@X).%X(.x.R Q ! F T (.nXnXnX0XnXi nXnXnXnXnXnXnXnXnXnXnXnXnXnXnXnXnXnXnXnXnXnXnXnXnXnXnXnX",
"nXnXnXnXnXnXnXnXnXnXnXnXnXnXnXnXnXnX.X#X<X#X).H.Q R nXnX! XXnXnXnXqXnX^ nXnXnXnXnXnXnXnXnXnXnXnXnXnXnXnXnXnXnXnXnXnXnXnXnXnXnXnX",
"nXnXnXnXnXnXnXnXnXnXnXnXnXnXnXnXnXnXnXnXD.#XXX$XT _.nXnXnXXXi nXnXqXnXnXnXnXnXnXnXnXnXnXnXnXnXnXnXnXnXnXnXnXnXnXnXnXnXnXnXnXnXnX",
"nXnXnXnXnXnXnXnXnXnXnXnXnXnXnXnXnXnXnXnXA.@X%XnX) nXnXnXnXnXi nXnX&XnXnXnXnXnXnXnXnXnXnXnXnXnXnXnXnXnXnXnXnXnXnXnXnXnXnXnXnXnXnX",
"nXnXnXnXnXnXnXnXnXnXnXnXnXnXnXnXnXnXnXnXnXnXnXnXnXnXnXnXnXnXnXnXnX&XnXV.L.{.[.|.|.|.|.nXnXnXnXnXnXnXnXnXnXnXnXnXnXnXnXnXnXnXnXnX",
"nXnXnXnXnXnXnXnXnXnXnXnXnXnXnXnXnXnXnXnXnXnXnXnXnXnXnX2 + 2 nXR.nXN.P k.k.z.S.F.(.'.}.|.<X:XnXnXnXnXnXnXnXnXnXnXnXnXnXnXnXnXnXnX",
"nXnXnXnXnXnXnXnXnXnXnXnXnXnXnXnXnXnXnXnXnXnXnXnXnXnX, + O O + C V k A D L V.S.x.x.'.F.F.{.}.nXnXnXnXnXnXnXnXnXnXnXnXnXnXnXnXnXnX",
"nXnXnXnXnXnXnXnXnXnXnXnXnXnXnXnXnXnXnXnXnXnXnXnXnX1 , % O % % , : z f L G j D D z.[.F.F.(.{.|.nXnXnXnXnXnXnXnXnXnXnXnXnXnXnXnXnX",
"nXnXnXnXnXnXnXnXnXnXnXnXnXnXnXnXnXnXnXnXnXnXnXnXw , % O * * * ; ; 5 c c j j D D [ ! x./.v.b.<XnXnXnXnXnXnXnXnXnXnXnXnXnXnXnXnXnX",
"nXnXnXnXnXnXnXnXnXnXnXnXnXnXnXnXnXnXnXnXnXnXnXnX: ; * O o o = & * 5 G A j k.D M M F T F n.G.G.v.nXnXnXnXnXnXnXnXnXnXnXnXnXnXnXnX",
"nXnXnXnXnXnXnXnXnXnXnXnXnXnXnXnXnXnXnXnXnXnXnXnX, % & O % o & & ; c A L A f [.F.T B Z ! ! n.b.).nXnXnXnXnXnXnXnXnXnXnXnXnXnXnXnX",
"nXnXnXnXnXnXnXnXnXnXnXnXnXnXnXnXnXnXnXnXnXnXnXnXz & * * & ; ; & ; a L P G H j '.x.].T N h N N.nXnXnXnXnXnXnXnXnXnXnXnXnXnXnXnXnX",
"nXnXnXnXnXnXnXnXnXnXnXnXnXnXnXnXnXnXnXnXnXnXnXnX( nX& % & & z & ; 4 P Z.V.z.G M H.b.+X~ ~ h I nXnXnXnXnXnXnXnXnXnXnXnXnXnXnXnXnX",
"nXnXnXnXnXnXnXnXnXnXnXnXnXnXnXnXnXnXnXnXnXnXnXnXnX1 & & = & ; , ; a v D.L.z.F.P x.K._.n.nXnXnXnXnXnXnXnXnXnXnXnXnXnXnXnXnXnXnXnX",
"nXnXnXnXnXnXnXnXnXnXnXnXnXnXnXnXnXnXnXnXnXnXnXnXnXn ; ; ; & = a < M f C.@X[.L.A.S.H._._.{ nXnXnXnXnXnXnXnXnXnXnXnXnXnXnXnXnXnXnX",
"nXnXnXnXnXnXnXnXnXnXnXnXnXnXnXnXnXnXnXnXnXnXnXnXnXP.( c ; : = a a H D K D.<X[.J.A.n.%XnXnXnXnXnXnXnXnXnXnXnXnXnXnXnXnXnXnXnXnXnX",
"nXnXnXnXnXnXnXnXnXnXnXnXnXnXnXnXnXnXnXnXnXnXnXnXnXnXnXz : : 9 : a x F l R (.).[.J.).%XY nXnXnXnXnXnXnXnXnXnXnXnXnXnXnXnXnXnXnXnX",
"nXnXnXnXnXnXnXnXnXnXnXnXnXnXnXnXnXnXnXnXnXnXnXnXnXnXnXD.v nXM 9 m s h T z.x.(.K.].>X[.nXnXnXnXnXnXnXnXnXnXnXnXnXnXnXnXnXnXnXnXnX",
"nXnXnXnXnXnXnXnXnXnXnXnXnXnXnXnXnXnXnXnXnXnXnXnXnXnXnXnXnXnXnXE r nXx.N K F.b.S.x.nXnXnXnXnXnXnXnXnXnXnXnXnXnXnXnXnXnXnXnXnXnXnX",
"nXnXnXnXnXnXnXnXnXnXnXnXnXnXnXnXnXnXnXnXnXnXnXnXnXnXnXnXnXnXnXnXC nXnXA.N nX#X#XZ.nXnXnXnXnXnXnXnXnXnXnXnXnXnXnXnXnXnXnXnXnXnXnX",
"nXnXnXnXnXnXnXnXnXnXnXnXnXnXnXnXnXnXnXnXnXnXnXnXnXnXnXnXnXnXnXnXnXnXnXnXy nXnXnXnXnXnXnXnXnXnXnXnXnXnXnXnXnXnXnXnXnXnXnXnXnXnXnX"
};
