/* XPM */
static char *_d907dd5c9a8420eee61f934196fd2f5UxOII2w5lB5Nc9qk[] = {
/* columns rows colors chars-per-pixel */
"64 64 247 2 ",
"   c None",
".  c #563516",
"X  c #74330A",
"o  c #771207",
"O  c #365A17",
"+  c #2F5213",
"@  c #3B6619",
"#  c #3D741B",
"$  c #385822",
"%  c #3C6626",
"&  c #3B7322",
"*  c #534C18",
"=  c #6F500F",
"-  c #476B0A",
";  c #4E7806",
":  c #557A09",
">  c #476C1A",
",  c #497417",
"<  c #537B1C",
"1  c #516906",
"2  c #66760F",
"3  c #466D28",
"4  c #497628",
"5  c #537D26",
"6  c #50702F",
"7  c #787727",
"8  c #4C5023",
"9  c #8A0201",
"0  c #840201",
"q  c #930201",
"w  c #9B0302",
"e  c #911605",
"r  c #A40302",
"t  c #AC0404",
"y  c #AD0807",
"u  c #AD0A09",
"i  c #A80808",
"p  c #B30403",
"a  c #BC0403",
"s  c #B20907",
"d  c #B40C0B",
"f  c #BA0D0B",
"g  c #BC0907",
"h  c #A9140A",
"j  c #B5110E",
"k  c #BB120E",
"l  c #B61F0B",
"z  c #AD1B11",
"x  c #B51412",
"c  c #BB1412",
"v  c #BC1C1B",
"b  c #B81A16",
"n  c #912E0B",
"m  c #AB2614",
"M  c #B82619",
"N  c #A93615",
"B  c #B8371B",
"V  c #B6290E",
"C  c #BC2623",
"Z  c #BB3925",
"A  c #C40302",
"S  c #CB0302",
"D  c #C30905",
"F  c #CC0A06",
"G  c #CC0B09",
"H  c #C40D0B",
"J  c #D40302",
"K  c #DB0302",
"L  c #D30A06",
"P  c #D40D0B",
"I  c #DB0A06",
"U  c #C6140C",
"Y  c #D9150B",
"T  c #C31B16",
"R  c #C41C1B",
"E  c #CB1D1A",
"W  c #C61611",
"Q  c #D61917",
"!  c #E40403",
"~  c #EB0302",
"^  c #E40C0B",
"/  c #EB0C0B",
"(  c #E50907",
")  c #F30402",
"_  c #FE0302",
"`  c #FD0A06",
"'  c #F50E0C",
"]  c #FE0C0B",
"[  c #F80A07",
"{  c #E7130C",
"}  c #F9110E",
"|  c #FD0F11",
" . c #E81915",
".. c #F51513",
"X. c #FD1413",
"o. c #FF1B15",
"O. c #FE1C1B",
"+. c #F71A1A",
"@. c #C4211D",
"#. c #CA271B",
"$. c #D5261A",
"%. c #C8371B",
"&. c #D62F11",
"*. c #E8251A",
"=. c #FC2319",
"-. c #E3341A",
";. c #C52522",
":. c #CB2D2A",
">. c #C72825",
",. c #D92A26",
"<. c #C83629",
"1. c #D6352C",
"2. c #CC3531",
"3. c #D63733",
"4. c #E72A26",
"5. c #FE2323",
"6. c #FE2C2B",
"7. c #F52825",
"8. c #E6362A",
"9. c #FB342A",
"0. c #E73433",
"q. c #FE3533",
"w. c #FE3A35",
"e. c #FE3C3A",
"r. c #F43A38",
"t. c #F72F31",
"y. c #8F580D",
"u. c #A14E0E",
"i. c #8A6B10",
"p. c #B9472B",
"a. c #BB5834",
"s. c #B64C32",
"d. c #9B6326",
"f. c #C94825",
"g. c #D74527",
"h. c #CB572D",
"j. c #C84833",
"k. c #DA4435",
"l. c #D45834",
"z. c #EA4837",
"x. c #FB4639",
"c. c #EC4C2E",
"v. c #C8683B",
"b. c #D36439",
"n. c #E76B33",
"m. c #FE3E40",
"M. c #BD5C45",
"N. c #BF6641",
"B. c #D55545",
"V. c #FE4443",
"C. c #FE4D4B",
"Z. c #F84846",
"A. c #F8544A",
"S. c #FD5553",
"D. c #FD5D5B",
"F. c #FA5956",
"G. c #EE524B",
"H. c #CB6746",
"J. c #D46847",
"K. c #D87547",
"L. c #CC7A49",
"P. c #FC625E",
"I. c #EE7551",
"U. c #FE6362",
"Y. c #FE6A64",
"T. c #FF6B6A",
"R. c #F46665",
"E. c #FD746D",
"W. c #FF7473",
"Q. c #FF7D7B",
"!. c #FC7776",
"~. c #F1716A",
"^. c #558406",
"/. c #5C8A0B",
"(. c #598808",
"). c #598618",
"_. c #5D900A",
"`. c #628D0B",
"'. c #66880C",
"]. c #64930B",
"[. c #6A950D",
"{. c #6B9A0C",
"}. c #679809",
"|. c #719A0D",
" X c #638B18",
".X c #6B9815",
"XX c #739B16",
"oX c #75870F",
"OX c #74A60E",
"+X c #73A213",
"@X c #76A918",
"#X c #75AA12",
"$X c #5C8926",
"%X c #598836",
"&X c #548F2B",
"*X c #668C29",
"=X c #67972A",
"-X c #759C29",
";X c #628C32",
":X c #689836",
">X c #719C34",
",X c #5BA12B",
"<X c #69A628",
"1X c #76A527",
"2X c #6DA437",
"3X c #76A838",
"4X c #79B936",
"5X c #6EB431",
"6X c #7BCF3E",
"7X c #609440",
"8X c #83BC16",
"9X c #85B83A",
"0X c #8AB334",
"qX c #B38A38",
"wX c #8AC31A",
"eX c #90C833",
"rX c #88BA43",
"tX c #D69153",
"yX c #E78D58",
"uX c #E99A65",
"iX c #FC817D",
"pX c #EC8B6E",
"aX c #EBA676",
"sX c #F0AA76",
"dX c #E7A750",
"fX c #90CD46",
"gX c #96E14F",
"hX c #A3E25A",
"jX c #B1D968",
"kX c #FF7E81",
"lX c #FF8383",
"zX c #FF8B8B",
"xX c #FE8885",
"cX c #FE9393",
"vX c #FF9995",
"bX c #FF9A9B",
"nX c #FB9797",
"mX c #FF908F",
"MX c #FFA19D",
"NX c #FF9EA1",
"BX c #FEA3A4",
"VX c #FEAAA9",
"CX c #FFB6B9",
"ZX c #FFB7B9",
"AX c #FFAFAE",
"SX c #FFBEC1",
"DX c #FFC5C8",
/* pixels */
"                                                                                                                                ",
"                                                                      +X[.                                                      ",
"                                                                      1X[.{.                      O                             ",
"                                                                        [.{.{.@X              4 $ %                             ",
"                                                                        1X[.{.{.#X0XrX        4 % %                             ",
"                                                            | | o.| ` X.qXXX[.].+X@X9X9X      $X% &                             ",
"                                                      =.o._ _ _ _ _ ) 9.c.0X1X1X<X@X@X0X9X<X  %X3 @                             ",
"                                                  O.` x.=._ / ' ] _ _ $.h.f.d.5 3 3 $X@X1X<X<X2X4 &                             ",
"                                                | _ _ _ _ *.uXK.] _ _ _ _ _ _ Y = % O @ 1X1X=X5X5 4                             ",
"                                            ] o.9._ _ _ _ _ [ _ _ _ _ _ _ _ ) _ _ Y * $ @ 3X3X=X4X&X                            ",
"                                          ] 9.I.] [ 6.` _ _ _ _ | 5._ _ _ _ [ &.y.i.u.= $ > 9XrX9XrX                            ",
"                                        X._ ] _ *.aXc._ _ _  .uXI.E.O._ _ &.2 ].].}.[.{.).@ >X3X9XfX                            ",
"                                      X._ _ _ ] 7.z.w.6.` _ ) $.%.' _ / y.(.(.(./.}.}.{.{.{.).>X3XfXjX                          ",
"                                    ] ] ` _ X.S.Y.U.Y.U.5._ _ _ _ _ B 2 '.`.(.`.]._.].[.{.].+X.X=X3XfX                          ",
"                                  9.x.9.o.5.x.Y.V.e.C.xXX.` _ _ _ Y L k n = './.`.].].]./.{.}.+XXX3X9X3X                  gXeX  ",
"                                  =.x.z.I.q.F.V. .~.G.w.6.w._ _ X.e.`  .Y A h y.'.`.|.[.].^.OX].#X1XrX$X-X            hXgXfX4XeX",
"                                ] ' ) b.g.q.S.6.{ h.-.O.P.e.~ J 4.lXD.S.t.! A p h y./.`.[.]./.OX].@XfX$X).          hXgX6X,X@   ",
"                              ] _ _ _ _ _ 5.S.C.w.6.w.F.P.6.J yXsXI.Q.W.6._ ~ S p p n oX/.].OX/.[.+XfX=X). X    hXgX6X5X&XO     ",
"                            ] _ _ _ q.W.lXY.Y.xXvXMXvXzXU.C./ Y k.R.zXU.o._ ) K S p t h i.}.`..X].].9XfX=X<XgXgXfX5X,X# O       ",
"                            X.7._ C.Q.mXvXT.VXVXlXD.W.xXQ.W.W.xXbXMXE.=._ _ K S S A p t t n |.}.[.[.1X4X4XfXeX4X,X).O O         ",
"                          o.z.-.V.C.I ,.w.iXmXW.zXE.C.E.Q.P.D.Y.U.S.o._ _ ! A a J K S p t r e oX[. X-X>X&X<X<X&X# +             ",
"                          =.v...Q.w.uXI.q.vXT.F. .^ BXcXC.w.6.O.o.] _ _ ) S J.K.J ) K A p h 7 =X*X X*X3X> , , O O               ",
"                        _ _ ) o.w.| Y ..iXU.Z.U yXn.E.vXS.e.O.] o.o._ _ ) E a.T ) _ K S N *X=X=X=X$X5 :X> O O 3                 ",
"                      o._ _ q.C.X.] 5.Q.BXe.=.Y f.&.V.W.xXT.X.( G.BXS.] [ ! ~ _ _ _ J u.=X=X=X=X:X;X%X%X;XO $X<                 ",
"                      ] X.D.D.xXlXlXcXNXNXV.` _ _ O.T.Q.bXS.^ A S 7.CXx._ _ _ _ _ ! V 2X2X:X:X:X:X:X%X3 ;X5 =X, *X              ",
"                    } X.Y.0./ W.bXzXU.lXNXkXV.T.zX!.xXCXzX+.S <.uXc.U.W._ _ _ ) K S -X3X2X2X:X:X:X;X4 % 3 >X=X< *X              ",
"                    c.q.P.l.8.lXU./ J Q cXbXcXVXSXDXDXDXlX/ L K.h.nXQ.D._ ) J A a N 3X2X2X:X;X;X%X4 3 % > 5 9X-X*X              ",
"                  7.h.D.~.L.r.Q.' A M Y mXAXCXSXDXZXDXDXcX' ~ ) w.VX!.o._ J a p t 7 3X3X2X:X;X%X%X4 % 3 - > 3X9X=X              ",
"                  ' / F.4./ xXV.r.J.tX4.BXZXCXBXG.4.Z.ZXZXr.) _ _ w.6._ ) D p l m >X2X2X:X:X%X%X6 3 % > ; - < 9X1X9X            ",
"                X.` ` e.] U.bXC.r.$.{ W.AXCXBX3.A S ! S.DXCXD.V.V.X._ _ ~ D %.dXd.:X:X:X7X%X%X3 % % . : ; - , *X-XeX            ",
"              =.] _ ] C.Q.cXMXbXNXQ.cXBXCXAXW.P D g. .6.CXDXSXbXU.w.] _ ) A p.V 7 %X%X%X%X4 % $ $ . o /.- ; : ).+XeX            ",
"              X.] ^ ..Q.U.+.F.BXBXBXmXBXCXAXU.{ aXtXVXT.VXDX!.0.0.D.q.` _ J S V 6 6 6 3 8 * . o 0 0 0 /.- ^.(. X+XeX            ",
"            +.8.q.H 7.!.( J  .bXcXC...6.mXVXW.=.$.iXDXW.BX!.( ( K Q S.X._ K S e q 9 0 0 0 0 9 9 0 9 e (.; (.(.XX+XwX            ",
"          I.n.g.G.yXC.Z.J U Y cXr.( ! ! Z.cXxXe.O.iXxXiXvX ./ / J S R.w.[ K A t w w q 9 m e w q w q n (.: (.(.@X+X8X            ",
"          =.{ F.I.#.T. .1.yXr.lX( K J K r.T.W.D.V.C.E.mX!.^ / I I.l.R.D.' J S a t t r w r p r w w q n ^.^.(./.@X+X#XwX          ",
"        9.` X.E. .O.Q. .yX8.T.Z.! K $.-.r.W.D.e.w.C.Y.E.Y.( / 1.K. .lXx.( J A p t t t r r r r r w w n ; ^.(.(.@XXX#X8X          ",
"        =._ X.5.` 6.zXR.G.e.lX+.' *.uX-.W.D.e.+./ ^  .9.P.7. .{ 7.w.iX+.I J a t r t t r r r r r r w n ^.(.^._.@X[.+X8X8X        ",
"      c. .} +.5.X.5.bXAXU.kXV.' o.7.r.C.vX../ I S S S K 6.F.q.6.V.W.r.Y I F p b.B p t r r r r r w q X (.(.(.`.XX.X[.#XwX        ",
"      J.x.Q ..' I  .cXcXT.7.....` D.zXzXq.~ ( S A A F J / w.D.C.Y.r. .L F D Z tXM ,.t i r r r r w q X ^.^.^.`.i.+X`.OX#XwX      ",
"    9.$.F.U ' I A L 7.4.I J ( +.S.T.V...) ~ I A U aXk.Z...5.7.*. .{ P F F D m h G.,.y i r f.r r w q = ; ^.^.2 n @X[.{.#X8X      ",
"    6.C.I.b.^ A a G ! S A A J ~ ' ' ~ ~ ! ~  .Q z.J.iXcX+. .{ Y { Y F D D a p S Q d y y M tXt r w q = ^.; ^.= r XX[.].#X8X      ",
"    =.Y.G...I W K.Y J A A D J ~ ~ K S A S K / t.C.!.lXq.^ G F L F U D D g g g a p d d y p.N t r w 9 2 ; ; ^.n k i.[.].OX8X      ",
"  b.*.iXm./ I l.$.( S A T l.K ~ J A A g U A K +.e.w.o.^ A a a a j.v.K L f f f d d d d d r p t r w 9 : ; ; = E $.  |./.+X#X      ",
"  g.Q A.7.^ R.cX..K S Q yX-.) K A A #.aXg.^ J J L L L J A a p s L.%.~ L f f f d d d d d y y i r q o ; ; = T 4.,.  XX`.].#X      ",
"G.8.<.^ L K C.V.I J ( r.D.| ! S A U aXv.lX7.J S S P P P L a p p U x...F d d s d f f d d d y y w 9 * 1 n T ,.4.      {.].+X      ",
"z.8.h.^ S L ! S A S t.xXU...J J J $.~.BXE./ J S G P g k G A A G 7.7.P d s p Z N g f d d d d d w X = z T E 4.4.      [.[.        ",
"k.R.w.( g.g.I a a D L  .^ J J K ~ V.zXS./ K S S H j uXf.H a a a a a d d d u L.z g d d d k c h e b E $.E $.8.8.      |.[.        ",
"<.8...Y b. .S p <.T D A A a A K ~ / ( K J A A D H f.f.4.P p p y y d d d s z B 3.f d f k W f u c ,.,.E E 4.0.          [.        ",
"b.$.Y 4.U.( A H.v.U A a a a A S S J S a a a a A W 4.O.7.F p p p y d d d y r R ;.d f U W j.M d E ,.E W E 0.0.          |.        ",
"G.*.W P ^ J P G.0.A p d K.%.a a p p p d s p p p H 4. .L t y p M f.i d u y y d d k k U M N.d T ,.>.H.d k 8.0.                    ",
"z. .l.Y F g A Q F p p H.v.U a p p p J.uXM t t t t p p t i p u tXN t u d d k j j W W d h u c @.,.j.s.y d v                       ",
"3.,.Z.P g j.j p y t A Z.F.G p p t Z a.B.0.p t r r r r i y i h Z ,.a s d k c c c c c y r i v ,.,.z y d d x                       ",
"  g. .P T v.@.u d d p D D a p t t p P ,.g t r r r r r r i r i ,.#.g d j c c j d c c d j v ;.>.c u y b u                         ",
"  $.Q W Q P.R y M b.y t t y i i t t t t r t t u J.B t r y i y i d d x c c K.z d v @.>.1.3.3.;.R @.k C x                         ",
"  $.W l.%.x u y Z j.d i t y d i i i i i i i y a.p.v t r r i y y d x c f M m p j M :.1.;.R R 1.1.@.T x                           ",
"    Q #.#.x x z f E d i i y <.uXB d i i r i r p D g t r t i i u d x x d i t y b >.3.B.Z p ;.:.>.f d                             ",
"    4.Q T z p.tXu y y i r i N.Z ;.y i d T #.c r t t t y y M J.x d x b b v v v >.:.:.M.s v :.C t d                               ",
"      ,.T Z x k x u u i r r t p p t f $.4.k.@.d i t y p b H.m p x b v >.:.>.:.3.1.v y x :.2.h j                                 ",
"        3.s.<.b j u u j.K.Z d d j c E $.>.p.y d u d c d u y t u b v >.2.j.v f c :.M v :.:.C x                                   ",
"          k.>.C x h i m m k T R R R T j i t t d T ,.,.>.:.;.d d v :.2.M.z d R >.:.3.:.>.c x                                     ",
"              :.M a.L.z x x T R R Z H.<.x ;.;.,.8.>.J.l.@.1.:.>.1.2.d d c >.:.2.<.d p f x                                       ",
"                  Z M x x b R c d j j k R R ;.;.c i z x d x >.3.k.B.3.2.:.>.>.b p s d                                           ",
"                          >.1.4.,.,.,.,.1.3.3.:.;.v ;.;.>.2.3.2.>.b k @.2.v j d                                                 ",
"                                                            :.v d                                                               "
};
