/* XPM */
static char *result[] = {
/* columns rows colors chars-per-pixel */
"72 64 223 2 ",
"   c #0B323C",
".  c #312B2D",
"X  c #342518",
"o  c #581519",
"O  c #6E121A",
"+  c #671619",
"@  c #78121D",
"#  c #6F0E18",
"$  c #582E13",
"%  c #6C2918",
"&  c #693A16",
"*  c #762F16",
"=  c #411D29",
"-  c #7B343A",
";  c #6A282D",
":  c #5E232A",
">  c #32551E",
",  c #125828",
"<  c #0F492D",
"1  c #08652B",
"2  c #08742D",
"3  c #0B743A",
"4  c #107737",
"5  c #146930",
"6  c #4F5716",
"7  c #765B0F",
"8  c #7A4818",
"9  c #694F13",
"0  c #75670F",
"q  c #686813",
"w  c #766610",
"e  c #564333",
"r  c #50542B",
"t  c #744E36",
"y  c #78563C",
"u  c #694E35",
"i  c #766E33",
"p  c #53622B",
"a  c #153754",
"s  c #103F65",
"d  c #2B2A43",
"f  c #703C40",
"g  c #094A5C",
"h  c #114C5B",
"j  c #184D4D",
"k  c #2B5648",
"l  c #344F58",
"z  c #276240",
"x  c #306342",
"c  c #094867",
"v  c #075569",
"b  c #155866",
"n  c #065D75",
"m  c #174775",
"M  c #2D5A6E",
"N  c #08647D",
"B  c #126577",
"V  c #44584E",
"C  c #595249",
"Z  c #584A46",
"A  c #735B44",
"S  c #6B4F4A",
"D  c #4E6658",
"F  c #65625A",
"G  c #7D6853",
"H  c #766949",
"J  c #5B6864",
"K  c #506870",
"L  c #756965",
"P  c #7C766A",
"I  c #787675",
"U  c #676F6D",
"Y  c #8B0E1E",
"T  c #940B1D",
"R  c #A8091F",
"E  c #B0091F",
"W  c #930C20",
"Q  c #871926",
"!  c #991B2B",
"~  c #8D0D21",
"^  c #AC0C22",
"/  c #A30C21",
"(  c #B50C24",
")  c #BD0B25",
"_  c #BC0924",
"`  c #A41627",
"'  c #B41126",
"]  c #8C232F",
"[  c #C40625",
"{  c #CB0225",
"}  c #C20925",
"|  c #CC0927",
" . c #D40124",
".. c #DD0024",
"X. c #D30825",
"o. c #9E561D",
"O. c #844F13",
"+. c #A35A1B",
"@. c #A04917",
"#. c #8E7310",
"$. c #A96817",
"%. c #8E592F",
"&. c #857533",
"*. c #AF6625",
"=. c #AB5523",
"-. c #C85D1A",
";. c #C9681D",
":. c #D6651B",
">. c #DA741D",
",. c #E7721B",
"<. c #E97A1B",
"1. c #E6791B",
"2. c #E16E1B",
"3. c #C17222",
"4. c #815147",
"5. c #8E7054",
"6. c #A67F58",
"7. c #827A78",
"8. c #8A7865",
"9. c #018439",
"0. c #028B3B",
"q. c #058633",
"w. c #00933A",
"e. c #019C3C",
"r. c #059635",
"t. c #148037",
"y. c #01A537",
"u. c #01A937",
"i. c #00A439",
"p. c #01A938",
"a. c #029744",
"s. c #0D8845",
"d. c #98850C",
"f. c #948812",
"g. c #A98A0C",
"h. c #B48C0B",
"j. c #B09011",
"k. c #BBA708",
"l. c #92842A",
"z. c #A49222",
"x. c #CE9808",
"c. c #EB851E",
"v. c #EC881F",
"b. c #E5831D",
"n. c #CAAB07",
"m. c #CCB507",
"M. c #DABA07",
"N. c #D7AB06",
"B. c #EAB803",
"V. c #F1B502",
"C. c #F4BD00",
"Z. c #EBAB03",
"A. c #ED8820",
"S. c #DCC106",
"D. c #EAC703",
"F. c #F4C301",
"G. c #F5CC01",
"H. c #F6D401",
"J. c #F7DB01",
"K. c #F8DB01",
"L. c #EED003",
"P. c #9F805E",
"I. c #8B8173",
"U. c #B08E6B",
"Y. c #B68A5E",
"T. c #CCA377",
"R. c #D0A97F",
"E. c #C99E70",
"W. c #085488",
"Q. c #065B94",
"!. c #195998",
"~. c #155182",
"^. c #076B86",
"/. c #04619F",
"(. c #067797",
"). c #106B86",
"_. c #0C5FA0",
"`. c #0565A9",
"'. c #037EA3",
"]. c #006EB6",
"[. c #006FB8",
"{. c #667983",
"}. c #0184AB",
"|. c #0684A7",
" X c #028CB5",
".X c #008DB7",
"XX c #0193BD",
"oX c #0190B6",
"OX c #7B8C96",
"+X c #73848E",
"@X c #0196C1",
"#X c #019AC5",
"$X c #019ECB",
"%X c #01A1CE",
"&X c #00A6D3",
"*X c #888785",
"=X c #908D8B",
"-X c #949493",
";X c #999898",
":X c #8E918F",
">X c #8598A2",
",X c #9DA8AE",
"<X c #DAAA85",
"1X c #CCA583",
"2X c #E7B687",
"3X c #F1BB85",
"4X c #F9BD96",
"5X c #F7BC96",
"6X c #EDB891",
"7X c #F4C496",
"8X c #F9C49A",
"9X c #FACB9E",
"0X c #F6C699",
"qX c #F3C08B",
"wX c #FBCFA0",
"eX c #FAD0A1",
"rX c #96B9CC",
"tX c #B6DAEF",
"yX c #BADCF0",
"uX c #A4CEE6",
"iX c #B3CCDB",
"pX c #C6E3F5",
"aX c None",
/* pixels */
"aXaXaXaXaXaXaXaXaXaXaXaXaXaXaXaXaXaXaXaXaXaXaXaXaXaXaXaXaXaXaXaXaXaXaXaXaXaXaXaXaXaXaXaXaXaXaXaXaXaXaXaXaXaXaXaXaXaXaXaXaXaXaXaXaXaXaXaXaXaXaXaX",
"aXaXaXaXaXaXaXaXaXaXaXaXaXaXaXaXaXaXaXaXaXaXaXaXaXaXaXaXaXaXaXaXaXaXaXaXaXaXaXaXaXaXaXaXaXaXaXaXaXaXaXaXaXaXaXaXaXaXaXaXaXaXaXaXaXaXaXaXaXaXaXaX",
"aXaXaXaXaXaXaXaXaXaXaXaXaXaXaXaXaXaXaXaXaXaXaXaXaXaXaXaXaXaXaXaXaXaXaXaXaXaXaXaXaXaXaXaXaXaXaXaXaXaXaXaXaXaXaXaXaXaXaXaXaXaXaXaXaXaXaXaXaXaXaXaX",
"aXaXaXaXaXaXaXaXaXaXaXaXaXaXaXaXaXaXaXaXaXaXaXaXaXaXaXaXaXaXaXaXaXaX4.%.P -XaXaXaXaX*XI.=X;XaXaXaXaXaXaXaXaXaXaXaXaXaXaXaXaXaXaXaXaXaXaXaXaXaXaX",
"aXaXaXaXaXaXaXaXaXaXaXaXaXaXaXaXaXaXaXaXaXaXaXaXaXaXaXaXaXaXaXaXaXaXH <.<.<.c.c.c.c.v.c.v.A.v.*.8.aXaXaXaXaXaXaXaXaXaXaXaXaXaXaXaXaXaXaXaXaXaXaX",
"aXaXaXaXaXaXaXaXaXaXaXaXaXaXaXaXaXaXaXaXaXaXaXaXaXaXaXaXaXaXaXaXaXe A b.v.c.v.c.A.c.v.v.A.A.v.v.<.*.aXZ aXaXaXaXaXaXaXaXaXaXaXaXaXaXaXaXaXaXaXaX",
"aXaXaXaXaXaXaXaXaXaXaXaXaXaXaXaXaXaXaXaXaXaXaXaXaXaXaXaXaXaXaXaXaXy 1.o.c.c.c.c.c.v.A.A.A.A.A.v.A.c.;.o.t C aXaXaXaXaXaXaXaXaXaXaXaXaXaXaXaXaXaX",
"aXaXaXaXaXaXaXaXaXaXaXaXaXaXaXaXaXaXaXaXaXaXaXaXaXaXaXaXaXaXaXaXaX;X2.8 <.<.o.e c.v.v.v.v.A.A.A.A.A.c.1.8 C aXaXaXaXaXaXaXaXaXaXaXaXaXaXaXaXaXaX",
"aXaXaXaXaXaXaXaXaXaXaXaXaXaXaXaXaXaXaXaXaXaXaXaXaXaXaXaXaXaXaXaXaXaX-XZ :.-.2XP.,.<.8 b.v.v.v.v.A.v.v.c.;.aXaXaXaXaXaXaXaXaXaXaXaXaXaXaXaXaXaXaX",
"aXaXaXaXaXaXaXaXaXaXaXaXaXaXaXaXaXaXaXaXaXaXaXaXaXaXaXaXaXaXaXaXaXaXaXP.8.u 9X7X@.:.Y.v.c.v.v.v.A.v.v.<.,.aXaXaXaXaXaXaXaXaXaXaXaXaXaXaXaXaXaXaX",
"aXaXaXaXaXaXaXaXaXaXaXaXaXaXaXaXaXaXaXaXaXaXaXaXaXaXaXaXaXaXaXaXaXaXaX9X9XwXwXwX7XG 2X>.c.$.v.v.A.A.v.c.1.*XaXaXaXaXaXaXaXaXaXaXaXaXaXaXaXaXaXaX",
"aXaXaXaXaXaXaXaXaXaXaXaXaXaXaXaXaXaXaXaXaXaXaXaXaXaXaXaXaXaXaXaXaXaXL wXwXwXwXwXeXR.7Xy 1.1.+.v.v.A.v.c.,.=XaXaXaXaXaXaXaXaXaXaXaXaXaXaXaXaXaXaX",
"aXaXaXaXaXaXaXaXaXaXaXaXaXaXaXaXaXaXaXaXaXaXaXaXaXaXaXaXaXaXaXaXaXaXU.wXU.wXwXwX9X9X9X8X4.8 & b.v.A.v.c.1.aXaXaXaXaXaXaXaXaXaXaXaXaXaXaXaXaXaXaX",
"aXaXaXaXaXaXaXaXaXaXaXaXaXaXaXaXaXaXaXaXaXaXaXaXaXaXaXaXaXaXaXaXaXaX6X8XwXwXwXwX1X0X8X8X<Xb.c.O.v.A.A.c.*.aXaXaXaXaXaXaXaXaXaXaXaXaXaXaXaXaXaXaX",
"aXaXaXaXaXaXaXaXaXaXaXaXaXaXaXaXaXaXaXaXaXaXaXaXaXaXaXaXaXaXaXaXaXaX5X8X4XU.U.8X7X8X4X4X7Xt c.<.8 +.A.c.7.aXaXaXaXaXaXaXaXaXaXaXaXaXaXaXaXaXaXaX",
"aXaXaXaXaXaXaXaXaXaXaXaXaXaXaXaXaXaXaXaXaXaXaXaXaXaXaXaXaXaXaXaXaXaX6X4X8XwX9X9X8X4X5X5X5XR.X & & c.v.3.aXaXaXaXaXaXaXaXaXaXaXaXaXaXaXaXaXaXaXaX",
"aXaXaXaXaXaXaXaXaXaXaXaXaXaXaXaXaXaXaXaXaXaXaXaXaXaXaXaXaXaXaXaXC *.<X4X0XeX9X1X8X4X5X4X5X6Xt A.v.v.c.*XaXaXaXaXaXaXaXaXaXaXaXaXaXaXaXaXaXaXaXaX",
"aXaXaXaXaXaXaXaXaXaXaXaXaXaXaXaXaXaXaXaXaXaXaXaXaXaXaXaXaXaXaXaX;X8 5.8XwXP.U.y 8X8X4X4X8X8 b.A.c.c.%.aXaXaXaXaXaXaXaXaXaXaXaXaXaXaXaXaXaXaXaXaX",
"aXaXaXaXaXaXaXaXaXaXaXaXaXaXaXaXaXaXaXaXaXaXaXaXaXaXaXaXaXaXaXaXaX>.$.0XwXwXeX9X8X8X8X5X5.1.c.c.c.1.;XaXaXaXaXaXaXaXaXaXaXaXaXaXaXaXaXaXaXaXaXaX",
"aXaXaXaXaXaXaXaXaXaXaXaXaXaXaXaXaXaXaXaXaXaXaXaXaXaXaXaXaXaXaXaXaXC aXL wXwXeX9XwXwX7Xt 2.1.,.,.<.,.L aXaXaXaXaXaXaXaXaXaXaXaXaXaXaXaXaXaXaXaXaX",
"aXaXaXaXaXaXaXaXaXaXaXaXaXaXaXaXaXaXaXaXaXaXaXaXaXaXaXaXaXaXaXaXaXaXaXaXI R.0XeX9X8X3X. $ t :.:.+.-.y aXaXaXaXaXaXaXaXaXaXaXaXaXaXaXaXaXaXaXaXaX",
"aXaXaXaXaXaXaXaXaXaXaXaXaXaXaXaXaXaXaXaXaXaXaXaXaXaXaXaXaXaXaXaXaXaXU I OXtXrXP.3X3X3Xy uX{.O.=.aXaXaXaXaXaXaXaXaXaXaXaXaXaXaXaXaXaXaXaXaXaXaXaX",
"aXaXaXaXaXaXaXaXaXaXaXaXaXaXaXaXaXaXaXaXaXaXaXaXaXaXaXaXaXaXaXaXaXaX:X{.pXyXyX,XF F +XtXyXtXyXOXaXaXaXaXaXaXaXaXaXaXaXaXaXaXaXaXaXaXaXaXaXaXaXaX",
"aXaXaXaXaXaXaXaXaXaXaXaXaXaXaXaXaXaXaXaXaXaXaXaXaXaXaXaXaXaXaXaXaX;X%X&Xb OX>XM N iXpXpXpX>Xh U aXaXaXaXaXaXaXaXaXaXaXaXaXaXaXaXaXaXaXaXaXaXaXaX",
"aXaXaXaXaXaXaXaXaXaXaXaXaXaXaXaXaXaXaXaXaXaXaXaXaXaXaXaXaXaXaXaXaX|.$X$X&X$X$X#X@X Xb b '. X}.(.aXaXaXaXaXaXaXaXaXaXaXaXaXaXaXaXaXaXaXaXaXaXaXaX",
"aXaXaXaXaXaXaXaXaXaXaXaXaXaXaXaXaXaXaXaXaXaXaXaXaXaXaXaXaXaXaXaXU &X^.&X&X&X&X$X$X$X%X@X$X@XoX[.I aXaXaXaXaXaXaXaXaXaXaXaXaXaXaXaXaXaXaXaXaXaXaX",
"aXaXaXaXaXaXaXaXaXaXaXaXaXaXaXaXaXaXaXaXaXaXaX=Xf ` [ } ` - I.,X%X%Xv &X&X&X&X&X&X&X%Xn %X%X#X.XM aXaXaXaXaXaXaXaXaXaXaXaXaXaXaXaXaXaXaXaXaXaXaX",
"aXaXaXaXaXaXaXaXaXaXaXaXaXaXaXaXaXaXaXaXaX-X! ................/ (. X9 N &X&X&X&X&X&X&Xv &X&X%X@X).aXaXaXaXaXaXaXaXaXaXaXaXaXaXaXaXaXaXaXaXaXaXaX",
"aXaXaXaXaXaXaXaXaXaXaXaXaXaXaXaXaXaXaXaXaX| ................ .{ } n j m.M.q ^.#X&X&X&Xg &X&X%X#X(.n.H aXaXaXaXaXaXaXaXaXaXaXaXaXaXaXaXaXaXaXaXaX",
"aXaXaXaXaXaXaXaXaXaXaXaXaXaXaXaXaXaXaXaXe E ..............{ | [ } o oX^.^.9 #.k (.}.(.^.&X&X&X#X(.L.F.j.aXaXaXaXaXaXaXaXaXaXaXaXaXaXaXaXaXaXaXaX",
"aXaXaXaXaXaXaXaXaXaXaXaXaXaXaXaXaXaX;X8.o ..T O (  . . .{ [ ^ Y o h &X|.l V #XXX%X&X&X&X&X&X%X$Xb w G.F.j.aXaXaXaXaXaXaXaXaXaXaXaXaXaXaXaXaXaXaX",
"aXaXaXaXaXaXaXaXaXaXaXaXaXaXaXaXV p.2 A e ..........[ ) _ ( ^ @ Y oXF eXeX8X6.@X$X%X&X&X&X&X%X@X  K.f.G.C.i aXaXaXaXaXaXaXaXaXaXaXaXaXaXaXaXaXaX",
"aXaXaXaXaXaXaXaXaXaXaXaXaXaXaXaXaXt.y.< A ............ . .[ 3 a.e.5 G G 8.E.6.h XXXX%X#X%X%XXXg }.k.f.H.F.B.aXaXaXaXaXaXaXaXaXaXaXaXaXaXaXaXaXaX",
"aXaXaXaXaXaXaXaXaXaXaXaXaXaXaXaXaXaX=XD z } ............ .| < a.i.2 e A E.3 a.e.  v N N v g }. X}.r J.S.G.F.P aXaXaXaXaXaXaXaXaXaXaXaXaXaXaXaXaX",
"aXaXaXaXaXaXaXaXaXaXaXaXaXaXaXaXaXaXaXaXaX] ..............{ } $ #.> 1 3 , s.e.i.N oX#X&XXX#X$X$X.Xb H.#.H.F.&.aXaXaXaXaXaXaXaXaXaXaXaXaXaXaXaXaX",
"aXaXaXaXaXaXaXaXaXaXaXaXaXaXaXaXaXaXaXaXaXL ............ .[ ( m.F.C.V.b }.'.(.(.%X%X&X&X%X&X%X%X$X'.L.0 H.F.z.aXaXaXaXaXaXaXaXaXaXaXaXaXaXaXaXaX",
"aXaXaXaXaXaXaXaXaXaXaXaXaXaXaXaXaXaXaXaXaXaXX....... . .{ } % 0 K.G.G.h.}.XX#X$X&X&X&X&X&X&X&X&X%X.XC.#.K.H.M.aXaXaXaXaXaXaXaXaXaXaXaXaXaXaXaXaX",
"aXaXaXaXaXaXaXaXaXaXaXaXaXaXaXaXaXaXaXaXaXaX; .... .{ [ | ) N.K.0 K.K.G.v @X$X&X&X&X&X&X&X&X&X&X&X#Xw w K.K.H.aXaXaXaXaXaXaXaXaXaXaXaXaXaXaXaXaX",
"aXaXaXaXaXaXaXaXaXaXaXaXaXaXaXaXaXaXaXaXaXz.H.g.% Y W W + h.7 C.n.J.K.H.w  X'.&X&X&X&X&X&X&X&X&X&X#XF.G.K.K.H.&.aXaXaXaXaXaXaXaXaXaXaXaXaXaXaXaX",
"aXaXaXaXaXaXaXaXaXaXaXaXaXaXaXaXaXaXaX4.T T * 8 j.H.K.G.C.C.V.#.G.g.K.K.N.(.}.n &X&X&X&X&X&X&X&X&X#XN.H.K.K.K.M.aXaXaXaXaXaXaXaXaXaXaXaXaXaXaXaX",
"aXaXaXaXaXaXaXaXaXaXaXaXaXaXaXaXaX7.X.............R d.K.H.G.F.h.Z.0 J.J.L.h ^.%XoX&X&X&X&X&X&X&X&X Xh.H.K.K.K.H.aXaXaXaXaXaXaXaXaXaXaXaXaXaXaXaX",
"aXaXaXaXaXaXaXaXaXaXaXaXaXaXaXaXL ..................{ d.K.K.G.C.7 d.J.J.J.S.^.%X&X&X&X&X&X&X&X&X&X&Xr H.J.K.J.H.8.aXaXaXaXaXaXaXaXaXaXaXaXaXaXaX",
"aXaXaXaXaXaXaXaXaXaXaXaXaXaXaXaX.... ./ } ............E H.J.H.H.G.J.J.J.J.J.m.%X&X&X&X&X&X&X&X&X&X&Xb K.J.K.J.H.G aXaXaXaXaXaXaXaXaXaXaXaXaXaXaX",
"aXaXaXaXaXaXaXaXaXaXaXaXaXaXaX- ..^ `.[.[.@ .......... .#.J.J.J.H.J.J.J.J.J.J.b %X&X&X&X&X&X&X&X&X&XXXL.J.J.K.H.i aXaXaXaXaXaXaXaXaXaXaXaXaXaXaX",
"aXaXaXaXaXaXaXaXaXaXaXaXaXaXaX' ..a [.].[.Q........... .% K.K.J.J.J.J.J.J.J.J.m.#X&X&X&X&X&X&X&X&X&X&Xn.H.K.K.K.l.aXaXaXaXaXaXaXaXaXaXaXaXaXaXaX",
"aXaXaXaXaXaXaXaXaXaXaXaXaXaXaXX.X.`.].[.[.[.} ........ .+ H.J.J.J.J.J.J.J.J.J.J.j %X&X&X&X&X&X&X&X&X&X0 G.H.G.H.l.aXaXaXaXaXaXaXaXaXaXaXaXaXaXaX",
"aXaXaXaXaXaXaXaXaXaXaXaXaXaXaX....`.].].].].( ........{ O J.K.K.J.J.J.J.J.J.J.J.m.#X&X&X&X&X&X&X&X&X&X#.F.C.n.B.H aXaXaXaXaXaXaXaXaXaXaXaXaXaXaX",
"aXaXaXaXaXaXaXaXaXaXaXaXaXaXaX..../.[.].[.].| ...... .{ % G.J.J.J.J.J.J.J.J.J.J.K.p %X&X&X&X&X&X&X&X(.h.2 y.u.u.q.;XaXaXaXaXaXaXaXaXaXaXaXaXaXaX",
"aXaXaXaXaXaXaXaXaXaXaXaXaXaXaXX...a ].].].Q....... .{ [ O.G.K.J.J.J.K.K.K.K.J.H.J.J.r &X&X&X&X&X&X}.9 i.p.p.p.p.p.e.aXaXaXaXaXaXaXaXaXaXaXaXaXaX",
"aXaXaXaXaXaXaXaXaXaXaXaXaXaXaX` .. .c ].Q.T .... .{ [ ( N.G.K.K.J.L.q 5 t.2 > D.H.L.J.f.b '.'.B C $ q.p.p.u.p.p.u.u.x aXaXaXaXaXaXaXaXaXaXaXaXaX",
"aXaXaXaXaXaXaXaXaXaXaXaXaXaXaXI ......_ {  . .{ { } ) % V.G.J.K.k.e.u.u.u.u.u.r.n.G.G.G.G.h.5.0Xt ^ p.p.u.u.2 < u.u.q.aXaXaXaXaXaXaXaXaXaXaXaXaX",
"aXaXaXaXaXaXaXaXaXaXaXaXaXaXaXaXS  . . .{ { [ [ } } ( x.C.G.H.L.r.u.u.u.u.u.u.u., C.F.F.C.g.( _ [ [ , i.u.u.g ].r.u.r.aXaXaXaXaXaXaXaXaXaXaXaXaX",
"aXaXaXaXaXaXaXaXaXaXaXaXaXaXaXaX;X# / [ [ } _ _ ) O x.Z.C.G.H.> y.u.u.u.u.u.u.u.p.x.j.&.I.aXZ ......= , i.i.2 a p.p.r.aXaXaXaXaXaXaXaXaXaXaXaXaX",
"aXaXaXaXaXaXaXaXaXaXaXaXaXaXaXaX} [ ^ Y + + + @ ' } % Z.V.C.F.r.y.u.u.u.u.1 1 u.p.U aXaXaXaXl d @ } !.!.< e.i.i.i.e.5 aXaXaXaXaXaXaXaXaXaXaXaXaX",
"aXaXaXaXaXaXaXaXaXaXaXaXaXaXaX| ..@ { { [ [ } } ) } ' #.Z.V.j.a.i.y.u.u.u.Q./.p.p.J aXaXaXaXm `.`._.`._.c 0.w.w.w.0.J aXaXaXaXaXaXaXaXaXaXaXaXaX",
"aXaXaXaXaXaXaXaXaXaXaXaXaXaX| ..# .... .{ { { [ [ [ _ I aXaXaXa.e.i.u.u.p.< 1 p.p.I aXaXaXf ) ( Q.].].Q.Q.3 9.9.9.x aXaXaXaXaXaXaXaXaXaXaXaXaXaX",
"aXaXaXaXaXaXaXaXaXaXaXaXaX! ..| | ........ . . .{ [ ) - aXaXaXs.a.i.i.i.u.y.i.i.i.aXaXaXaX. E T ].[.[.s < s.9.4 U aXaXaXaXaXaXaXaXaXaXaXaXaXaXaX",
"aXaXaXaXaXaXaXaXaXaXaXaXI.....O ................ .{ [ ` aXaXaXJ a.a.w.w.e.w.w.w.4 aXaXaX{.[.[.[.[.[.a M aXaXaXaXaXaXaXaXaXaXaXaXaXaXaXaXaXaXaXaX",
"aXaXaXaXaXaXaXaXaXaXaXaXaX.._ ....................{ [ ' aXaXaXaXz 9.9.9.0.9.q.9.;XaXaXaX*X[.[.[.[./.~.aXaXaXaXaXaXaXaXaXaXaXaXaXaXaXaXaXaXaXaXaX",
"aXaXaXaXaXaXaXaXaXaXaXaXaX] O ....................{ | ' aXaXaXaXaXD 3 9.3 9.5 aXaXaXaXaXaX~.`.].W.m {.aXaXaXaXaXaXaXaXaXaXaXaXaXaXaXaXaXaXaXaXaX",
"aXaXaXaXaXaXaXaXaXaXaXaXaX;XX....... . . . . ... .{ ! I aXaXaXaXaXaXaXaX:XaXaXaXaXaXaXaXaXaXa m !.J aXaXaXaXaXaXaXaXaXaXaXaXaXaXaXaXaXaXaXaXaXaX",
"aXaXaXaXaXaXaXaXaXaXaXaXaXaXL ' X. . . .{ _ ! S I aXaXaXaXaXaXaXaXaXaXaXaXaXaXaXaXaXaXaXaXaXaXaXaXaXaXaXaXaXaXaXaXaXaXaXaXaXaXaXaXaXaXaXaXaXaXaX",
"aXaXaXaXaXaXaXaXaXaXaXaXaXaXaXaXaXaXaXaXaXaXaXaXaXaXaXaXaXaXaXaXaXaXaXaXaXaXaXaXaXaXaXaXaXaXaXaXaXaXaXaXaXaXaXaXaXaXaXaXaXaXaXaXaXaXaXaXaXaXaXaX",
"aXaXaXaXaXaXaXaXaXaXaXaXaXaXaXaXaXaXaXaXaXaXaXaXaXaXaXaXaXaXaXaXaXaXaXaXaXaXaXaXaXaXaXaXaXaXaXaXaXaXaXaXaXaXaXaXaXaXaXaXaXaXaXaXaXaXaXaXaXaXaXaX"
};
