/* XPM */
static char *_c17cbcfc4cb48e7b1ef4748d32a549eO3Sp4Fc838vBwzZV[] = {
/* columns rows colors chars-per-pixel */
"64 47 250 2 ",
"   c None",
".  c #2C0703",
"X  c #0C3A01",
"o  c #4A0A05",
"O  c #550907",
"+  c #531408",
"@  c #780B0B",
"#  c #72120E",
"$  c #4B2E0D",
"%  c #722F13",
"&  c #135507",
"*  c #324C0A",
"=  c #0E690B",
"-  c #247712",
";  c #4F4D0D",
":  c #6A4D15",
">  c #516F19",
",  c #646815",
"<  c #78691C",
"1  c #784822",
"2  c #697524",
"3  c #557D22",
"4  c #8A0E0E",
"5  c #950D0E",
"6  c #85150E",
"7  c #891512",
"8  c #9A1715",
"9  c #971110",
"0  c #A81718",
"q  c #B91819",
"w  c #AF0E12",
"e  c #992919",
"r  c #9A381D",
"t  c #8B2311",
"y  c #A7241C",
"u  c #A4371E",
"i  c #B6271B",
"p  c #B51D21",
"a  c #943822",
"s  c #A92923",
"d  c #B72827",
"f  c #B5362A",
"g  c #B73833",
"h  c #A83926",
"j  c #C41C1B",
"k  c #C71819",
"l  c #DA1D1E",
"z  c #CC251E",
"x  c #C81C22",
"c  c #D11D23",
"v  c #E71F23",
"b  c #C32B22",
"n  c #C72527",
"m  c #D82927",
"M  c #C83526",
"N  c #D9362B",
"B  c #D72E32",
"V  c #C93837",
"C  c #DC3A3B",
"Z  c #D63538",
"A  c #C22E31",
"S  c #E72A28",
"D  c #E4362C",
"F  c #E73837",
"G  c #F63A39",
"H  c #E72E32",
"J  c #8A5718",
"K  c #874515",
"L  c #A6481A",
"P  c #894A23",
"I  c #8D5526",
"U  c #965B2A",
"Y  c #92592E",
"T  c #B64837",
"R  c #AA5B37",
"E  c #AD512F",
"W  c #986638",
"Q  c #8B6F2D",
"!  c #A66B36",
"~  c #AD723D",
"^  c #B87639",
"/  c #B06932",
"(  c #856213",
")  c #D9433B",
"_  c #CD4B32",
"`  c #E5453A",
"'  c #ED433C",
"]  c #EA4535",
"[  c #F4443A",
"{  c #C57039",
"}  c #DA3D42",
"|  c #F73F42",
" . c #AB794A",
".. c #B57945",
"X. c #B56A44",
"o. c #AC6940",
"O. c #C94844",
"+. c #D94847",
"@. c #C85846",
"#. c #D65B49",
"$. c #DA5756",
"%. c #EB4C4B",
"&. c #E54846",
"*. c #F34444",
"=. c #F54A43",
"-. c #FB4D4C",
";. c #F84947",
":. c #EB544B",
">. c #E95448",
",. c #F3534C",
"<. c #FA544A",
"1. c #E84F53",
"2. c #EC5452",
"3. c #E95858",
"4. c #FB5A54",
"5. c #F75857",
"6. c #F84E51",
"7. c #CE6E51",
"8. c #E96358",
"9. c #F4625B",
"0. c #FA635D",
"q. c #FA6A5B",
"w. c #F56657",
"e. c #E37A59",
"r. c #EF6E54",
"t. c #F25E60",
"y. c #EB6866",
"u. c #FB6563",
"i. c #FB6A63",
"p. c #FA6B6A",
"a. c #F36867",
"s. c #E67266",
"d. c #FB736D",
"f. c #F67767",
"g. c #FB7574",
"h. c #FB7B73",
"j. c #F67978",
"k. c #F17778",
"l. c #328A0E",
"z. c #11962C",
"x. c #368426",
"c. c #4A8116",
"v. c #4C8B29",
"b. c #678831",
"n. c #768A2F",
"m. c #66A93C",
"M. c #1BB44F",
"N. c #3DB14C",
"B. c #7C974E",
"V. c #4EB453",
"C. c #73AD50",
"Z. c #4FBF60",
"A. c #8C8D1B",
"S. c #938C30",
"D. c #AC852C",
"F. c #90A52E",
"G. c #A3A739",
"H. c #C9833F",
"J. c #919148",
"K. c #BD824A",
"L. c #B3844B",
"P. c #B98755",
"I. c #A68B52",
"U. c #92AB55",
"Y. c #96B662",
"T. c #B0AA69",
"R. c #AF9F60",
"E. c #C7894C",
"W. c #D38C47",
"Q. c #D5914D",
"!. c #C38B53",
"~. c #C88E55",
"^. c #CC945C",
"/. c #C89158",
"(. c #D4995D",
"). c #DB9D5D",
"_. c #D79755",
"`. c #CD8F4E",
"'. c #E29D58",
"]. c #DEA05F",
"[. c #E3A25D",
"{. c #C49564",
"}. c #CF9A63",
"|. c #CC9B6A",
" X c #C89763",
".X c #D49C63",
"XX c #D79F63",
"oX c #D2926E",
"OX c #FA847A",
"+X c #E49869",
"@X c #DBA365",
"#X c #D5A26C",
"$X c #DAA56B",
"%X c #DDA86D",
"&X c #D6A067",
"*X c #D5A573",
"=X c #D9A670",
"-X c #DDAB74",
";X c #DDAE7A",
":X c #D6A978",
">X c #DEB17D",
",X c #CAA36E",
"<X c #E4A664",
"1X c #E3AB6C",
"2X c #EAAE6C",
"3X c #E5A567",
"4X c #EBB06F",
"5X c #E2AE73",
"6X c #E4A775",
"7X c #E5B176",
"8X c #EAB274",
"9X c #E2B37C",
"0X c #EBB67A",
"qX c #EDB97D",
"wX c #F0BA7B",
"eX c #FA8986",
"rX c #FB9995",
"tX c #F38E89",
"yX c #DDB283",
"uX c #D9AD80",
"iX c #E2B682",
"pX c #E5B985",
"aX c #ECBC84",
"sX c #E5BC8C",
"dX c #EABE8B",
"fX c #E0B688",
"gX c #F1BC85",
"hX c #E6BE91",
"jX c #E7BF92",
"kX c #F2B891",
"lX c #DD9D91",
"zX c #EDC18D",
"xX c #F2C38C",
"cX c #F1C087",
"vX c #EBC393",
"bX c #ECC69A",
"nX c #ECC69A",
"mX c #F4CC9B",
"MX c #F2C794",
"NX c #F2CEA1",
"BX c #F5D1A3",
"VX c #F8D4A3",
"CX c #F9D9AC",
"ZX c #F7D6AA",
"AX c #FADDB2",
"SX c #F7DBB4",
"DX c #EFCCA3",
"FX c #FBE1B9",
"GX c #DEC88B",
"HX c #FCE8C7",
/* pixels */
"                                                                                                                                ",
"                                                                                                                                ",
"                                                                        Q                                                       ",
"                                                                      W           b.=                                           ",
"                                            >       O.h < v.        T.7.{.T.#.*.y.V % & c.x.                                    ",
"                                        T Z } C e.7.a.8.t.J b.> r N T.w.h.s.D y.:.,.:.;.u 2                                     ",
"                                        V } a.T.U 5.-.5.j.y.U R F 2.8.3.h.:.f C %.,.-.5.p.tX8.@.              .X%X2X_.          ",
"                                      7.V 1.Y.U.r %.-.g.eXg.s.V ) :.>._ 8.V # C 3.a.5.6.5.k.g.j.a.      { (.).Q.W.).2XcX        ",
"                                        d +.R.C.n.N -.g.eXh.u.O.q N N ^ L...! N 3.C 1.3.H F 1.k.3.g.  ).[.'.).        aXcX      ",
"                          l.  8.#.] ) d L.J.> > C...,.*.eX>.<.4.a P.Y.F.F.m.{.@.n q n j R c m Z } rXq.{ Q.            9XqX      ",
"                          = > #.s.s.M i Y M.z.A.Y _ &.H ' &.m j 7.I.J.A.A.G.O.tXp 0 y d l.J b p Z OXw.G 5. .7.*.u.8.  ,XGXaX    ",
"                        R.X.*.-.;.5.y.f M.V.V.Z.B.$.} ' :.%.0 4 Z 7.C.Q m.R C.lXd T { <.w., I 0 1.w.=.+.R L F ;.g.eXeXS.0XBX    ",
"                        , >.g.d.h.h.u.+.3 T Y.Y.W q 1.w.4.w.q.a.3.7.g &.U.O.O.0 ' 5.d.<.eXeXw.O.9 A R Q % C | j.eXh.rXD.Q.mX    ",
"                        8.:.i.eXi.u.g.&.e X U.m a O.0.4.4.i.q.q.q.h.OXn M n d 6 =.0.eX4.8.g.rXrXs $.= Y d 1.,.u.j.j.eXe.D.3X    ",
"                      oX>.3.` 9.;.*.a.&.d $ Y P S.*.u.4.=.4.u.d.g.eXOXf.8 0 5 4 G 5.<.,.' *.5.eXk.O.% 8 B 3.F ' k.a.p.p.9XVX    ",
"                    n 8.>.*.:.>.w.0.u.&.8 9 d 4 > F 0.q.;.;.=.=.4.d.i.d.+.@ O 4 v ' ' :.G >.&.6.3.V % 0 n n l H F a.a.d.vXmX    ",
"              - #.c +.#.&.] ;.<.w.0.=.N # s g % b.S u.u.| G ;.<.<.p.w.4.f $ % P k D 2.>.*.&.:.&.x F *.6.4.C q m F 2.9.i.ZXAX8X  ",
"              Q $.$.$.A V ] ] [ <.[ G b u K L = & f G 6.;.G [ H G G ' m 5 +.F 3.4 F ,.D D m Z 8 m [ -.d.d.h.+.q F &.q.p.'.wX2X  ",
"  %X@X      Q u B +.V d 0 d ` ' D N b 4 G 5.S n 3 * H 6.=.S B F N D q # q $.F %.n q S S z b 0 5 S u.4.h.OXh.p.9 q ` %.:./ 0XwX7X",
"XX<X3X8X@X  u A m C x s y 5 0 b y e @ G a.y.O.8 6 ; i H H m k z q 6 O 4 w &.;.p.$.# N q 0 4 . 9 x l S H ;.tXeXg @ 9 +XaX[.8XxXNX",
"(.`.^.pX0X2X6Xg x x V C.M.f ..9.w.i.i.F 5.1.&.x 2 o r V z w 9 _ [ -.,.8 d 1.G 6.m 7 $ + b [ ;.) 4 5 8 0 k F g.y.# 6XiXcXaXMXBX  ",
"  `.^     0XcXqXg s 1 : = B.R._ 5.0.i.>.8.N d w t O o q e @ ( F ;.d.eX0.d B v H q O M =.<.0.5.j.r + @ 4 5 j m kXmXzXmXCXmX9X    ",
"  @XQ.      gXaX4XT v.> & Y.V.h &.6.5.9.` M @ 5 4 i i O . : M h.h.<.OXOXf.n n j 5 ` ' &.3.:.:.tXI * o % *XdXvX8XVXmXmXCXBX      ",
"    ).^   ^ E 2X8XaX .* C.U.N.J.T =.%.9.&.y O e _ B.W n.; c.N u.0.i.,.9.rXk.0 O k C 1.3.y.` F $.I P.mXaXxXAXBXmXBXCXVXBX        ",
"    .XE.W.U K % +X<XzXJ.1 A.D.! +.&.H 2.Z 7 D #.n.z.2 Q & ; %.-.,.2.8.>.8.k.s.. w k j V e.kXmXmXvX;XMXxXBXzXbXjX-XmX_.          ",
"      `.W.@X% # F 3XgX)./.A.S.C.@.Z ) m d w ,.2._ : , ; $ b.B *.D m m C ) &.f.=X9XzXmXmX6X7.[.5XMXcXzXQ.9XvXvXzXAXCXZX          ",
"      ).@X<X2XX.q s Q.2Xv.- < J.J.@.+.b o k 3.&.R ; = > : R @.+X+X+X0XqX4X4XwX8X).[.'.2XqXqXiXvXbXjX`.(.mXVXAXmXBX*XAX          ",
"        iX%X3X2X8X8X3X4X2X[.: C.$ E r 1  .3XgXMXxXaX8X<X3X8XqX0X[.'.2X0X0X0X0X8X2X5X9X_.%X-XsXbXpXsXsXnXxXMX9XFXFXZXmX          ",
"            -X8X8X0X0XqX2XqX! `.3 qX2X(..XaXxXgXwXcXqX0XcXxXaXqX7X].5X7X9X1X5XiXiXXX=XiX9X7X5XiXsXvX/ iXFXCXmXdXiXzXBX          ",
"              9X5X3X[.<X'._.[.2X3X<X0XgXqX8X9X1X%X].).5XpXiXpXpX>XW._.@X%X$X~.^.XX5XsX)._.iXBXBXvXvXvXbXCX>XZXVXHXSX            ",
"              9X0X9X7XqX0X<X<XH.9X>X$X%X8X8XdX9XiXpX-XpXpXsXzXvX).9X9XiXpXpX9X9XpX9X9XpXpXsX;XdXvX;XsXFXCXVXmXMXQ.vX            ",
"                -X(.[._.^ 1X0X0X1XaXzXzXzXdX5XXXK.@X2XqX0X7X&X.X!.).1X-X=XXX7X(..XpXsXP.~.vXBXpXvXsXvXVXfX.XVXmXdXBX            ",
"                  1XiX7X8XqXqXqXaXdX;X5X5XqXgXdX9XpXsXsXaXaXpX9X9XpXsXsX9X;XiXsXvXpXpXpXsXpX;XMXzX! BXAXVXVXCXMXmX              ",
"                  pXsXpX-X).%X7X1XQ.!.5XzXdXdXjX;XpXvXbXbXvXsXiX#X$X9X9X$XE.-X^.iXsXsX .9XmXmXvXsXpXAXmXvXiXMX9XNX              ",
"                    XXsXiXdXaXqXpXqXvXvXvXzX-X/.L.iXsXhXpXvXvXzX9XiXiXvXbXnXpXvXsX9XpXpXvXvXsX;X>X.X{.mX..VXCX-XvX              ",
"                    fX.X1X`.^...%X^.P.!.pXvXsXsXpX.X5XdXpXpX9XpX#X;XpX;X=X@X$X^.iXsX:X^ ;XMXmXsXY yXBXvXCXZXBXNXNX              ",
"                      `.9XpXpXiXiX-XpXiX9X9XaX7X9XpXsXsXiX:XpXdXiXpXsXsXiXfXvXnXpX5X9X9XsXmX9XiXpXbXmXbXvXnXK.NXnX              ",
"                      iX-X%X..$XE._.U ~..X9X9XiXsX&X%XdXzXvXjXhX>XsXvXsXpXiX9X;XiX9X-XiX@X#X}.$X.XvX|.hX$XbXbXmX                ",
"                        Q.pXpXpX>X-X$XiXiX;X;X}. .P.pXhXsXiX{.|.$X5X9XiX^.^ L.$X9X%XK.:X/.iXsXvX..*XnXP.bXdXzX                  ",
"                        pXiXiX@X;X .=X .! =X>XyXpXpX:X}.>XpXsXsX9X9X$X7X9X9X5X9XsX`.$XiXsXvXsX-XpXnXsX.XDXdXNX                  ",
"                        |.!.K.@X1X@X(.-X9X>X=X=X!..XI E..X.X(.^.~.@X%X9XiXpXsX&X@X-X>X9X,X:X}.|.vX(.sX=X;X                      ",
"                          >X^.@X%X5X5X%X#X^ E..X(.%X-X$X#X#X!.U W !..X$X$X@X-X#XP...P P.:X>XiXsXiX(.sX                          ",
"                          |.!. XiX;X#X.XE./ ~..XXX=X:X/.!.~.#X=X#XXX#X}./ ^ /./.E.:X^.iX$X:X}.yXhXfX                            ",
"                            :X{.{.>X(.~ ~..X..E.W W ~ ! U J P ..~.~.~. X!.$XXX!.^.;X>X X|.uXvX                                  ",
"                              fX XL.!.!.! ^.! ~ U ...X/...~  XK./.K.E./.~./.~.|.;XyX:X                                          ",
"                                      fXfXuXP.W U `.#X*XP...P.L.W ..P./. X                                                      ",
"                                              hX*XP.:X*X                                                                        "
};
