/* XPM */
static char *b646bb306900437597b6cc24a828d2ceIhSO1y0FeurAWA6s[] = {
/* columns rows colors chars-per-pixel */
"64 64 191 2 ",
"   c #242F0E",
".  c #24330D",
"X  c #323B16",
"o  c #2E4E0B",
"O  c #344C0E",
"+  c #394D0E",
"@  c #2F510C",
"#  c #3D5907",
"$  c #35530B",
"%  c #3B540D",
"&  c #375A0B",
"*  c #3D5B0D",
"=  c #344514",
"-  c #354B12",
";  c #3C4D12",
":  c #3B4A18",
">  c #365213",
",  c #3D5412",
"<  c #3E5B11",
"1  c #3F5619",
"2  c #3E610C",
"3  c #3F6210",
"4  c #41560E",
"5  c #49570F",
"6  c #435C0D",
"7  c #495E0F",
"8  c #424F14",
"9  c #434D1B",
"0  c #435514",
"q  c #495516",
"w  c #445B13",
"e  c #4B5D14",
"r  c #44541A",
"t  c #4A551B",
"y  c #465C19",
"u  c #4B5C1A",
"i  c #515D16",
"p  c #525D1C",
"a  c #595D1F",
"s  c #45630D",
"d  c #4A640E",
"f  c #456A0E",
"g  c #4C6A0E",
"h  c #50650E",
"j  c #526B0E",
"k  c #4E700E",
"l  c #50710D",
"z  c #456312",
"x  c #4B6414",
"c  c #456912",
"v  c #4D6A13",
"b  c #46621A",
"n  c #4D631A",
"m  c #4E691A",
"M  c #526515",
"N  c #5A6515",
"B  c #526D13",
"V  c #526916",
"C  c #526817",
"Z  c #506917",
"A  c #546915",
"S  c #516C17",
"D  c #546E15",
"F  c #536B14",
"G  c #5A6D16",
"H  c #50641B",
"J  c #52661B",
"K  c #52621E",
"L  c #52611E",
"P  c #50641C",
"I  c #54671E",
"U  c #57661F",
"Y  c #54651F",
"T  c #53641B",
"R  c #59641C",
"E  c #536B18",
"W  c #526B1A",
"Q  c #52691B",
"!  c #556B1B",
"~  c #546B19",
"^  c #516D18",
"/  c #526C19",
"(  c #516C1B",
")  c #50681C",
"_  c #556B1E",
"`  c #556B1D",
"'  c #546C1C",
"]  c #576D1C",
"[  c #566F1E",
"{  c #546B1A",
"}  c #5A6B1B",
"|  c #58681C",
" . c #596F1F",
".. c #5A6C1C",
"X. c #4F7111",
"o. c #517112",
"O. c #527413",
"+. c #547314",
"@. c #587717",
"#. c #597216",
"$. c #567813",
"%. c #517019",
"&. c #52711A",
"*. c #54701B",
"=. c #56741A",
"-. c #57711C",
";. c #57701E",
":. c #55701D",
">. c #55711A",
",. c #5D7319",
"<. c #59721C",
"1. c #59701F",
"2. c #5C711E",
"3. c #5A751E",
"4. c #5B731C",
"5. c #5E791C",
"6. c #616E1E",
"7. c #61741E",
"8. c #637B1E",
"9. c #4D5421",
"0. c #4D5C21",
"q. c #515624",
"w. c #545C24",
"e. c #5A5F21",
"r. c #535C28",
"t. c #595D2A",
"y. c #4E6121",
"u. c #536321",
"i. c #556122",
"p. c #556720",
"a. c #546422",
"s. c #586320",
"d. c #586720",
"f. c #586327",
"g. c #5A6523",
"h. c #556B21",
"j. c #566B22",
"k. c #596B20",
"l. c #5C6C23",
"z. c #556529",
"x. c #5B6429",
"c. c #5D6B2A",
"v. c #567122",
"b. c #5A7624",
"n. c #5D7222",
"m. c #5B7821",
"M. c #5E7827",
"N. c #5D7923",
"B. c #5F722A",
"V. c #616425",
"C. c #626C24",
"Z. c #61652B",
"A. c #636C2B",
"S. c #696D2C",
"D. c #627225",
"F. c #637324",
"G. c #687426",
"H. c #667C26",
"J. c #637A23",
"K. c #697826",
"L. c #64732B",
"P. c #6A742C",
"I. c #667B28",
"U. c #65792A",
"Y. c #6A7A2C",
"T. c #727B2E",
"R. c #646532",
"E. c #636C31",
"W. c #6A6D34",
"Q. c #657231",
"!. c #6C7432",
"~. c #6D7B32",
"^. c #6D753A",
"/. c #687A3A",
"(. c #717532",
"). c #727C34",
"_. c #72743D",
"`. c #727A3B",
"'. c #797D3B",
"]. c #767945",
"[. c #63801F",
"{. c #698123",
"}. c #6C822B",
"|. c #6F8829",
" X c #6E8233",
".X c #728134",
"XX c #748039",
"oX c #79833C",
"OX c #81813C",
"+X c #818941",
"@X c #808348",
/* pixels */
"% s w $ s F L J , 2 w , * B n < z b.z n v @.^ w 6 6 v w d 3.` p.n ^ d d m & y x n n w z % k.y h.t 0 , D.x x 2./ w e p v * q z n ",
"s w 0 % % e ] v z y n % v m w B b ( n ;.h.T u n x d n < 2 g o.g 3.! d 2 s % 0 u m n r n t n 0.y e n : n g w v e (  .3.s T } % w ",
"n ) v n < z s $ w m n r , * s z z c 2 s $.v =.4.v s f v %.] 0 s x C v e , O , n n r e y y O u ! w e T L ; + w 0 v y z 6 ;.H.V w ",
"w e A 0 < %.z w 0 n ` z n & w 6 w z %.>.y 6 x C n w 0 + n c I.x w n ] T v , r n 1 y 0 , n w s.V 0 5 J V 0 , v n n C x ; ; 4.v x ",
"% w s $ % * f m.! 0 ^ b w * 0 , % x n v M.| w n m T V w d.D n n x , f.a.r z ;.T t y n y u J p J % L n 4 v w v y n O.* d ,.^ x w ",
"0 * % < 2 $ > z v 6 * d z C +.6 ^ T u ! v n n w u A.r n T ] A.H A c.w.! B n n y t p., n r A.n.w , ^ f n n f z 0 v y y w s / V w ",
"& w w n z y y > * f 6 * g g z v 4.$.` ! l.R n T q.U ^ n u C 7.T B J.+.g s 4.XXu.9 k.n z ( J.H.y.r 0 y h.y O O u n , ; z 3 y >.n ",
", z f v n 0 f % & & * % & z b J J z u H 7...V 8.J.g f #.T % x D g g d v n h.j.D.u n.^ y l.n.w j.t n 8 w 1 ; 0 4.z y ` b b O - < ",
"T x f n n * $ O $ & 0 0 z >.4.C.x v U * z D v v v g e F 8.n 4 e x x n d ] c.e 0 b n A.P.l.F.r q.x.k.q w y 0 w C * y b r : y w V ",
"v z v %.n z O - O O w w n D v +.n x 8.^ 0 7 x v x x V n d v B A V v n e  .x u u ; 0.9.f.2...u L M.].c.0 ] b ; 9 b O y t 0 , * O ",
"% z v z v & z , < o z J.f v z w n.J d B g C C n V e x v x z z f g f 2 v G V T n.J f.!.^./ / y ) ^ XXU.v z b , y 3.J e U i w ; ; ",
"t q n T n 0 y n w $ $ < B B ^ n * z v z z v g v s v s & s d z & * 2 v g v v F.D.J.l.W.H.z.n a.q.< 0 u b > , 0 u x n.L s n T w.x.",
"G.0 e G.R p.n h.0 2 z 6 v v v * o $ z d c & < 2 s g f $ & z z n , w v B ^ v J k.k.c.}.^ l.n.3.` n y y y b 0 w.p n x u , x C C.C.",
"l.w.; 5 x 6 J l.z $ + n v z & c s $ $ s z z < % x o.^ 2 @ < * v A.d.f v x b = t B.y 3.m.v J z >.w y n v 6 e ^.2.n l.u u 0 < n w ",
"k.S.r 0 e 6 V / v n.e z n z < > , < $ & * z  .i.v g n * 3 z w ) 4.^ z ^ G.L.y D.C n ^ b.F.w y h.= ; J p.0 J M.z n.J. .A.^.r % v ",
"v } n d 6 6 6 s v ;.+.y < < $ * O O * z < n n.n.z z >.w y y z w B ] | / G.| n n.j.3.n J.Q.9 x y t n n u a.w n < s V G.F.C.C.4 * ",
"& B 6 * v O 5 6 D 0 y n n 6 * < & z y b y z v ( ` 4.n m y 0 6 y c +.T M V J B.n y l.~.m 0.w.l.y p e w c.l., b p.0.y 4.T ..5.C w ",
"w v z M } 0 6 h D ^ * x v * d n - z b y w 0 n @.,.e e / v n ` x x v ,.2.z n U.u w U.}.c.T B.U.3.! 0 ] G.L.n.y y l.n.f x G.l.T e ",
"a.E.M d B v 0 e R u 4 6 s * z n r b >.w n n x s ! 2.^ n B B v g o.o.+.4.n e n.Y.n 0.k.h.n.z.U.l.y p R T n.L c.J.D m.] v =.4.! 8.",
"n.~.u.6 < z B a.d.n * * x w * / v V v >.V g g $.+.5.n x T d +.n.v J u n n.l.L.u.i.c.L.;.J R.!.l.J (.S.R n u.v v <.v <.F.T +.,.n.",
"] ~.F.J n - v }.C.v z y < < % ^ n 0 A x g 4.v V y n B 7.,.7.D ! F.Y.] } J.i.L.c.c.L.U.h.k.OXK.h.` n.U.l.w.k.^ ) l.n V 8.J 0 ^ n ",
"p.A.J.7.! ] z 4.Y.h.z n * % n ! A / ,...D <.l.U.| ^  .l.v J.] d @.{.J./ V L.Q.Y.P.k.l.c.h.).c.c.F.J w.`.w.(.F.N.n.A ( z ( l.u 0 ",
"n n.!.| n ( c.<...n < y ; x B ] D D.^ 8.n.x B {.J.J.C.v z v z 6 & 5.J.x $ ` L.n.D.A.h.x.h.u `..X!.l.a.`.D.R l.U.<.L.) 2.0  .7.n ",
"l.n ).d.% x c.T Y.Y.b V e % n P.A.] z v n z * O.J.4.^ z x v y , n e n.6 * A.l.y R. XM.A.w.u.P.f.~.D.).!.!.u.J x.V.W...l.e f.L.n.",
" .2...^ e T ).C.V 4.d.l.h.w x {.2.v v v n O y w n.^ n , w y ( y +.c n v v A.c.L.).^.}.~.^.F.R Y.T.A h.P.+X Xk.u R ..h R T | x.l.",
"M K.| q M .... .r n / ! h.D.! v B , 6 y / y ^ B z v v v n t 0 h.^ s / x u p a.L u c.l.~.P.A H T a.t y p A.L.F.T w f.d.M x.D.c.c.",
"M i q e F.V e 7 l.p.x n v / V n 0 v z u 0 n ` d ( ^ 6 x n.J.h.Y.a.6 s d ! L.k.y w ! k.T w y n 0 y w.t.!.d.C.c.a.d.c.W.T A.A.x.S.",
"} R T 6 6 l.T 7 ..} x x 6 4.B ^ ` s n U.n c.l.5 6 z D F.7. .J.! M u x C ! f.c.u e w n n ; 0 n r x n.!.U.P.C.k.A.oXG.).A.w.R 7.| ",
"} G.J x T A.n C V e G D d v w v 8.F.J.J.J.C e q e % w 7.V q H q w n g +.u L L n b e r < w J  .,.] n J.D.n T x M W.P.).A.C.v A C.",
"G T ^ ] ^ ^ d e d F g d d 7 x # % n.G M e M 0 n J d x  .e T | x w x g x a.x 0  .b A.c., w e e M x e B ] w ; J c.U d...P. .e ! G.",
"p J n * g d F d s x s s s B v 6 7 A ! e g.T * c.^ d J C ! A F 0 e q u n e e M c.f.` Q.p.0 e 4 e e e 0 w e r H T M U l.| x T ! l.",
"T R C x ,.F x V A d g s s f e x x A ] H D w w R e x ..} V H p 4.u w V.J e e e H Y.a.E.^.w.e w } G.F.d 6 J l.C.N N a P.!.e A.P.J ",
"x M ~.l.D.x 5 e V q 0 w 6 x ! h | C.A A p ! T 0 R p 6 M y w C J.d j $.D p 5 T e R a.L.^.L.e J J D.S.n x J | d.l.g.Y.} 2.f.D.C.p ",
"T ` F.T y T 4.<.x q e ` u R ] e w V x r e 7.D s #.<.6 l.P.w ` V d v j d x s.s.w.E.y y / C J i e  .7.J x x M } A.l.D.Z.e A.P.0.C.",
"n.D.p.f.T J 0 n +.x h j h.! d D e x U.J n F.d F g j s V C d d 6 s v n x s n.c.l.~.J C 0 C r q T u x D A } C.C.A.P.C.!.c.x.U k.r ",
"^ ! d.C.2.q r x x x w d J w x D.m 4 | V x 6 6 d V x d p e x e l.d s v <.z n C B / p e n T L.2.e u !.F...M d.p V.'.T..XA.t.9.u.s.",
"V ]  .e u x i M x F j d v x x / J H J 6 e T x s s D A ..2.x V ] 6 d l v p x u ! n a.t $ y T | t L | J.l.y w C R x.C.P.D.U.y T K.",
"M u f.9.8 u...` 6 F #.j x e n 6 4 H % C i 2.n s j o.n  .V d d x * 6 x H T e e l.u D.Q.0 e 0 0 q 5 5 6 C q ; J c.M ..} F.x T ! l.",
"u | H i } ` v v C d g 6 d d n n d d b e D s * s d g l.R A } D v w q w.b w e e f.Q.H Z.D.q e w T | ! 6 4 n J ..M i a L.l.i d.C.k.",
"! R l.! G.v 5 x A x s 6 6 d x F  .| / G M e u r p e V M w u x 4.e d 7.! e e T x l.f.^.^.E.e e ! P.C.d x | D.C.N g.C.F.Y.p D.U.e ",
"e J ~. .J n J C x t , u r J ..e M } x q u ,. .6 ..| 6 ..c.w  .n.g F g v p e T u x.u p.P.l.M T J F.P.n e n x T C.l.Y.U x c.D.R Z.",
"n.A.h.u.u l.! / A x F G R | B T w C k.y n G.j j o.j 6 l.n.x n 6 v x V d s A.c.f.~.b e w x t q p C B ! V M C.6.A.C.c.W.T A.D.u.J ",
";.| a.A. .w ; e B e 5 d ` v f  .e n P.C n x d v v h s C e d e x s v x M z ( v ] L.` } T T i.J V p c.D C.(.c.e.S.).G.~.A.q.u k.q.",
"V  .l.!  .e e x x C x s V e v U.n s M s d w 7 d x x V N ! x J n.6 s B >.z z T B v Y.A V | Y. .r p P.F.).oXP.l.V.'.T..XA.E.r.t C.",
"C H a.r ; x N R V F j g g x x x A N p v e F.n 6 d @.( n.<.6 d x 6 d g f s % A.G.n T e w n H c.A.A.!.} w i.L.w.P.l.D.p l.(.G.G.n.",
"Z.c.f.a p f.7.F.M ] <.s x e ! x *  .4.v 6 A z d g g w | V A F n 0 6 g F s 6 D.G.u u t F.H Z.P.T.P.!.f.9.p R V.l.h.9.t.!.P.Y.J.a.",
"F.H.A.A.7.2.A B T ! ^ x / ^ n w z  .A V d V < w d B s e e G F 6 e * x x s ] U.D.l.J C ..M Y.! L.C.R d.^.c.M K.w.n E._.XX~.U.n F.",
"2.| G.G.N D 8.F g D ] 7.V x C w 7 e M M G d w 6 f ^ f n x A J 5 e x d F +.l.h.w k. .C F M ..] a.a.a.n.U...V.(.XXP.).!.F.F.n.l.c.",
"K.D.D.] U e D F x 6.G 7.B 5 v J q | x x M e e x x g B ] ..! ] r 0 v s V 2.c.R ....G.T H M i A.Z.| | | T J.P.G.C.P.P.P.!.l.J.Y.A.",
"~.P.G.l.x.u x 7.^ ..} 7.v x q U V ] ..! ] e ; v v x D F v c.x.l.; q x d 4.l.p D.T M R R M i C.p e G.F.z % ! l.U G.'.P.!.G.Y.U.!.",
"U.U.F.c.).}.x x y B ....e l.x.n 6 R ( k.f.A.u ; e s V s x Y.n a.R.k.V s g x A.! x ; p c.C...n.m F.J ^ b n R l.C.P...l.G.Y.oX2.P.",
"M.n...Y.J.x T A H d B <.<.] L.n y ( <.U.D.n x.f.4.f g d v ( * c.n.n z w n ^ L R H c.R g.V.D.h.) J.3.` 0.u e | G.J.2.G.2.4.|.F.A.",
"l.d D U.D G ..,.A C n 6 s g c z n v B / z n /.m w w y n z v %.g s v v J : i.U.n.d.f.l.a.!.P.` i.n.v ) c.n.c.l.C.G.K.A.L.n 3.j.J ",
"n w z l.v d D y M d x < ^ w z v d n z v v v s v v n u , s w h.g 0 * v q c.c.p.n | A. .u h.L.n 0 f.D.n ] V n ~.C.D.Z.D./ 0 A.U.l.",
"m n u x 6 w T e f * x k.! w + r ` x f * n +.s < g e p u * 5.+.z x 6 s D [.T ~.l.t H q R n l.f.0 J n O , e l.G.F q z.A.e d.3.,.,.",
"U.! y ^ n a.J / z O w e , , & v y $ $ +.3.f z 6 s F 8.F.w f 2 2 z v 6 s +. .2.A.k.u w.Z.u r.l.h.q.U.J c.J A.P.n / l.t } d.x v L ",
"J | D ] v 5.B M.q q v < O y L n $ z e v g 2 z v s s k / M e 6 z & v z v B g J `.L l.l.L.A.~.l. .Y.U.m m ] t.^.C.M @.J V T g 5 w.",
"<.F.w | h.0 6 % J F.y w n C.k.& < r x M < z 2 s v d B B B M v X.& n & 2 6 ^ d.).F.G.! @XY.L i.J ) y.y p.y l.P.6.R ,.5.x ! M x ! ",
"p g.W.` u 9.J w w y v v +.4.j.w j v / N v O.& z z 2 s v v z $ v =.% % * J k.w n y f.` ~.A.u n. .v y.n h.w ` P.Y.L.=.B ..G 2.B n ",
"! T A.T T G. .n w n % , z m.m >.#.n 2 v & f =.6 $ % w a.e 4 , z v B d v o.z % e n 9.) w L.L T R ` v.> r e l.W.Z.U.<.x G x n d T ",
"V w H w.e / ) m w.u J w v v z n n.l.% e , < v B x v v ( 6 2 * 3 y ` v r q } x n h.h.N.a.] k.q./ z w b b l.n.G.Z.J ( V r t T 0 V ",
"% $.2.k.0 r y 6 w w :.* v , x ` ( l.x * * z * ` v n 0 C v 0 - =   R , m x f / n 0 Q.L x.p Y.] r % > b n c.j..X'.Q.w C l.p l.n ^ ",
"y n x x v n e < * w 6 w z l.J n n ) z z - , . p 0 y u x c / v J = % 6 x n * n y x.L.U.l.a.m n l.v r y 9.L.u F.Y.).T J n M T x g ",
"/ n n 6 x A ( * z x 0 % y ~.4.w c < b B e ) X O s f V 6 z z w J f < , y a.; t.L.p.Y.h.q y $ 0 J J.z , r.v.x q } C.G x + x D v ( "
};
