/* XPM */
static char *_7a400771b56477880653691c0d43055EuQWPS03BTk7H33Z[] = {
/* columns rows colors chars-per-pixel */
"59 64 221 2 ",
"   c None",
".  c #671E18",
"X  c #412B34",
"o  c #522F2D",
"O  c #642B2A",
"+  c #6F2922",
"@  c #782A25",
"#  c #683A2F",
"$  c #285C26",
"%  c #347234",
"&  c #454836",
"*  c #585A38",
"=  c #6A4A37",
"-  c #6D5535",
";  c #71632C",
":  c #2A3A4D",
">  c #2A495B",
",  c #314C4E",
"<  c #195678",
"1  c #17566D",
"2  c #2B4E64",
"3  c #244967",
"4  c #25536D",
"5  c #32516A",
"6  c #2A5374",
"7  c #24567B",
"8  c #325B75",
"9  c #3B637B",
"0  c #425054",
"q  c #755B43",
"w  c #675149",
"e  c #7B6B5C",
"r  c #7B6E4F",
"t  c #475969",
"y  c #465D72",
"u  c #476478",
"i  c #5A6773",
"p  c #7B6D66",
"a  c #757168",
"s  c #882C1B",
"d  c #882B23",
"f  c #8B2C29",
"g  c #992C27",
"h  c #863729",
"j  c #8C3837",
"k  c #A52D29",
"l  c #B62B29",
"z  c #AD332C",
"x  c #AE3026",
"c  c #B23228",
"v  c #B73130",
"b  c #CB2F29",
"n  c #C22F26",
"m  c #CE342B",
"M  c #CB3224",
"N  c #D4342C",
"B  c #DD312B",
"V  c #D43432",
"C  c #DE3233",
"Z  c #CE3136",
"A  c #E3312B",
"S  c #E73129",
"D  c #E33130",
"F  c #884C1E",
"G  c #875A23",
"H  c #875E34",
"J  c #946B28",
"K  c #93763B",
"L  c #8E6F2D",
"P  c #A76B28",
"I  c #A67E24",
"U  c #A77C3B",
"Y  c #B3772F",
"T  c #8A5956",
"R  c #866747",
"E  c #8A774C",
"W  c #8C6B51",
"Q  c #846A5C",
"!  c #976F55",
"~  c #8B7A53",
"^  c #99775C",
"/  c #936047",
"(  c #A97A4E",
")  c #847362",
"_  c #8C7663",
"`  c #8C7A6C",
"'  c #877A6C",
"]  c #947661",
"[  c #967A67",
"{  c #8A7F75",
"}  c #34813E",
"|  c #308946",
" . c #96801F",
".. c #9F803E",
"X. c #8B883E",
"o. c #A9813B",
"O. c #BA8433",
"+. c #AF9328",
"@. c #FDB81F",
"#. c #C48736",
"$. c #C79835",
"%. c #D99C34",
"&. c #CC962B",
"*. c #EE9E38",
"=. c #C6A42A",
"-. c #D9AA2A",
";. c #D7B127",
":. c #C8A636",
">. c #DBAD3A",
",. c #DBB33D",
"<. c #EDA42C",
"1. c #EEAA2D",
"2. c #FBAA25",
"3. c #F6AB2C",
"4. c #F8AB2A",
"5. c #F8A425",
"6. c #EDB92D",
"7. c #FBB325",
"8. c #F4BB25",
"9. c #FBBC26",
"0. c #F9B12A",
"q. c #FABA2A",
"w. c #F5B72C",
"e. c #E8A735",
"r. c #E7B934",
"t. c #F9B931",
"y. c #F0A631",
"u. c #FDCD1B",
"i. c #F9CB1B",
"p. c #FBD01C",
"a. c #EECA2A",
"s. c #E5C72C",
"d. c #FCC426",
"f. c #F6CD24",
"g. c #FDCD23",
"h. c #F5C02B",
"j. c #FCC329",
"k. c #FCCB29",
"l. c #F5C929",
"z. c #F5D124",
"x. c #E9C037",
"c. c #9D8645",
"v. c #96815E",
"b. c #8F8142",
"n. c #A28C47",
"m. c #99876D",
"M. c #8B8174",
"N. c #89847B",
"B. c #94887A",
"V. c #AC8366",
"C. c #A9836A",
"Z. c #A6876A",
"A. c #B48969",
"S. c #B78969",
"D. c #B29372",
"F. c #B99378",
"G. c #B49071",
"H. c #CBA043",
"J. c #C58B67",
"K. c #CA9873",
"L. c #D49B72",
"P. c #E39D74",
"I. c #D7A47B",
"U. c #C2A07E",
"Y. c #E5AA7D",
"T. c #E9A87A",
"R. c #F6AD7D",
"E. c #F8AD78",
"W. c #F6B17E",
"Q. c #F9B27D",
"!. c #0C5F87",
"~. c #1B5C8A",
"^. c #165B89",
"/. c #1A5C94",
"(. c #165F96",
"). c #095E97",
"_. c #245786",
"`. c #18628A",
"'. c #05659E",
"]. c #0A649E",
"[. c #086799",
"{. c #116396",
"}. c #116299",
"|. c #096089",
" X c #0367A3",
".X c #0068A6",
"XX c #0267AA",
"oX c #0069AA",
"OX c #0A64A2",
"+X c #5A7585",
"@X c #72808F",
"#X c #7E949A",
"$X c #958B82",
"%X c #99948A",
"&X c #8D8D8F",
"*X c #A18B88",
"=X c #9CA09E",
"-X c #C29B84",
";X c #C8A587",
":X c #D6A785",
">X c #DDB38E",
",X c #DDB591",
"<X c #E5AD85",
"1X c #E8B488",
"2X c #F5B483",
"3X c #F9B582",
"4X c #F5B98D",
"5X c #FABB8C",
"6X c #F9B888",
"7X c #ECBC93",
"8X c #E7B991",
"9X c #F4BC94",
"0X c #FBBD93",
"qX c #FCC28E",
"wX c #F2C18E",
"eX c #F5C395",
"rX c #FBC295",
"tX c #F6C49A",
"yX c #F9C299",
"uX c #F9C39B",
"iX c #EDC097",
/* pixels */
"                                                                                                                      ",
"                                                                                                                      ",
"                        N.) Z.F.D.` M.                                                                                ",
"                    ) ,XeXrXuXuXrXrXtX;XN.                                                                            ",
"                  -XrXrXrXrXrXrXrXrXrXrXeXe                                                                           ",
"                ,XrXrXrXrXrXrXrXrXrXrXrXrXtXQ                                                                         ",
"              D.rXrXrXrXeXeXrXrXrXrXrXrXrXrX9X                                                                        ",
"            ' uXrXrXrXrXeXeXrXrXrXrXrXrXrXrX0XC.                                                                      ",
"            Z.rXeXeXeX<XW eXrXrXrXrXrXrXrXrXeX4X                                                                      ",
"            8X:XeXeXeXeXrXrXrXrXrXrXrXrXrXrX0X6Xp                                                                     ",
"            wXI.rXrXrXrXrXrXrXrXrXrXrXrX:X1X5X3X^                                                                     ",
"            eXuXrXrXrXrXuX8XrXrXrXrXrXrX7XV.0XQ.[                                                                     ",
"            rXeXuXeXrXrX>Xa rXrXrXrXrXrXI.W 5XQ._                                                                     ",
"            7XtX` tXrXrXuXV.rXrXrXrXrXrXrXrX4XW.{                                                                     ",
"            U.uXw eX8X8XrXrX0X0X0X0XrXrXrX0X6X<X                                                                      ",
"            _ 0X0XuX4X7XrXrX0X0X0X0XrXrXrX5X2X]                                                                       ",
"              9X0X0XuXtXrXtX9X9X0X0XrXrX5X4XY.          B.                                                            ",
"              [ 0X0X0XeXtX>X9X0X0X0X0X5X6XE.Q         c.k.s.~                                                         ",
"                :X5X0X1X^ K.rXrX0X0X5X3XW.v.      ~ r.u.g.g.g.; D.'                                                   ",
"        M.        <X5X5X5X5X5X5X6X2X2XR.R     m.,.u.g.g.g.g.k.f.G.eXm.                                                ",
"      p 8Xe         S.Q.Q.2X2X2XQ.E.E.Y.+ # b.k.u.g.g.g.g.g.p.g.J qXuX;X                                              ",
"      ! 0Xq K.        ` A.T.R.T.J.E.L.g k I -.+.z.u.g.g.g.g.g.d.:.6XeXqX,X$X                                          ",
"    R tXuXqX1X                  L.h Z s x.u.g.k.I f.g.d.g.g.g.d.>.Y.6XtXrX7X$X                                        ",
"    [ 3XrXrX1X                p m N F z.g.g.g.g.u.$.6.d.j.d.j.q.%.=XK.3XrXrX8X                                        ",
"      ] 2X5X9X%X              r f  .g.g.g.g.g.;.g.k.=.e.0.0.w.2.K     ! R.5XrX;X%X                                    ",
"        B.Y.rXeX_             c.l.p.g.g.d.d.d.+.g.g.d.=.<.y.<.%.          V.3XrXeXq `                                 ",
"          ` 5XrXrXG.    v.:.g.g.g.g.g.g.d.j.-.a.g.g.g.j.+.                  S.9X= = C.                                ",
"            A.0XrXrX-X..h.k.g.g.g.g.g.k.h.0.G u.g.g.g.d.t.c.                F.P.;X/ ^                                 ",
"              Y.rXrXrXS.D.e.g.g.g.g.g.j.7.e.=.z.g.g.g.d.f.8.B.                _ & :X                                  ",
"              M.W.rXrXrXuXL.>.u.g.g.d.q.3.J g.g.g.g.g.g.g.j.>.                                                        ",
"                ] 3XrXrXrXQ.( r.g.g.d.0.5. .g.g.g.g.g.g.g.d.j.6.^                                                     ",
"                  C.2X3XQ.T.- G 7.d.9.4.&.l.g.g.g.g.g.g.g.g.d.9.8.$.*X                                                ",
"                    ] A.) %X%.y.#.2.3.5.G u.g.g.g.g.g.g.g.g.g.g.j.q.0.~                                               ",
"                              o.P 5.5.<.I g.g.g.g.g.g.g.g.g.g.g.d.j.q.0.o.                                            ",
"                                M.o *.O.a.d.g.g.g.g.g.g.g.g.g.g.g.g.d.q.0.U                                           ",
"                                    ) ;.g.g.g.g.g.g.g.g.g.g.g.g.g.g.g.d.9.4.o.                                        ",
"                                      u.g.g.g.g.g.g.g.g.g.g.g.g.g.g.g.d.9.4.5.U                                       ",
"                                      s.g.g.g.g.g.g.g.g.g.g.g.g.g.g.g.d.9.2.#.                                        ",
"                                      n.g.g.g.g.g.g.g.g.g.g.g.g.g.g.d.9.3.- _.y                   > 8                 ",
"                                        g.g.g.g.g.g.g.g.g.g.g.g.g.j.t.2.& }.}.{.`.6 +X        T N M o 1               ",
"                                        >.g.g.g.g.g.g.g.g.g.k.k.d.q.1., XX X.X X'.}.(.2       h V D B k > i           ",
"                                        ~ d.d.g.g.g.g.g.g.d.i.h.t.&.< oX X.X.X.X.X].(.7     :.9.Y V A N v o 4         ",
"                                          6.9.j.d.d.d.d.j.9.q.3.; .X X.X.X.X.X.X.XOX{.~.K G i.9.1.f c d B b d >       ",
"                                      8 {.!., K e.q.@.9.7.H.* !..X.X.X.X.X.X.X.X.X'.}.~.R 8.d.e.d z $ $ S A n O ,     ",
"                                  u ]..X'.XX XoX X|.< < '. X'..XXX.X.X.X.X.X.X.X.X'.{.3 eXH 2.J N @ } + c A N l ,     ",
"                                < oX.X.X.X.X.X.X.X.XXX.X'.).oX.X.X.X.X.X.X.X.X.X.X'.}.w 5XF.*.      %XO N A M g 0     ",
"                              < oX.X.X.X.X.X.X.X.X.X.X'.}.2 7 .X X.X.X.X.X.XoXoX.XOX~.I.:XH E           j v k o       ",
"                              ^. X X.X.X.X.X.X.XoX X].(.6     9  X.XoX.X.XoX.XoX.X.Xt '                               ",
"                              +X X.X.X.X.X.X.X.X X]./.5         #X~. XoX.X.X.X.X.X<                                   ",
"                                4 oX.XoX.X.XoX.X]./.6               +X{..X.X.X.X^.                                    ",
"              T                 m.2 OX X.X.X.X]./.7                     +X`. X<                                       ",
"          a V A N         B.n._ rXiX> ].OXOX]./._.&X                                                                  ",
"          : A A S j     *XX.$.wX0X3XJ.y _.~._._.i                                                                     ",
"          < x C S . | z k a.f.H E.^       5 _.t                                                                       ",
"          @X: n A @ % h J g.d.w.P W                                                                                   ",
"            u : b m g m O.7.0.#.(                                                                                     ",
"              y X M A B s e.O.                                                                                        ",
"                t O b N x f                                                                                           ",
"                  > @ x l w                                                                                           ",
"                    5 X Q                                                                                             ",
"                                                                                                                      ",
"                                                                                                                      ",
"                                                                                                                      ",
"                                                                                                                      "
};
