/* XPM */
static char *_4ec8c7b025e4accdbed892e558b58d4poQA5iYZUhy7hiDk[] = {
/* columns rows colors chars-per-pixel */
"64 79 145 2 ",
"   c None",
".  c #361901",
"X  c #3B1C01",
"o  c #3E3B07",
"O  c #462502",
"+  c #492602",
"@  c #442B03",
"#  c #4C2A03",
"$  c #522E04",
"%  c #453205",
"&  c #4F3205",
"*  c #443C07",
"=  c #4C3A06",
"-  c #553204",
";  c #5A3505",
":  c #533806",
">  c #5E3906",
",  c #623D06",
"<  c #3E4208",
"1  c #3C4A0A",
"2  c #35530C",
"3  c #3B530D",
"4  c #315B0E",
"5  c #2A620F",
"6  c #30600F",
"7  c #2C6510",
"8  c #2D6911",
"9  c #326611",
"0  c #3F6611",
"q  c #316E14",
"w  c #3A6D14",
"e  c #357315",
"r  c #397617",
"t  c #3B7A16",
"y  c #3C7C19",
"u  c #404609",
"i  c #524709",
"p  c #5F4608",
"a  c #4D530C",
"s  c #664107",
"d  c #6A4407",
"f  c #6D4708",
"g  c #6E4808",
"h  c #744D09",
"j  c #6A500A",
"k  c #795109",
"l  c #446915",
"z  c #407F12",
"x  c #3F801A",
"c  c #4D8C0F",
"v  c #52900D",
"b  c #458313",
"n  c #488916",
"m  c #43851C",
"M  c #478A1E",
"N  c #498C1D",
"B  c #4E911A",
"V  c #549616",
"C  c #589610",
"Z  c #579916",
"A  c #5B9D14",
"S  c #539618",
"D  c #529519",
"F  c #549618",
"G  c #519419",
"H  c #5FA112",
"J  c #5EA013",
"K  c #5FA013",
"L  c #5FA113",
"P  c #65A60F",
"I  c #65A70F",
"U  c #66A70F",
"Y  c #66A70F",
"T  c #61A211",
"R  c #61A311",
"E  c #62A311",
"W  c #60A112",
"Q  c #60A212",
"!  c #61A212",
"~  c #63A410",
"^  c #63A510",
"/  c #62A411",
"(  c #63A411",
")  c #63A413",
"_  c #64A510",
"`  c #64A511",
"'  c #64A610",
"]  c #65A610",
"[  c #66A710",
"{  c #64A512",
"}  c #60A214",
"|  c #63A411",
" . c #67A810",
".. c #67A810",
"X. c #68A811",
"o. c #68A911",
"O. c #69A911",
"+. c #69A912",
"@. c #69AA12",
"#. c #6AAA12",
"$. c #6AAA13",
"%. c #6BAB13",
"&. c #6BAB14",
"*. c #6BAB16",
"=. c #6CAC14",
"-. c #6CAC15",
";. c #6DAD15",
":. c #6FAE17",
">. c #6AAB13",
",. c #6FAF18",
"<. c #70AF18",
"1. c #70AF18",
"2. c #71B019",
"3. c #72B11A",
"4. c #73B21B",
"5. c #74B21C",
"6. c #75B31D",
"7. c #76B41D",
"8. c #76B41E",
"9. c #77B51E",
"0. c #77B51F",
"q. c #74B21C",
"w. c #78B51F",
"e. c #79B720",
"r. c #79B721",
"t. c #7AB721",
"y. c #7BB822",
"u. c #7CB923",
"i. c #7DBA24",
"p. c #7EBB25",
"a. c #7FBC26",
"s. c #7CBA24",
"d. c #81BD27",
"f. c #80BD27",
"g. c #81BD27",
"h. c #82BE29",
"j. c #83BF2A",
"k. c #82BE28",
"l. c #85C02B",
"z. c #86C12C",
"x. c #87C22D",
"c. c #86C22C",
"v. c #85C12B",
"b. c #88C32E",
"n. c #88C32E",
/* pixels */
"                                                                                                                                ",
"                                                                                                                                ",
"                                                              M M                                                               ",
"                                                        M M M N M M                                                             ",
"                                              M M M N N U ~ A U U M                                                             ",
"                                              M M Z U U U U U i.;.F M M r 8                                                     ",
"                                  G ] ] N M M B U U U U U U U  .U U U M m m e 8 8                                               ",
"                                N U ,.8.T U M ] U U U U U U U U U U U A M M M M 8                                               ",
"                                N U U U U U G N T H U U U +.+.U ;.U U U N M M M e                                               ",
"                                m M r r N F M M M T U U U +.+.r.b.U U U M y x m r                                               ",
"                              M M m M M e M x M M B U U ] U U +.a.T ] A t M B G M                                               ",
"                              M M M M M M M M M M M M M M U T ] ] M m r M ]  .;.T M                                             ",
"                          M M A A N M M U U F N M M M M M M M m y M m M B U b.z.U M M M                                         ",
"                          M ] U i.;.Z U U U U U B ~ ] G M M r M G N m U U U i.+.~ A M M M                                       ",
"                          M U U b.8.U U U U U  .U U U U N M M T U U T U U U U U h.U M M M                                       ",
"                          G U U U U U U U U U b.U U 8.8.A m M U U U U U U U U U ;.U T M                                         ",
"                      M G T U U U U U U U U U +.U  .b.b.] M M ] U U U U U U U U U U ] M                                         ",
"                    M F U U U U U U U r.z.U U U U U b.b.U M M T U U U U U U U U U U Z M M                                       ",
"                    M A U U U U U U U l.b.+.U U U U U U H M M Z U ] U U ~ U U U U U ] M M                                       ",
"                  M M A U U U U U U A H ] F G N U U U U M M M M M N U H M U U U U U B M M                                       ",
"                    A U U U U ~ M M M M M M M M M G B M M M M M M M M M M N ] U M M M M M                                       ",
"                    B U U U U G r M M M M M G  .&.~ M G M M M M M M M r r m M M M M M M M M M M M M Z B   Z A M                 ",
"                    e A U U G m M B T F  .T U z.b.;.U U T  .U M M M r M M M M M M M M m e M M M M G U U H 2.b.G M               ",
"                    M U U ~ M m M U U U  .U U U  .U U U U ;.U M M m q Z &.M m M m 8 8 y m m y M M Z U U U 8.l.] A               ",
"                  M M T U M M t M U U U U U U U U U U U U U T m y m A U z.G y M M q M } i.U Z q y M G U U U U U ] M M           ",
"                    M M M M y N ~ U U U U U U U U U d.h.U U B B G ~ U U U &.G m m m A z.z.U H G H M M U U U U 2.U U M 8 8       ",
"                    M M M M m ] U U U U U U d.+.U d.b.b.U M M U U U U U U b.T M e m U +.U U z. .U N M M U U U +.+.F M M M 8     ",
"                      M M M M ] U U U U U U i. .N  .<.U N M M U U U N U H ~ N r e m Z U U U 8.U U U N M U U r.6.U G M M M e     ",
"                            M Z U U U ] M B N M 7 M M M e 7 M M B e M M M m x e M M M F U U U U U U Z M A A U U N M m m M       ",
"                              M M M N N F x 8 > 8 7 4 o 8 r 4 r 8 8 7 e 3 o 8 y M M M U U U U U U U N M M M N M M r M M M e     ",
"                                M H U U U m 4 u 4 8 8 > 4 M 9 ; 8 8 8 8 @ 8 8 e M M m T U b.b.U U U M M M M M m m y M M M M     ",
"                                M A U G M q # 6 < y m * = t t % 1   8   O 8 8   e m r G U +.+.] A B M M M M m T U B U U Z M     ",
"                      M M   M     M M r 8 8 4 ; & q t 8 > 8 8 7 >             M M M 7 M B Z B M M M M M M M M U U U U U N       ",
"                    M A ] G ] M       8 8     # , 8 8   #       #     O     q M M y 8 2 5 M M M M G N ;.+.Z U U U U U U T M     ",
"                M   N  .b.U U U M M M M         ,         -       >   O     8 8 1 8 8 o 7 M M M G U U ,.z.U U U U 2.U Z N       ",
"              N U T ] U u.U 2.u.U M M M         $ $       >       ; O       8 8 % 8 - y 8 m M M H U U U U U U U U z.a.Z M       ",
"              G U U  .l.U U z.b.U M t m M         ;       ;       ; O         8 : : 9 M 8 m o M ] U U U U U U ;.6.+.<.M M       ",
"        M G G ] U U U ;.U U  .;.~ n U A M   M     -       $       , O           ; = 8 x 8 l + M N ] ] U U U U Z B M M           ",
"      m U U U U U U U U U ~ A Z m G i.y.A U U M     -     #       ,             ; 4 8 8 8 > 4 8 m M M U T &.+.Z M               ",
"      e T U U U U U U U A B M y U ] &.+.w.U U N     ,       #     >             - 8 8 8 > 2 m m r M M M M ] ] M M               ",
"        m A U U U U U U G M M y U U U U U U U H M   $ -     -   + -             #     ; 8 8 M 8 8 M M M M M M M                 ",
"      m M M G M A Z B A M M M M Z +.l.U U U T x r     ,     >   # #           # # ; -     8 8   8 8 y m M                       ",
"      M M N F M b ] H M M M M M M ] U Z U A e t 8     > -   >   ; +           ; , -               8                             ",
"        M U U T T ;.i.~ U ~ Z ] M M M r y e 8 t 8     # ,   ; + ; +           , ;                                               ",
"    M G U U ] N y y.b.<.l.U U U A M M 7 % e m 8       O > ; , s > O         - >                   x M M                         ",
"    M ] <.h.A e U U 2.U  .U U U U M M 8 o 7 x 8         > d , s ; +       # >         M M y M x M y +.&.M                       ",
"    M M T ~ M r U U U U U U U G y q @ o 1 -             > h , s ;         ;           M M m b m P v z.z.F A M                   ",
"      r m m M M r ] U U U U U U m 8 m 9 = h $           , k , ; - +     ; O       y M M M U U U h.+.l.a.U U Z M M               ",
"          8 m M N U +.U  .] U U N 8 y x     , $         , k s # - O   > #         m M } M U U U +.U U U U U U T M M             ",
"            8 M G +.b.;.+.+.m m w O 2 8       , -       , h s # $ O s >           y N h.M A U U U U U U U U ;.8.M M             ",
"                N U z. .N F m t q e * ; +     + , ,     , d s $ + # h       8 q 8 m U U 2.G B G U U U U U 2.U ] M r             ",
"                M G T G M M     8 q       ; d , s > d   > s s - O ; #     8 M M q M F U 8.U M M F U T U y.d.F m q               ",
"                M M M                           > , d > s , s ; X >       8 x 8 4 M N U U B M M A x M ~ U T M M                 ",
"                                                  O > h > s , - X ;         8 8 O 8 M N T N U U 8.C c z M M M M                 ",
"                                                    + , h , ; # X ;           = 6 8 M M N U U U 2. .l.+.M M M y                 ",
"                                                      # , s - + X ;           * y e 8 x M A U U U U  .U G M M m                 ",
"                                                        , , - + X -         ,   8 8 y 8 M B U ] U U U Z M m t                   ",
"                                                        - , ; # O $       ; - # $ ; , # M M M M G Z M M M r                     ",
"                                                        + , , ; . #     # > , $ #     8 8 8   M M                               ",
"                                                          s s f . O     , +                                                     ",
"                                                          , , h O X # ,                                                         ",
"                                                          ; , h + . s #                                                         ",
"                                                          $ , h + . s                                                           ",
"                                                          # > h + O s                                                           ",
"                                                          + , h + # ,                                                           ",
"                                                            , h + ; ,                                                           ",
"                                                            , h # , ,                                                           ",
"                                                            , f ; s ,                                                           ",
"                                                            , , d s ,                                                           ",
"                                                            , s h d >                                                           ",
"                                                            , h h f >                                                           ",
"                                                            , h h g >                                                           ",
"                                                            d , k f > +                                                         ",
"                                                            f s k s , #                                                         ",
"                                                          4 d 9 h i p :     r                                                   ",
"                                                      8   w 0 q j w a 2 r y q                                                   ",
"                                                        y y t e e r m 8 r e t                                                   ",
"                                                        8 8 q r q e 8 q 8 8                                                     ",
"                                                                                                                                "
};
