/* XPM */
static char *_f3e028754e64bb389f66e90324c27c3gYmfldutZjHV5lE0[] = {
/* columns rows colors chars-per-pixel */
"64 64 228 2 ",
"   c None",
".  c #6F1D0D",
"X  c #583616",
"o  c #6F3112",
"O  c #385D19",
"+  c #3E631A",
"@  c #3D6626",
"#  c #3D7125",
"$  c #6B4709",
"%  c #7E5013",
"&  c #567807",
"*  c #486B1D",
"=  c #45751D",
"-  c #4D7411",
";  c #72720E",
":  c #7B7110",
">  c #6F760B",
",  c #416A25",
"<  c #506421",
"1  c #4A792B",
"2  c #4A7632",
"3  c #840A03",
"4  c #9C0202",
"5  c #940704",
"6  c #8D1804",
"7  c #9C1C10",
"8  c #A30303",
"9  c #AB0504",
"0  c #AD0B09",
"q  c #A90B08",
"w  c #B30404",
"e  c #BB0303",
"r  c #B30C0A",
"t  c #BB0C0A",
"y  c #B60A06",
"u  c #AD140A",
"i  c #B3120D",
"p  c #BC110E",
"a  c #B51411",
"s  c #BB1513",
"d  c #BE1D19",
"f  c #B81E15",
"g  c #862004",
"h  c #8E3B0F",
"j  c #95380B",
"k  c #BB221B",
"l  c #B8261A",
"z  c #B32E11",
"x  c #BB3323",
"c  c #B63520",
"v  c #C20403",
"b  c #CC0302",
"n  c #C50D0A",
"m  c #CD0C0A",
"M  c #C80906",
"N  c #D30402",
"B  c #DC0503",
"V  c #D60806",
"C  c #D20C09",
"Z  c #DC0C0B",
"A  c #DC0805",
"S  c #CD130C",
"D  c #D31009",
"F  c #DD130E",
"G  c #C21514",
"H  c #C41C14",
"J  c #CA1C13",
"K  c #C11C1A",
"L  c #CC1B19",
"P  c #D61815",
"I  c #E20403",
"U  c #EA0402",
"Y  c #E40C09",
"T  c #E00807",
"R  c #FD0403",
"E  c #F30B05",
"W  c #FD0A06",
"Q  c #FE0C0B",
"!  c #F40A08",
"~  c #EB130A",
"^  c #F9100C",
"/  c #E51513",
"(  c #EB1C1B",
")  c #E71918",
"_  c #FE1414",
"`  c #FC1B16",
"'  c #FD1C1B",
"]  c #F31A1A",
"[  c #C3221C",
"{  c #CB221D",
"}  c #C62919",
"|  c #DB2B1D",
" . c #D6261B",
".. c #CC341B",
"X. c #C13707",
"o. c #E82719",
"O. c #F3211C",
"+. c #FB271B",
"@. c #EA341F",
"#. c #C42522",
"$. c #CC2421",
"%. c #C52926",
"&. c #CC2A26",
"*. c #CA2D2A",
"=. c #C72A28",
"-. c #D22B24",
";. c #D92B28",
":. c #C43227",
">. c #D73324",
",. c #D3342A",
"<. c #D33C27",
"1. c #C13D31",
"2. c #D23532",
"3. c #EA2321",
"4. c #E32A25",
"5. c #EC2C2C",
"6. c #E72822",
"7. c #FC2623",
"8. c #FF2D24",
"9. c #F22E2C",
"0. c #FF2E2A",
"q. c #F12821",
"w. c #EC342C",
"e. c #E53526",
"r. c #F6352B",
"t. c #EC3535",
"y. c #EA3D34",
"u. c #FA3633",
"i. c #F53E3C",
"p. c #F93A35",
"a. c #94511A",
"s. c #88500C",
"d. c #A8460B",
"f. c #AF4214",
"g. c #BA4528",
"h. c #BD4730",
"j. c #B57329",
"k. c #C4482C",
"l. c #CC4C33",
"z. c #C54634",
"x. c #D25131",
"c. c #E7442C",
"v. c #E54132",
"b. c #E54E3C",
"n. c #E54E37",
"m. c #F4433E",
"M. c #FA433A",
"N. c #E35639",
"B. c #F0432B",
"V. c #EF4B43",
"C. c #FF4642",
"Z. c #FA4C49",
"A. c #E65244",
"S. c #EB5B45",
"D. c #F7534E",
"F. c #FD514C",
"G. c #F05140",
"H. c #FD5452",
"J. c #F25951",
"K. c #FC5D5C",
"L. c #F95655",
"P. c #EC5B53",
"I. c #EE6159",
"U. c #FD615D",
"Y. c #E67859",
"T. c #FE6363",
"R. c #FE6B67",
"E. c #FD6D6D",
"W. c #F56A65",
"Q. c #F37A6B",
"!. c #F57371",
"~. c #FD7573",
"^. c #FE7C7A",
"/. c #FE7876",
"(. c #568307",
"). c #568408",
"_. c #5C8A09",
"`. c #588607",
"'. c #5F891D",
"]. c #668B0A",
"[. c #64930B",
"{. c #69960D",
"}. c #6B9B0E",
"|. c #66990E",
" X c #748D12",
".X c #6D9B13",
"XX c #679417",
"oX c #779918",
"OX c #76A714",
"+X c #7DB418",
"@X c #598625",
"#X c #598837",
"$X c #538C27",
"%X c #618C24",
"&X c #64942B",
"*X c #6B9728",
"=X c #719628",
"-X c #628D36",
";X c #768130",
":X c #669935",
">X c #659639",
",X c #709D31",
"<X c #77A722",
"1X c #7CB22F",
"2X c #6BA835",
"3X c #78A535",
"4X c #79B636",
"5X c #69A225",
"6X c #7CCB3E",
"7X c #83B91A",
"8X c #808B2D",
"9X c #81B22E",
"0X c #84B737",
"qX c #8BBB41",
"wX c #DF8260",
"eX c #9CCE4E",
"rX c #84CF43",
"tX c #9EE155",
"yX c #FD8383",
"uX c #FF8D8B",
"iX c #FA8A87",
"pX c #FF9189",
"aX c #FC8F91",
"sX c #FB9996",
"dX c #FFA6AA",
"fX c #FFA9AA",
"gX c #FFB3B6",
"hX c #FFB7B8",
/* pixels */
"                                                                                                                                ",
"                                                                                                                                ",
"                                                                                                                                ",
"                                                                                                                                ",
"                                                                                                                                ",
"                                                                                                                                ",
"                                                                                                                                ",
"                                                                                                                                ",
"                                                                                                                                ",
"                                                                                                                                ",
"                                                                                                                                ",
"                                                                                                                                ",
"                                                                                                                                ",
"                                                                                                                                ",
"                                                                                                                                ",
"                                                                  OX{.                                                          ",
"                                                                  j.oX|.+X0X    , @                                             ",
"                                                          +.R Q W @.j.=XXX<X1X  1 #                                             ",
"                                                      _ Q ` @.+.R ~ o.c < = *X5X&X1                                             ",
"                                                    8.+._ R R R Q R R E X.% * 3X4X:X                                            ",
"                                                  R W r.M.Q ! N.r.~ d.].[.{.[.%X3XeX                                            ",
"                                                ` Q 7.F.L.p.R E ~ d.; _.[.[.|..X*XqX                                            ",
"                                              ` B.B.F.y.G.p.` ! 9.o.H j > ].[.|..X0X&X        rX4X                              ",
"                                            Q R ^ ` F.u.p.H.( Y.Q.U.` N u s.].}.[.9X%X'.  tX6X$X                                ",
"                                            Q ' E.^.pXuXyX^.F.I.^.C.W I v 9 j ].{.<X0X4XrX2X=                                   ",
"                                          q.y.Z.n.U./.D.E.~.C.M.0.W U <.B N 9 h XX%X:X$X= O                                     ",
"                                        Q Q 7.` o.~.w.N.W.^.0.` 0.W Y ..R B a.&X&X@X-X+ *                                       ",
"                                        ' u.T.R.^.^.' r.T.uX5. .J.C.R R U f.,X:X:X#X1 @X@X                                      ",
"                                      e.Z.b.U.t.;.sXaXfXhXdXY N.Q.C.R N f 8X2X>X-X1 , @X,X*X                                    ",
"                                      o.D.b.H.>.<.dXgXiXaXgX] _ H.' I y a.3X:X-X#X, * - 3X3X                                    ",
"                                    _ Q C./.^.P.E.gX!.S o.yXdXT.8.R B k.;X>X#X2 @ X & - '.<X                                    ",
"                                  O.O./ L.3.yXyXK.dXL.S.sXuX!.) t.` U i o o o . 3 3 `.).XX7X                                    ",
"                                  c.A.b.5. .T.3.Y ~.E.M.yXuX( F ;.u.U e 4 5 5 5 5 6 `.`..XOX                                    ",
"                                +.7.m.D.b.S.i.T @.K.H.u.H.R.~ c.b.m.A e 9 9 8 8 8 6 (.`..XOX7X                                  ",
"                                O.` ' K.~.K.7.O.S.K.] Z Z 9.9.9.F.3.V f i 9 8 8 8 6 `._..X.X+X                                  ",
"                              c.v./ A t.V.( ] L.K.^ A J >.) u.i.q.C M g.,.t 0 q 4 6 (.`.: .XOX                                  ",
"                              u.S.F } V v b U U B B ) V.!.i.F Z D M t e t r c u 4 o & & j  X}.7X                                ",
"                              w.i.4.v.V J | I b J S Z 9.9.Z v } ..m t t r r u 9 4 $ & s.}  X{.+X                                ",
"                            v.>.F t.4.Z J.q.N n wXm.N b m m e H 4.m y a r r r 0 5 $ j  .    {.                                  ",
"                            A.w. .D e C 5.Z B 9././ b n l.} e n n y 0 g.y r p i 7 k L 4.    {.                                  ",
"                            <./ y.S k.n v e b T N v v J e.P w 9 r r 0 %.r p [ r { L  .w.                                        ",
"                            e.| C P ;.e l...e w k.r w t m w 0 k.i r r r p p l H ,.x s                                           ",
"                            ,.w.H f w e y.J 9 f l.G 9 8 8 q q &.G r p p s r r $.d r r                                           ",
"                            >.P -.[ a l w w q 9 y 9 0 x 0 q q p r s :.i K #.&.&.K s                                             ",
"                               .{ l l s q i k.i q 0 0 i 9 9 a r a a a a *.z.d =.K a                                             ",
"                              | [ x l 0 q u l r a -.s q 9 r h.r a k #.=.*.k [ k r                                               ",
"                                  :.f 0 g.l s s H l 9 a K d r a #.1.k K *.%.[ a                                                 ",
"                                      z.a s G d x K $.{ x k %.2.2.[ #.%.a y                                                     ",
"                                          #.$.{ $.-.,.[ k #.*.*.#.%.%.s                                                         ",
"                                                                                                                                ",
"                                                                                                                                ",
"                                                                                                                                ",
"                                                                                                                                ",
"                                                                                                                                ",
"                                                                                                                                ",
"                                                                                                                                ",
"                                                                                                                                ",
"                                                                                                                                ",
"                                                                                                                                ",
"                                                                                                                                ",
"                                                                                                                                ",
"                                                                                                                                ",
"                                                                                                                                ",
"                                                                                                                                "
};
