/* XPM */
static char *b743752e22e04231c688a2ab62355b84pzZ2u05nL3FW5qvf[] = {
/* columns rows colors chars-per-pixel */
"64 62 238 2 ",
"   c None",
".  c #551803",
"X  c #6A2808",
"o  c #762C0A",
"O  c #78320D",
"+  c #763512",
"@  c #5E7607",
"#  c #577315",
"$  c #787B11",
"%  c #6D5021",
"&  c #517B25",
"*  c #667225",
"=  c #9B0604",
"-  c #A40604",
";  c #B40B08",
":  c #BB0A06",
">  c #AF140A",
",  c #B7130C",
"<  c #BA1B13",
"1  c #852B0D",
"2  c #88340E",
"3  c #843C12",
"4  c #883A12",
"5  c #963914",
"6  c #943010",
"7  c #AA2911",
"8  c #B92416",
"9  c #BB341E",
"0  c #BF3323",
"q  c #C90B08",
"w  c #D30E0A",
"e  c #C8190D",
"r  c #DA110F",
"t  c #C61B12",
"y  c #DA1A16",
"u  c #FD0B0A",
"i  c #E91C19",
"p  c #F81C17",
"a  c #EA1309",
"s  c #C42819",
"d  c #D4271B",
"f  c #C7371A",
"g  c #DB3B1D",
"h  c #E5201B",
"j  c #F6231A",
"k  c #FC251C",
"l  c #E63B1D",
"z  c #D52E24",
"x  c #C33723",
"c  c #DA382A",
"v  c #CF2D21",
"b  c #EC2D28",
"n  c #E72A23",
"m  c #EC322C",
"M  c #E6322A",
"N  c #F3332B",
"B  c #E83A35",
"V  c #FA3A34",
"C  c #F73733",
"Z  c #F62D28",
"A  c #904306",
"S  c #8B4315",
"D  c #88451A",
"F  c #994616",
"G  c #954E1B",
"H  c #984718",
"J  c #9B521E",
"K  c #8A4B0F",
"L  c #A44616",
"P  c #A4531C",
"I  c #A4591E",
"U  c #AB581E",
"Y  c #B7551D",
"T  c #BC521C",
"R  c #AD460B",
"E  c #80630A",
"W  c #9C6919",
"Q  c #B2711E",
"!  c #995827",
"~  c #975923",
"^  c #904C23",
"/  c #A45A22",
"(  c #A95923",
")  c #B45B25",
"_  c #BE4D29",
"`  c #8C642A",
"'  c #AB6325",
"]  c #AC652A",
"[  c #AC6B2B",
"{  c #A86627",
"}  c #BC6A27",
"|  c #B66828",
" . c #B5722D",
".. c #BA732D",
"X. c #B7782F",
"o. c #B66C33",
"O. c #A97239",
"+. c #B47432",
"@. c #BB7534",
"#. c #B77935",
"$. c #BC7B34",
"%. c #BA7A3B",
"&. c #AA6C31",
"*. c #D44219",
"=. c #CB611E",
"-. c #CB4727",
";. c #D4522D",
":. c #EC463B",
">. c #F6453E",
",. c #E95132",
"<. c #C76729",
"1. c #C7742C",
"2. c #CB7C34",
"3. c #C57A37",
"4. c #D47C34",
"5. c #CE732E",
"6. c #E26B38",
"7. c #BA7C45",
"8. c #AA7149",
"9. c #EA4C4A",
"0. c #F24A42",
"q. c #F24A48",
"w. c #F84745",
"e. c #F2534B",
"r. c #F35755",
"t. c #C77C44",
"y. c #D5644D",
"u. c #F9635C",
"i. c #EB734B",
"p. c #F76864",
"a. c #F5716C",
"s. c #67920C",
"d. c #778D1F",
"f. c #6D9817",
"g. c #759E18",
"h. c #4F8229",
"j. c #5B8A32",
"k. c #67912A",
"l. c #6F9F36",
"z. c #789D2F",
"x. c #73A633",
"c. c #77AB2B",
"v. c #979331",
"b. c #BD823A",
"n. c #A38E34",
"m. c #93922B",
"M. c #C4833B",
"N. c #CC843B",
"B. c #CD8A3E",
"V. c #D48A3C",
"C. c #D88539",
"Z. c #D5913B",
"A. c #E18C3D",
"S. c #BB8849",
"D. c #BD8443",
"F. c #B08B4F",
"G. c #B9AD50",
"H. c #C98546",
"J. c #CC8C44",
"K. c #C78947",
"L. c #D38543",
"P. c #D38C44",
"I. c #D88C47",
"U. c #CC944B",
"Y. c #D49244",
"T. c #D3944B",
"R. c #DC944B",
"E. c #D4994D",
"W. c #DC9C4D",
"Q. c #DC9343",
"!. c #CE9A54",
"~. c #CB9657",
"^. c #D49554",
"/. c #D59C53",
"(. c #DB9D54",
"). c #D59D5B",
"_. c #D8995B",
"`. c #C88951",
"'. c #E3994B",
"]. c #E39E59",
"[. c #E58856",
"{. c #DBA14D",
"}. c #DBA355",
"|. c #D4A35C",
" X c #DBA45B",
".X c #DEA95D",
"XX c #CBAE4E",
"oX c #E3A254",
"OX c #E3AB5C",
"+X c #EAAD5B",
"@X c #E6A658",
"#X c #E9B25E",
"$X c #E8A64F",
"%X c #D49E61",
"&X c #DE8964",
"*X c #E99B64",
"=X c #CEA366",
"-X c #DCAA63",
";X c #D7A96A",
":X c #D9A566",
">X c #DCB36C",
",X c #D8A972",
"<X c #DDB87C",
"1X c #DCB372",
"2X c #E3AC63",
"3X c #E3AD6B",
"4X c #E7AB64",
"5X c #E6B264",
"6X c #EBB364",
"7X c #E5B46C",
"8X c #EBB96C",
"9X c #EAB56B",
"0X c #E5BA74",
"qX c #ECBC74",
"wX c #EBBE7A",
"eX c #E4B777",
"rX c #F1BE74",
"tX c #F2B969",
"yX c #EDC27A",
"uX c #F3C679",
"iX c #F4C26D",
"pX c #DEC07C",
"aX c #FC8E91",
"sX c #FB9092",
"dX c #DDB680",
"fX c #E7BC81",
"gX c #ECBC86",
"hX c #EAC588",
"jX c #F5C985",
"kX c #EDCA92",
"lX c #F7D899",
"zX c #F2D191",
"xX c #FBE09A",
"cX c #F4DAA8",
"vX c #EFDAAA",
"bX c #FAE5A8",
"nX c #F9E8B5",
"mX c #F9F0C8",
/* pixels */
"                                                        mXnXkX1XzXyXbX                                                          ",
"                                                  nXkXfXhXhXF.%.eX$.eXeXyX                                                      ",
"                                              cXvXhX<XyXyXdX).7X,XT.o.<X;X-X-X                                                  ",
"                                            qXcXvXkXhXhXzX          }.V.H.,X,XfX                                                ",
"                                          1XO.O.~.vX                    W.2.%.] 7X                                              ",
"                                      8X^.vX>X0X                          W.V.3.^.%X                                            ",
"                                    8X1X%.=XhX                              oXN.2.7.kX                                          ",
"                                    M.<X~.eX                                    L.|.3.                                          ",
"                                  -X!.hX>X                                      oXQ.J :X                                        ",
"                                yX7XD.hX                                          $X] ^.eX                                      ",
"                                }.|.U.                                              P.N.7.                                      ",
"                              wX.XS.hX                                                } ] H.                                    ",
"                              /.|.U.                                                  4.o.+.kX                                  ",
"                            hX.X&.hX                                                  '.2.+.:X                                  ",
"                            7X! }.                                                      P.2.K.J.                                ",
"                            +.U.t.                                                      oXV.%.3.                                ",
"                          hX}.^ hX                                                        A.@.o.                                ",
"                          wX! 7.                                                          '.3.%.                                ",
"                          ~.D U.                                                          @XN.J.R.                              ",
"                          / :XJ.                                                            Q._.2.                              ",
"                        fXo.#.!.                                                            '._.}                               ",
"                        |.eXD |.                                                            R.E.)                               ",
"                        P.#.%.J.                                                            (.L.]                               ",
"                        pX! +.F.                                                            ^.!.o.                              ",
"                      u :X,X^ h.          u *.d.c.h.                                        J.^. X                              ",
"                  k p j 3.%.! x.      k p j a R # x.                                        ].} J.lX                            ",
"                k V >.p _.G &.      1.,.>.p f E s.g.      l u *.d.c.h.          u *.d.c.h.  ].} 3.i.u *.d.c.h.                  ",
"              p V p.u.e.:XO.P.XXx.v.&.u.u.e.V w A s.x.n.M p j a R # x.      k p j a R # x.  9X=.N p j a R # x.                  ",
"              N w.0.p.V 3.H.3.U & ~ w.0.p.V j a L k.* g V >.p f E s.g.G.tX,.V >.p f E s.g.  2X,.V >.p f E s.g.                  ",
"        lXbXi.e.9.aXsX:.7.<.%XF & v.9.aXsX:.C e l.j.L V p.u.e.V w A s.z.-.V p.u.e.V w A s.z.<.V p.u.e.V w A s.x.x.j.            ",
"    bXlXlX6.N r.p.p.a.q.~.D ~.-.@ g.a.p.a.q.i 7 % 6 Z w.>.p.V j a L k.` Z w.0.p.V j a L k.` Z w.0.p.V j a L k.& &               ",
"jXR.jXyXL.b 0.>.m w.q.m ] [ eXN @ g.;.w.q.m b : - z e.9.aXsX:.C e l.j._ e.9.aXsX:.C e l.j._ e.9.aXsX:.C e l.j.& v.iXjX          ",
"qX#XuXuXi.h M i b i B n D / i.h @ $ Q i B n r t s N r.p.p.a.q.i 7 % 5 N r.p.p.a.q.i 7 % 5 N r.p.p.a.q.i 7 % + @ g.@XtXjXnX      ",
"7XuX6X+X,.M y y z r w s ! / ,.M F f W r w t e , n 0.>.m w.q.m b : - n 0.>.m w.q.m b : - n 0.:.m w.q.m b : - = @ g.Q C.'.6XxX    ",
"fXhXjXjXM d e w y q d < H.4 n d d w d q d ; ; z h M i b i B n r t v h M i b i B n r t v h M i b i B n r t > = @ $ m.I.  oXbXmX  ",
"  6X8XuX*Xy.x 8 x 8 8 9 ( . _ -.8 , 8 > > 8 8 c M y y z r w t e , c M y y z r w t e , c M y y z r w t e , ; = K Y W R.  zXbXyXxX",
"    yXhX}.@.+X_.3X@.^.:XO.`.qXjXjXgX4XL.<.4.R.M d e w y q d ; ; < n d e w y q d ; ; < n d e w y q d ; ; < < s ,.lXkXzXlX].nXzXlX",
"    wXjXyXzXE.OX^.)./.%.7.H.^.4XrXuXjXzXlXuXrX[.;.s < 8 > > 8 s f f f s < f 8 8 9 8 x ;.-.s 8 0 9 8 x x -.&X*X@XhXuXbXzXjXvXcX  ",
"    7X}.8X8X8X6X2X!.J.+  XH.L.I.L.N.oXT..X(.oX#X9XrX].(.R.N.3.2.C.V.P.eXgX,X^.t.1.<.5.R.cX_.) Y ) t.%XhXvX1XU.;XyX!.H.=X-XhXhX  ",
"    uX8X5X4XoX{.OXT./.4 0XwXhXhXhXjXjX3XT.OXE.Y. X^.T.J.L.R.'..X2X3XhX<X1X=X~.^.).:XuX:XdX=X%.~.fX,XS.~.] [ %.S.D.! ).~.] eX    ",
"      rX8X9X8XuXuXI.B.%.qXqX3X). XI.L. X2X5XE.( W.W.T.U.U.}.7XN.B.B.$. .M. X;X!.b.#.&.' ! [ %.$.J | / #.] J #.  } ,XJ.;X).%X    ",
"      yXqX9X6X+XOX6X6X2X4X_.R.L.C.E.4X9X3X(.T.L.N.OX/.E.V.J.E.+.| B...( 5 1 1 M.+.I I F 5 5 J { ! P   F 7.&.[ J.K.1X;X:XkXyX    ",
"      wXW.@XOX5X5XOXI.oXqXjXjXwXwX3X3X4XR.L.N.Y.@XOXE.Y.H.] 2.N.} 1...) P F 2 2 L | J I ! ! 8./ J &.#.' M.I.M.K.~.!.-X5.eXlX    ",
"        iX#XoX#X+X@X5XrXjXwX9X4X(. XqXjXkXqXfXwX3X X3.<.} L U } B.Y.U.B.K.K.#. ...$.[ X.M.S.F 3 ( J { [ G %.2.R.t.wX|.>XfX;X    ",
"        (.C.@X5X8XwX+XOX6XuXyX6X6XOXuX'.<.C.E.}.#X8X7X X.X}.{.T.B.3.$.| U 3 I o.}  .[ I S [ { | 2.I.Y M.J.} L %.#.|. X) eX      ",
"        8X7X9XY.8XoXU.T.7XqXyX7X2X.XE.wXwXwX).I.R.I.J.2.H.| L } <.2.N.....M.( 5 Y Y F S I U ) F ' #.[ [ @.@.1.Y -X3X).fXt.      ",
"        hXC.C.{.OX#X#XOX4.C.9X9XjXjXjXjXoX(.P.P.E.5X0X0X2X X/.J.B.U.U.U.M.M.$.$.M.b. ./ |  .' } <.<.] E.) ) / M.K.-XT hXlX      ",
"          8X5X}.{.C.V.Y.OX9XqXuX6X2XOXqXyXjXyXqX7X9X.XY.B.3.} U } <.V.| N.P.U L } =.| .XK.| @.} ' [ J 4 3 ] N.( cXE.eXhX^.      ",
"           X(.(..X8XqXqXqX6XOX8XuXuXyXuXOX#X+XY.Y.OX8X7X2X}.E.U.B.M. .X. ...M... .X.X.{ P  . .' | } @.M.1.] %.K.|.!.H.R.cX      ",
"            8X8X5XOX#X8X6X8XtXoXY.Y.W.W.}.}.OX{.Q.Q.C.1.C.N.| | B.C.5.B.2.4.] P ..<.M.1.R.U P   5 { [ ] b.M.} oXzXE.hXcX        ",
"            .X5X5X6X8X6X}.{.}.OX.XOXW.C.Q.V.Y.}.}.}.{.B.B.V.4.Z.Z.B.M. .[ | 3.Z.Z.{.|  .S.~.{ ....} J 3.+.J.+.>X|.|.>XH.        ",
"            0X8X7X/.5X5X#X#X$X'.4.W.@X2X8X7X7XOX}.T.Z.U.N.2.3.$.M.M.B.B.B.M.b.+.J )  .M.1XH.P Z.T./ @./ [ $.$.D.;XF wXcX        ",
"            >XOXOXOX+X6XW.P.}.-X-X5XT.oXW.OX9XwXyXwX0XE.b.X...2.Z.5.}.3.M.$.| M.%.U I [ |  .J J [ [ #.P $.) H.zX) eXhXkX        ",
"            OXT.Y.2.2.}.(.P.Y.oX(.7XqXwXuXwX8X+XP.U.}.7X{.U.U.M.M.M.K.M.b.b.b.X. . .[ [ | ' F =.+XF U.(.| #.U.M.~.3XkX          ",
"            0X2XE.}.W.6XOXJ.E.|..X.X/.E.}.5X3X2XOX+XA.Z.1.V.Y P U Y 5.Z.N.9X$.P ..OXZ.E.U.#.P F J { I '  .' U.$.:X<X<X          ",
"                -X5X(.3.M.-X7X8X0X7XJ.;X2X4XT.}.B.T.E.B. .@.K.}.Y.U.B. .' D.-Xb.' &.[ J G / ] ' P | } / R [ K.K.hX,XcX          ",
"                    wX7X!.O.S.=X|.%X_.| / /.3XOXJ.o.o.P.B.U./.( | /./.M. .} o.L 7...) b.U.2 o 6 F ! F ] P &.4 hX1X~.            ",
"                          |.7X-X0XH.).-X:X:X XH.o.] M.$.@.+.7.M.[ M.M.' P F 1 O F J J S 4 G ' B.( / ! 5 G 3 D.S.7.;X            ",
"                                eX;XeX:XeX! G M.E./.!.U.M.I 5 1 %.^.H.@.' I ! ~.>X7.S 4 1 o 4 S 3 S + O 3 O O.,X<X              ",
"                                          1X<X7.%.J.H.o.M.M.$.3.@.@.@.' I J F F S 3 S D S O S O o 4 X X ! =X                    ",
"                                                ;X;X:X}.|.+.b./ #.[ + 3 D D 3 o 4 . X X + O O o o 2 !                           ",
"                                                            %.[ J G G S ! G X X O O O O X X                                     "
};
