/* XPM */
static char *result[] = {
/* columns rows colors chars-per-pixel */
"64 62 238 2 ",
"   c #551803",
".  c #6B2908",
"X  c #652509",
"o  c #742D0A",
"O  c #7A2A09",
"+  c #75310C",
"@  c #7B340E",
"#  c #793712",
"$  c #852B0D",
"%  c #952B0C",
"&  c #88340E",
"*  c #92370F",
"=  c #843C12",
"-  c #883A12",
";  c #933C11",
":  c #9A3612",
">  c #A63A14",
",  c #AD3710",
"<  c #8B4315",
"1  c #88451A",
"2  c #944315",
"3  c #954E1B",
"4  c #9D4E1B",
"5  c #994617",
"6  c #9C521E",
"7  c #98541D",
"8  c #A54917",
"9  c #B54415",
"0  c #BA4B19",
"q  c #A4531C",
"w  c #A4591E",
"e  c #AB581E",
"r  c #BC521C",
"t  c #B7561D",
"y  c #995827",
"u  c #904C23",
"i  c #A74E22",
"p  c #A45A22",
"a  c #AC5B23",
"s  c #A45623",
"d  c #B25C24",
"f  c #BA5B23",
"g  c #B85A2B",
"h  c #B45931",
"j  c #AB6325",
"k  c #AD6A26",
"l  c #AC652A",
"z  c #AC6B2B",
"x  c #A46227",
"c  c #B46424",
"v  c #BB6524",
"b  c #B36A26",
"n  c #B2642A",
"m  c #B36B2B",
"M  c #BC6C2B",
"N  c #BC6A27",
"B  c #B5722D",
"V  c #BA732D",
"C  c #B7782F",
"Z  c #A86933",
"A  c #B46D31",
"S  c #B76B34",
"D  c #A97239",
"F  c #B47432",
"G  c #BB7534",
"H  c #B77935",
"J  c #BC7B34",
"K  c #B57C3D",
"L  c #BC7C3B",
"P  c #BA753A",
"I  c #AC702E",
"U  c #9E6C3A",
"Y  c #C3551B",
"T  c #C65B1C",
"R  c #CB611E",
"E  c #D0641F",
"W  c #C45D22",
"Q  c #C45A25",
"!  c #C46124",
"~  c #CC6523",
"^  c #C4652A",
"/  c #C36B2C",
"(  c #CB6B2A",
")  c #C86926",
"_  c #D16C28",
"`  c #C3732C",
"'  c #CC732B",
"]  c #CE7C2E",
"[  c #D4742D",
"{  c #D47A2E",
"}  c #C66B31",
"|  c #C17533",
" . c #CC7434",
".. c #C37D34",
"X. c #CB7C34",
"o. c #C37C3B",
"O. c #CD7C3A",
"+. c #C9763A",
"@. c #D37B33",
"#. c #D57B36",
"$. c #BA7C45",
"%. c #AA7149",
"&. c #C87D43",
"*. c #BC823C",
"=. c #BE8136",
"-. c #C3833C",
";. c #CC843B",
":. c #CD8A3E",
">. c #C68438",
",. c #D4843A",
"<. c #DA843B",
"1. c #D48A3C",
"2. c #DB8A3C",
"3. c #D88336",
"4. c #D5913B",
"5. c #E18C3D",
"6. c #BD8443",
"7. c #BB8849",
"8. c #B38855",
"9. c #C48442",
"0. c #C58B42",
"q. c #CC8C44",
"w. c #C58B4C",
"e. c #CE8C4A",
"r. c #C98546",
"t. c #D38643",
"y. c #D38C44",
"u. c #DB8C43",
"i. c #D48D4B",
"p. c #D98C47",
"a. c #CD944C",
"s. c #CA9349",
"d. c #D49244",
"f. c #DC9343",
"g. c #D3944B",
"h. c #DC944B",
"j. c #D4994D",
"k. c #DC9C4D",
"l. c #C88951",
"z. c #CB9453",
"x. c #CE9A54",
"c. c #CE9A5A",
"v. c #C89458",
"b. c #D49654",
"n. c #D59C53",
"m. c #DB9D54",
"M. c #D59E5B",
"N. c #D99958",
"B. c #E29445",
"V. c #E0964A",
"C. c #E39A4C",
"Z. c #E39B45",
"A. c #E29D53",
"S. c #E39E58",
"D. c #E08E43",
"F. c #DBA254",
"G. c #D4A35C",
"H. c #DBA45B",
"J. c #DEA95D",
"K. c #DBA557",
"L. c #DBA14D",
"P. c #E4A14C",
"I. c #E3A254",
"U. c #E3A45B",
"Y. c #E3AB5C",
"T. c #EAAD5B",
"R. c #E8A855",
"E. c #ECB25D",
"W. c #E5B15F",
"Q. c #F0B156",
"!. c #D49E61",
"~. c #CEA366",
"^. c #D4A363",
"/. c #DAA464",
"(. c #DCAA63",
"). c #DCAC6B",
"_. c #D7A96A",
"`. c #DCB36C",
"'. c #DBAC73",
"]. c #D3A570",
"[. c #DCB372",
"{. c #DDB87C",
"}. c #E3AC63",
"|. c #E9AD64",
" X c #E3AD6B",
".X c #E5A661",
"XX c #E6B264",
"oX c #EBB364",
"OX c #E5B46C",
"+X c #EAB56B",
"@X c #ECBA6D",
"#X c #EAB868",
"$X c #F1BA67",
"%X c #E2B573",
"&X c #E9B571",
"*X c #E5BA74",
"=X c #ECBC74",
"-X c #E4BC7C",
";X c #EBBE7A",
":X c #E1B67A",
">X c #F1BE74",
",X c #F4C26D",
"<X c #EDC27C",
"1X c #ECC178",
"2X c #F2C375",
"3X c #F1C57C",
"4X c #F6C97C",
"5X c #F9CB7D",
"6X c #DDB680",
"7X c #E7BC81",
"8X c #E6C384",
"9X c #ECC483",
"0X c #E6C38B",
"qX c #EBC58A",
"wX c #EECA88",
"eX c #F2C583",
"rX c #F4CA83",
"tX c #F9CD83",
"yX c #F3CB8B",
"uX c #F9D58C",
"iX c #F7D186",
"pX c #EDCB91",
"aX c #ECC995",
"sX c #F1CE98",
"dX c #F5D593",
"fX c #FADD9C",
"gX c #F6D799",
"hX c #EFD090",
"jX c #FBE09A",
"kX c #F4DCAC",
"lX c #F4D9A4",
"zX c #F3DDB1",
"xX c #EBD7A4",
"cX c #FAE4A4",
"vX c #FAE6AB",
"bX c #F9E8B5",
"nX c #F9F0C8",
"mX c None",
/* pixels */
"mXmXmXmXmXmXmXmXmXmXmXmXmXmXmXmXmXmXmXmXmXmXmXmXmXmXmXmXnXbXaX[.hX<XvXmXmXmXmXmXmXmXmXmXmXmXmXmXmXmXmXmXmXmXmXmXmXmXmXmXmXmXmXmX",
"mXmXmXmXmXmXmXmXmXmXmXmXmXmXmXmXmXmXmXmXmXmXmXmXmXbXaX7X8X0X8.K -XJ %X%X<XmXmXmXmXmXmXmXmXmXmXmXmXmXmXmXmXmXmXmXmXmXmXmXmXmXmXmX",
"mXmXmXmXmXmXmXmXmXmXmXmXmXmXmXmXmXmXmXmXmXmXmXkXzX0X{.1X<X6XM.OX'.g.S {._.(.(.mXmXmXmXmXmXmXmXmXmXmXmXmXmXmXmXmXmXmXmXmXmXmXmXmX",
"mXmXmXmXmXmXmXmXmXmXmXmXmXmXmXmXmXmXmXmXmXmX=XkXzXpX9X8XsXmXmXmXmXmXF.1.r.'.].7XmXmXmXmXmXmXmXmXmXmXmXmXmXmXmXmXmXmXmXmXmXmXmXmX",
"mXmXmXmXmXmXmXmXmXmXmXmXmXmXmXmXmXmXmXmXmX[.D D v.xXmXmXmXmXmXmXmXmXmXmXk.X.L l OXmXmXmXmXmXmXmXmXmXmXmXmXmXmXmXmXmXmXmXmXmXmXmX",
"mXmXmXmXmXmXmXmXmXmXmXmXmXmXmXmXmXmXmX@Xb.xX`.*XmXmXmXmXmXmXmXmXmXmXmXmXmXk.1.o.b.!.mXmXmXmXmXmXmXmXmXmXmXmXmXmXmXmXmXmXmXmXmXmX",
"mXmXmXmXmXmXmXmXmXmXmXmXmXmXmXmXmXmX@X[.K ~.qXmXmXmXmXmXmXmXmXmXmXmXmXmXmXmXI.;.X.$.pXmXmXmXmXmXmXmXmXmXmXmXmXmXmXmXmXmXmXmXmXmX",
"mXmXmXmXmXmXmXmXmXmXmXmXmXmXmXmXmXmX-.{.v.-XmXmXmXmXmXmXmXmXmXmXmXmXmXmXmXmXmXmXt.G.o.mXmXmXmXmXmXmXmXmXmXmXmXmXmXmXmXmXmXmXmXmX",
"mXmXmXmXmXmXmXmXmXmXmXmXmXmXmXmXmX(.x.8X`.mXmXmXmXmXmXmXmXmXmXmXmXmXmXmXmXmXmXmXI.f.4 /.mXmXmXmXmXmXmXmXmXmXmXmXmXmXmXmXmXmXmXmX",
"mXmXmXmXmXmXmXmXmXmXmXmXmXmXmXmX<XOX6.wXmXmXmXmXmXmXmXmXmXmXmXmXmXmXmXmXmXmXmXmXmXP.l b.-XmXmXmXmXmXmXmXmXmXmXmXmXmXmXmXmXmXmXmX",
"mXmXmXmXmXmXmXmXmXmXmXmXmXmXmXmXK.G.a.mXmXmXmXmXmXmXmXmXmXmXmXmXmXmXmXmXmXmXmXmXmXmXy.;.$.mXmXmXmXmXmXmXmXmXmXmXmXmXmXmXmXmXmXmX",
"mXmXmXmXmXmXmXmXmXmXmXmXmXmXmX;XJ.7.wXmXmXmXmXmXmXmXmXmXmXmXmXmXmXmXmXmXmXmXmXmXmXmXmXM l r.mXmXmXmXmXmXmXmXmXmXmXmXmXmXmXmXmXmX",
"mXmXmXmXmXmXmXmXmXmXmXmXmXmXmXn.G.a.mXmXmXmXmXmXmXmXmXmXmXmXmXmXmXmXmXmXmXmXmXmXmXmXmX@.A F pXmXmXmXmXmXmXmXmXmXmXmXmXmXmXmXmXmX",
"mXmXmXmXmXmXmXmXmXmXmXmXmXmX9XJ.Z wXmXmXmXmXmXmXmXmXmXmXmXmXmXmXmXmXmXmXmXmXmXmXmXmXmXC.O.F ^.mXmXmXmXmXmXmXmXmXmXmXmXmXmXmXmXmX",
"mXmXmXmXmXmXmXmXmXmXmXmXmXmXOXy K.mXmXmXmXmXmXmXmXmXmXmXmXmXmXmXmXmXmXmXmXmXmXmXmXmXmXmXy.X.w.e.mXmXmXmXmXmXmXmXmXmXmXmXmXmXmXmX",
"mXmXmXmXmXmXmXmXmXmXmXmXmXmXF a.&.mXmXmXmXmXmXmXmXmXmXmXmXmXmXmXmXmXmXmXmXmXmXmXmXmXmXmXI.1.L o.mXmXmXmXmXmXmXmXmXmXmXmXmXmXmXmX",
"mXmXmXmXmXmXmXmXmXmXmXmXmXqXF.u 8XmXmXmXmXmXmXmXmXmXmXmXmXmXmXmXmXmXmXmXmXmXmXmXmXmXmXmXmX5.G S mXmXmXmXmXmXmXmXmXmXmXmXmXmXmXmX",
"mXmXmXmXmXmXmXmXmXmXmXmXmX;Xy $.mXmXmXmXmXmXmXmXmXmXmXmXmXmXmXmXmXmXmXmXmXmXmXmXmXmXmXmXmXC.o.P mXmXmXmXmXmXmXmXmXmXmXmXmXmXmXmX",
"mXmXmXmXmXmXmXmXmXmXmXmXmXz.1 a.mXmXmXmXmXmXmXmXmXmXmXmXmXmXmXmXmXmXmXmXmXmXmXmXmXmXmXmXmXR.;.e.h.mXmXmXmXmXmXmXmXmXmXmXmXmXmXmX",
"mXmXmXmXmXmXmXmXmXmXmXmXmXs ^.q.mXmXmXmXmXmXmXmXmXmXmXmXmXmXmXmXmXmXmXmXmXmXmXmXmXmXmXmXmXmXf.N.X.mXmXmXmXmXmXmXmXmXmXmXmXmXmXmX",
"mXmXmXmXmXmXmXmXmXmXmXmX7XS H x.mXmXmXmXmXmXmXmXmXmXmXmXmXmXmXmXmXmXmXmXmXmXmXmXmXmXmXmXmXmXC.N.N mXmXmXmXmXmXmXmXmXmXmXmXmXmXmX",
"mXmXmXmXmXmXmXmXmXmXmXmXG.:X1 G.mXmXmXmXmXmXmXmXmXmXmXmXmXmXmXmXmXmXmXmXmXmXmXmXmXmXmXmXmXmXh.j.d mXmXmXmXmXmXmXmXmXmXmXmXmXmXmX",
"mXmXmXmXmXmXmXmXmXmXmXmXy.H P e.mXmXmXmXmXmXmXmXmXmXmXmXmXmXmXmXmXmXmXmXmXmXmXmXmXmXmXmXmXmXm.t.n mXmXmXmXmXmXmXmXmXmXmXmXmXmXmX",
"mXmXmXmXmXmXmXmXmXmXmXmX8Xy F x.mXmXmXmXmXmXmXmXmXmXmXmXmXmXmXmXmXmXmXmXmXmXmXmXmXmXmXmXmXmXb.x.S mXmXmXmXmXmXmXmXmXmXmXmXmXmXmX",
"mXmXmXmXmXmXmXmXmXmXmXmX).].u mXmXmXmXmXmXmXmXmXmXmXmXmXmXmXmXmXmXmXmXmXmXmXmXmXmXmXmXmXmXmXq.b.H.mXmXmXmXmXmXmXmXmXmXmXmXmXmXmX",
"mXmXmXmXmXmXmXmXmXmXmXmXo.L y mXmXmXmXmXmXmXmXmXmXmXmXmXmXmXmXmXmXmXmXmXmXmXmXmXmXmXmXmXmXmXS.M q.gXmXmXmXmXmXmXmXmXmXmXmXmXmXmX",
"mXmXmXmXmXmXmXmXmXmXmXmX!.3 Z mXmXmXmXmXmXmXmXmXmXmXmXmXmXmXmXmXmXmXmXmXmXmXmXmXmXmXmXmXmXmXS.M +.8XmXmXmXmXmXmXmXmXmXmXmXmXmXmX",
"mXmXmXmXmXmXmXmXmXmXmX&X_.D y.$XuXyXI.<.[ u.T.,X$X|.C.B.5.C.Q.$X,XmXmXmXmXmXmXmXmXmXmXmXmXmX+X( | %XmXmXmXmXmXmXmXmXmXmXmXmXmXmX",
"mXmXmXmXmXmXmXvXlXjXdX|.o.9.+.Y ) @.Y T T T , r Y ( @.[ _ #.[ _ <.#.A.oX5XuXjXcXmXmXmXmXmXmXOX.Xf t.mXmXmXmXmXmXmXmXmXmXmXmXmXmX",
"mXmXmXmXfXcXeXS.oX~ Y &X$.! !.> % % : , 9 9 9 0 0 9 } r 0 > , 9 0 > >  .W ~ @.S.E.,X5XtXtXtX&X+XO.t.y.mXmXmXmXmXmXmXmXmXmXmXmXmX",
"mXmXvXfXfXu.( g g &.i qXz.1 c.f 0 Y f / ^ f 0 r Q )  .+.i.f Q  .Q i.O.h.$ +.t.~ Z.<.#.<.D.Z.}.t.f.5XfXuXfXmXmXmXmXmXmXmXmXmXmXmX",
"tXh.tX<Xt.> 5 } +.O.r.aXl z -Xh.y.T ~ )  . .| O.) @. .^ &.f } @.[  .p.+.f t.S.i.#. .S.#.5.C.oXX.3.> > B.E.oX$X$X$X,XiXmXmXmXmXmX",
"=XE.5X5XI.S.b.@XoXT.(.w.1 p M.f y.u.N.h.p.g / y.f.f.,.Q ( W ~ ' @.<.u.O.r #.h.@.&.V.[ V.S.Q > 2.8 % &.t.#.Q _ 5.B.R.$XtXbXmXmXmX",
"OX2XoXT.rX4X^ u.S.oXeXK y p +.R _ { ~ T W , Y ' @.W 0 Y { ,.f.V.B.U.h. .^ B.V.A.|.} #.S.D.#.#.D.~ W $ h.N. .u.S.A.~ <.B.oXjXmXmX",
"7X9XtXtXtXrXtX5X|.#.9.b.r.-  .OXU.~ T T _ #.p.h.' R [ B.U.f.D.I.S. .W T #.C.S.A.S.Y #.S.S.D.S.#.O.T T u.i.#.A.|.m.} u.mXI.cXnXmX",
"mXoX@X3XuXlXdXdXiX;X!.P a   n @.Y ~ Y 9 Y 0 Y ) W 9 9 , ) 0 Y R R R { C.S.S.T.B.C.Q S.T.C.D..XQ u.<.D.D.#.<.T.U.mX! h.mXdXvX<XjX",
"mXmX<X9XF.G oX/.=XL M.).U l.=XiXuXyX+Xp.[ <.V.S.~ ~ <.I.S.#.,.B.I.mX( 9 [ #.3.5.V.+X.XR.A.D.U.V.A.A.I.T.p.2.A.<XlXlXdXgXS.bXuXfX",
"mXmX;XrX1XhXj.Y.b.M.n.L $.r.b.|.>X4XtXuXgX2X>X=X+X X&.Q W Y ~ #.R E [ 2.A.I.B.Q.I.0 #.B.C.B.+X'.pX&XoXY.T.cX=X.XwX2XcXsXrXzXlXmX",
"mXmXOXF.@X@X#XoX}.x.e.# H.r.t.p.t.;.I.g.J.m.I.E.@X4X|.U.m.q.>.X.3.1.d.;XsX:XM.r.| /  .h.lX/.v t h l./.wXxX[.a._.1Xx.9.~.(.0XqXmX",
"mXmX3X#XXX|.I.L.Y.g.n.- *X;XqXqXqXeXeX Xg.Y.j.d.K.b.g.e.t.h.C.J.}. X8X{.[.~.c.b.M./.4X/.6X~.K c.7X].7.z.l z K 7.6.y M.c.l %XmXmX",
"mXmXmX>X@X+X#X3X3Xi.:.L =X=X XM.H.i.t.H.}.XXj.a k.k.g.a.a.K.OX;.:.:.J B -.H._.x.*.H I j y z L J 6 m p H l 4 H mXM '.e._.M.!.mXmX",
"mXmXmX1X=X+XoXT.Y.oXoX}.|.N.h.t.,.j.|.&X Xm.g.t.;.Y.n.j.1.q.j.F c :.V a * $ $ -.F w w 2 ; ; 7 x y q mX2 $.Z z q.0.[._./.pX1XmXmX",
"mXmXmX;Xk.R.Y.XXXXY.u.I.=XeXeX;X;X X X.Xh.t.;.d.U.Y.j.d.9.n O.;.N ` V d q 5 & & 8 b 6 w y y %.s 4 I H j -.i.-.w.z.x.(.' :XgXmXmX",
"mXmXmXmX,XW.I.E.T.R.XX>XeX;X&X.Xm.H.=XyXpX=X7X;X XH.../ v 8 e M :.d.s.:.0.0.H B V J z C -.7.2 = a 4 x z 3 L X.h.&.;XG.`.7X).mXmX",
"mXmXmXmXm.3.R.XX@X;XT.Y.oX3X<XoXoXY.2XC.( 3.j.F.W.@XOXH.J.K.L.g.:...J b e = w A N B k w < z x m X.u.t -.q.N 8 L H G.H.d :XmXmXmX",
"mXmXmXmX@XOX+Xd.@XI.a.g.OX=X<XOX}.J.j.;X;X;XM.p.h.u.q.X.9.b 8 v ) ] ;.V V -.a * t t 5 < w e d 5 j H z z G G ` t (. XM.7X&.mXmXmX",
"mXmXmXmXwX,.,.L.Y.W.W.Y.@.2.+X&XeXyXyXyXI.m.y.y.j.XX*X*X}.H.n.q.:.s.a.s.>.>.J J >.=.B p b B j M ) ^ n j.d d s -.w.(.r 0XgXmXmXmX",
"mXmXmXmXmX#XXXF.L.2.1.d.Y.+X=X2XoX}.Y.=X<XeX<X=XOX&XJ.d.:...v e N ) 1.b ;.y.e 8 N R c J.w.m G N j z 6 - = l ;.a kXj.-XqXb.mXmXmX",
"mXmXmXmXmXH.m.m.J.@X=X=X=XoXY.@X2X2X1X4XY.E.T.d.d.Y.@XOX}.K.j.a.:.>.B C B V >.V B C C x q B B j c N G -.` n P w.G.x.r.h.kXmXmXmX",
"mXmXmXmXmXmX#X@XXXY.W.@XoX@X$XI.d.d.k.k.K.K.Y.L.f.f.3.` 2.;.b c :.3.' :.] @.n q V ) >.` h.e q mX; x z l *.-.M I.dXj.qXkXmXmXmXmX",
"mXmXmXmXmXmXJ.XXXXoX@XoXF.L.F.Y.J.Y.k.2.f.1.d.F.F.F.L.:.:.1.{ 4.4.:.-.B k b | 4.4.L.m B 7.v.x V V M 6 | F q.F `.G.G.`.r.mXmXmXmX",
"mXmXmXmXmXmX*X@XOXn.XXXXE.E.P.C.{ k.U.}.@XOXOXY.F.g.4.s.;.X...J >.>.:.:.:.-.*.F 6 d B >.[.9.q 4.g.p G p k J J 6.).5 ;XlXmXmXmXmX",
"mXmXmXmXmXmX`.Y.Y.Y.T.oXk.y.K.(.(.XXg.I.k.Y.+X;X1X;X*Xj.=.C V X.4.' K...>.J c -.L e w k m B 4 6 k k H q J f 9.sXf :X0XpXmXmXmXmX",
"mXmXmXmXmXmXY.g.d.O.X.K.m.y.d.I.m.OX=X;X3X;X#XT.y.a.K.OXL.a.s.>.>.>.0.-.*.*.*.C B B z k m j 5 R Q.5 s.m.m H a.-.v. XaXmXmXmXmXmX",
"mXmXmXmXmXmX*X}.j.K.k.oXY.q.j.G.J.J.n.j.F.XX X}.Y.T.5.4.` 1.t q e t ' 4.;.#XJ q V Y.4.j.s.H q 2 6 x w j B j a.J ^.{.{.mXmXmXmXmX",
"mXmXmXmXmXmXmXmX(.XXm.| -.(.OX@X*XOXe.).}.|.g.F.:.g.j.:.B G w.F.d.s.:.B j 6.(.=.j I z 7 3 p l j q c M p 9 z w.w.0X'.lXmXmXmXmXmX",
"mXmXmXmXmXmXmXmXmXmX;XOXx.D 7.~.G.!.N.m s n. XY.e.S S y.:.s.n.a b n.n.-.B N S 8 $.V d *.a.& O % 2 y 5 l q Z - 0X[.v.mXmXmXmXmXmX",
"mXmXmXmXmXmXmXmXmXmXmXmXmXG.OX(.*X9.M.(.^./.H.r.S n -.J G F $.-.z -.>.j q 2 $ + 2 6 4 < - 3 j :.a s y ; 3 = 6.7.$._.mXmXmXmXmXmX",
"mXmXmXmXmXmXmXmXmXmXmXmXmXmXmXmX%X).-X/.-Xy 3 -.j.n.x.a.-.w ; $ P b.r.G j w y c.`.$.< - $ O - < = < # @ = @ D ].{.mXmXmXmXmXmXmX",
"mXmXmXmXmXmXmXmXmXmXmXmXmXmXmXmXmXmXmXmXmX[.{.$.K q.r.A -.-.J ..G G G j w 6 5 2 < = < 1 < @ < @ o = X . y ~.mXmXmXmXmXmXmXmXmXmX",
"mXmXmXmXmXmXmXmXmXmXmXmXmXmXmXmXmXmXmXmXmXmXmXmX_._.^.F.G.F *.p H z # = 1 1 = o -   X . # + + o o & y mXmXmXmXmXmXmXmXmXmXmXmXmX",
"mXmXmXmXmXmXmXmXmXmXmXmXmXmXmXmXmXmXmXmXmXmXmXmXmXmXmXmXmXmXP z 6 3 3 < y 3 . . + @ + + . . mXmXmXmXmXmXmXmXmXmXmXmXmXmXmXmXmXmX"
};
